<?xml version="1.0" encoding="utf-8"?>
<!-- Generator: Adobe Illustrator 24.1.0, SVG Export Plug-In . SVG Version: 6.00 Build 0)  -->
<svg version="1.1" id="Layer_1" xmlns="http://www.w3.org/2000/svg" xmlns:xlink="http://www.w3.org/1999/xlink" x="0px" y="0px"
	 viewBox="0 0 291 132" style="enable-background:new 0 0 291 132;" xml:space="preserve">
<style type="text/css">
	.st0{fill:#141414;}
</style>
<path id="Tracé_919" class="st0" d="M107.3,60.5L107.3,60.5v-1.4h-0.1c-0.8-8-5.9-14.1-12-14.1s-11.2,6.1-12,14.1h-0.1v1.4l0,0
	L83,62h0.1c0.1,2.9,0.8,5.8,2,8.5h3.2l0.1-0.1C86.8,67.9,86,65,85.9,62h18.5c-0.1,3-0.9,5.9-2.4,8.5l0.1,0.1h3.2
	c1.3-2.6,2-5.6,2-8.5h0.1L107.3,60.5z M86.1,59.1c0.7-6.4,4.5-11.2,9.1-11.2s8.4,4.8,9.1,11.2H86.1z"/>
<path id="Tracé_920" class="st0" d="M161.1,60.5L161.1,60.5v-1.4H161c-0.8-8-5.9-14.1-12-14.1c-6.1,0-11.2,6.1-12,14.1h-0.1v1.4
	l0,0l-0.1,1.5h0.1c0.1,2.9,0.8,5.8,2,8.5h3.1l0.1-0.1c-1.5-2.5-2.3-5.4-2.4-8.4h18.5c-0.1,3-0.9,5.8-2.4,8.4l0.1,0.1h3.1
	c1.3-2.6,2-5.6,2-8.5h0.1V60.5z M139.8,59.1c0.8-6.4,4.6-11.2,9.2-11.2c4.5,0,8.4,4.8,9.1,11.2H139.8z"/>
<g id="Groupe_125" transform="translate(30.73 0.543)">
	<path id="Tracé_921" class="st0" d="M101.1,67.2v2.9H83V45h2.9v22.2H101.1z"/>
</g>
<g id="Groupe_126" transform="translate(84.688 1.447)">
	<rect id="Rectangle_67" x="83" y="45" class="st0" width="2.9" height="24.1"/>
</g>
<path id="Tracé_922" class="st0" d="M193.5,45.6c-4.6,0-9,2.2-11.7,5.9v-3.6h-2.9v22.6h2.9V60.2c0-6.5,5.2-11.7,11.7-11.7
	c6.5,0,11.7,5.2,11.7,11.7v10.3h2.9V60.2C208.1,52.2,201.6,45.6,193.5,45.6C193.6,45.6,193.5,45.6,193.5,45.6z"/>
<g id="Groupe_128">
	<rect id="Rectangle_68" x="121" y="84" class="st0" width="2.9" height="0.7"/>
</g>
<g id="Groupe_129" transform="translate(43.793)">
	<rect id="Rectangle_69" x="121" y="84" class="st0" width="2.9" height="0.7"/>
</g>
<g id="Groupe_131" transform="translate(0 0.568)">
	<path id="Tracé_923" class="st0" d="M129.6,86.8c-0.8,0-1.5-0.4-1.8-1.1l0.6-0.4c0.1,0.2,0.3,0.4,0.5,0.6c0.2,0.1,0.5,0.1,0.7,0.1
		c0.3,0,0.6-0.1,0.8-0.3c0.2-0.3,0.2-0.7,0.2-1.1V80h0.9v4.7c0,0.3,0,0.5-0.1,0.8c-0.1,0.3-0.2,0.5-0.4,0.7
		c-0.1,0.2-0.3,0.3-0.5,0.4C130.3,86.7,130,86.8,129.6,86.8z"/>
</g>
<g id="Groupe_132" transform="translate(5.011 2.167)">
	<path id="Tracé_924" class="st0" d="M130.1,85.2c-0.3,0-0.6-0.1-0.9-0.2c-0.3-0.1-0.5-0.3-0.7-0.5c-0.2-0.2-0.4-0.5-0.5-0.8
		c-0.3-0.7-0.3-1.5,0-2.2c0.1-0.3,0.3-0.6,0.5-0.8c0.2-0.2,0.4-0.4,0.7-0.5c0.5-0.2,1.2-0.2,1.7,0c0.3,0.1,0.5,0.3,0.7,0.5
		c0.2,0.2,0.4,0.5,0.5,0.8c0.3,0.7,0.3,1.5,0,2.2c0,0.3-0.2,0.6-0.4,0.8c-0.2,0.2-0.5,0.4-0.8,0.5C130.7,85.1,130.4,85.2,130.1,85.2
		z M130.1,84.5c0.2,0,0.4,0,0.6-0.1c0.1-0.2,0.3-0.3,0.4-0.4l0.3-0.6c0.1-0.3,0.1-0.5,0.1-0.8c0-0.3,0-0.5-0.1-0.8l-0.3-0.6
		l-0.4-0.4c-0.4-0.2-0.8-0.2-1.2,0c-0.2,0.1-0.3,0.3-0.4,0.4c-0.2,0.2-0.3,0.4-0.3,0.6c-0.1,0.3-0.1,0.5-0.1,0.8
		c0,0.3,0,0.5,0.1,0.8c0,0.2,0.1,0.4,0.3,0.6c0.1,0.2,0.3,0.3,0.5,0.4C129.8,84.4,130,84.5,130.1,84.5z"/>
</g>
<g id="Groupe_133" transform="translate(10.419 2.167)">
	<path id="Tracé_925" class="st0" d="M129.2,85.2c-0.4,0-0.7-0.1-1-0.4c-0.3-0.3-0.4-0.6-0.4-1c0-0.5,0.3-1,0.7-1.2
		c0.7-0.4,1.5-0.6,2.3-0.7v-0.5c0-0.2-0.1-0.3-0.2-0.4c-0.1,0-0.2-0.1-0.3-0.2c-0.2-0.1-0.3-0.1-0.5-0.1c-0.3,0-0.5,0.1-0.8,0.2
		c-0.2,0.1-0.5,0.2-0.7,0.3l-0.3-0.6c0.2-0.2,0.5-0.3,0.8-0.4c0.4-0.1,0.7-0.2,1.1-0.2c0.5,0,1,0.2,1.3,0.6c0.3,0.4,0.5,0.9,0.5,1.4
		v3H131l-0.1-0.5l0,0c-0.3,0.2-0.5,0.3-0.8,0.5C129.9,85.1,129.6,85.2,129.2,85.2z M129.5,84.5c0.2,0,0.5-0.1,0.7-0.2
		c0.2-0.1,0.4-0.3,0.6-0.5v-1.3c-0.3,0-0.7,0.1-1,0.2c-0.2,0-0.5,0.1-0.7,0.2c-0.2,0.1-0.3,0.2-0.4,0.4c-0.1,0.1-0.1,0.3-0.1,0.4
		c0,0.2,0.1,0.5,0.3,0.6C129.1,84.4,129.3,84.5,129.5,84.5z"/>
</g>
<g id="Groupe_134" transform="translate(20.141)">
	<path id="Tracé_926" class="st0" d="M127.8,87.2V80h0.8v7.2H127.8z"/>
</g>
<g id="Groupe_135" transform="translate(17.877)">
	<path id="Tracé_927" class="st0" d="M127.8,87.2V80h0.8v7.2H127.8z"/>
</g>
<g id="Groupe_136" transform="translate(22.581 2.064)">
	<path id="Tracé_928" class="st0" d="M127.8,85.1V80h0.8v5.1H127.8z"/>
</g>
<g id="Groupe_137" transform="translate(25.2 2.167)">
	<path id="Tracé_929" class="st0" d="M130.2,85.2c-0.3,0-0.7-0.1-1-0.2c-0.3-0.1-0.5-0.3-0.7-0.5c-0.2-0.2-0.4-0.5-0.5-0.8
		c-0.2-0.7-0.2-1.5,0-2.2c0.1-0.3,0.3-0.6,0.5-0.8c0.2-0.2,0.4-0.4,0.7-0.5c0.2-0.1,0.5-0.2,0.8-0.2c0.3,0,0.6,0.1,0.8,0.2
		c0.2,0.1,0.4,0.3,0.6,0.5c0.2,0.2,0.4,0.4,0.4,0.7c0.1,0.3,0.1,0.7,0.1,1v0.5h-3.3c0,0.4,0.2,0.8,0.5,1.1c0.3,0.3,0.7,0.5,1.2,0.5
		c0.2,0,0.5,0,0.7-0.1l0.6-0.3l0.2,0.6c-0.2,0.1-0.5,0.2-0.7,0.3C130.9,85.1,130.6,85.2,130.2,85.2z M128.6,82.2h2.6
		c0-0.4-0.1-0.8-0.3-1.1c-0.2-0.3-0.5-0.5-0.9-0.4c-0.2,0-0.3,0-0.5,0.1c-0.2,0-0.3,0.1-0.4,0.3c-0.1,0.1-0.2,0.3-0.3,0.4
		C128.7,81.7,128.7,81.9,128.6,82.2z"/>
</g>
<g id="Groupe_138" transform="translate(30.337 2.167)">
	<path id="Tracé_930" class="st0" d="M127.8,85v-4.9h0.7l0.1,0.9l0,0c0.1-0.3,0.4-0.5,0.6-0.7c0.2-0.2,0.5-0.3,0.8-0.3
		c0.2,0,0.4,0,0.5,0.1l-0.1,0.7c-0.1,0-0.1,0-0.2-0.1h-0.3c-0.3,0.1-0.5,0.1-0.7,0.3c-0.3,0.2-0.5,0.5-0.6,0.9V85H127.8z"/>
</g>
<g id="Groupe_139" transform="translate(22.581 0.411)">
	<rect id="Rectangle_70" x="127.8" y="80" class="st0" width="0.8" height="0.8"/>
</g>
<g id="Groupe_140" transform="translate(15.507 2.064)">
	<path id="Tracé_931" class="st0" d="M127.8,85.1V80h0.8v5.1H127.8z"/>
</g>
<g id="Groupe_141" transform="translate(15.506 0.411)">
	<rect id="Rectangle_71" x="127.8" y="80" class="st0" width="0.8" height="0.8"/>
</g>
</svg>
