<svg xmlns="http://www.w3.org/2000/svg" width="291" height="132" viewBox="0 0 291 132">
  <g id="Groupe_175" data-name="Groupe 175" transform="translate(3210 -9363)">
    <rect id="Rectangle_66" data-name="Rectangle 66" width="291" height="132" transform="translate(-3210 9363)" fill="rgba(255,255,255,0)"/>
    <g id="Groupe_170" data-name="Groupe 170" transform="translate(-5458.115 11404.572)">
      <path id="Tracé_1001" data-name="Tracé 1001" d="M2694.011-1601.966l-.171.222,5.566,4.349q.086-.111.173-.221c.059-.073.114-.149.174-.221l-5.568-4.35Z" transform="translate(-320.216 -388.906)" fill="#141414"/>
      <path id="Tracé_1002" data-name="Tracé 1002" d="M3305.438-1124.282c-.057.075-.116.148-.174.221l9.715,7.59.173-.221.173-.221-9.716-7.591c-.056.075-.114.149-.171.223" transform="translate(-898.23 -840.485)" fill="#141414"/>
      <path id="Tracé_1003" data-name="Tracé 1003" d="M2616.716-1660.858l3.016-1.012a42.915,42.915,0,0,1-6.747-1.9,42.929,42.929,0,0,1,3.479,6.087Z" transform="translate(-243.779 -330.685)" fill="#141414"/>
      <path id="Tracé_1004" data-name="Tracé 1004" d="M3373.188-1044.626a2.627,2.627,0,0,0-.826-1.594,1.585,1.585,0,0,0-.32,1.735,2.076,2.076,0,0,0,1.184,1.357,4.183,4.183,0,0,1-.039-1.5" transform="translate(-961.248 -914.491)" fill="#141414"/>
      <path id="Tracé_1005" data-name="Tracé 1005" d="M3405.557-1019.341a2.627,2.627,0,0,0-.826-1.594,1.585,1.585,0,0,0-.32,1.735,2.075,2.075,0,0,0,1.184,1.357,4.166,4.166,0,0,1-.038-1.5" transform="translate(-991.848 -938.396)" fill="#141414"/>
      <path id="Tracé_1006" data-name="Tracé 1006" d="M3437.922-994.055a2.628,2.628,0,0,0-.826-1.595,1.586,1.586,0,0,0-.32,1.735,2.074,2.074,0,0,0,1.184,1.357,4.177,4.177,0,0,1-.039-1.5" transform="translate(-1022.445 -962.299)" fill="#141414"/>
      <path id="Tracé_1007" data-name="Tracé 1007" d="M3399.279-1081.239c.382-.047.728-.38,1.462-.325a2.074,2.074,0,0,0-1.6-.821,1.586,1.586,0,0,0-1.606.73,2.625,2.625,0,0,0,1.747.415" transform="translate(-985.455 -880.292)" fill="#141414"/>
      <path id="Tracé_1008" data-name="Tracé 1008" d="M3431.645-1055.95c.382-.047.729-.38,1.462-.325a2.075,2.075,0,0,0-1.6-.82,1.586,1.586,0,0,0-1.606.73,2.627,2.627,0,0,0,1.747.415" transform="translate(-1016.052 -904.199)" fill="#141414"/>
      <path id="Tracé_1009" data-name="Tracé 1009" d="M3465.478-1030.992a2.076,2.076,0,0,0-1.6-.821,1.585,1.585,0,0,0-1.606.73,2.626,2.626,0,0,0,1.747.416c.382-.047.729-.38,1.462-.325" transform="translate(-1046.655 -928.1)" fill="#141414"/>
      <path id="Tracé_1010" data-name="Tracé 1010" d="M2850.144-1727.73l-.252.125,3.124,6.405c.084-.042.166-.087.25-.127s.171-.077.256-.116l-3.126-6.409Z" transform="translate(-467.74 -270.107)" fill="#141414"/>
      <path id="Tracé_1011" data-name="Tracé 1011" d="M2809.854-1817.167l3.155.412a42.947,42.947,0,0,1-5.23-4.667,42.988,42.988,0,0,1,.458,7Z" transform="translate(-427.928 -181.65)" fill="#141414"/>
      <path id="Tracé_1012" data-name="Tracé 1012" d="M3191.112-1029.405c-.083.043-.166.086-.25.128s-.167.085-.252.125l5.373,11.015.252-.123.252-.123Z" transform="translate(-789.841 -930.388)" fill="#141414"/>
      <path id="Tracé_1013" data-name="Tracé 1013" d="M3207.894-930.176a1.585,1.585,0,0,0-1.048,1.419,2.074,2.074,0,0,0,.47,1.739c.1-.729.5-1,.621-1.363a2.623,2.623,0,0,0-.043-1.8" transform="translate(-805.171 -1024.195)" fill="#141414"/>
      <path id="Tracé_1014" data-name="Tracé 1014" d="M3225.9-893.258a1.586,1.586,0,0,0-1.048,1.419,2.075,2.075,0,0,0,.47,1.738c.1-.729.5-1,.622-1.363a2.622,2.622,0,0,0-.043-1.795" transform="translate(-822.19 -1059.096)" fill="#141414"/>
      <path id="Tracé_1015" data-name="Tracé 1015" d="M3242.857-854.926a2.074,2.074,0,0,0,.47,1.738c.1-.729.5-1,.622-1.362a2.627,2.627,0,0,0-.043-1.8,1.587,1.587,0,0,0-1.048,1.419" transform="translate(-839.214 -1093.992)" fill="#141414"/>
      <path id="Tracé_1016" data-name="Tracé 1016" d="M3253.868-946.857a1.586,1.586,0,0,0-1.763-.048,2.624,2.624,0,0,0,1.388,1.139c.364.125.822-.022,1.457.349a2.074,2.074,0,0,0-1.081-1.44" transform="translate(-847.975 -1008.153)" fill="#141414"/>
      <path id="Tracé_1017" data-name="Tracé 1017" d="M3272.95-908.5a2.075,2.075,0,0,0-1.081-1.44,1.585,1.585,0,0,0-1.764-.048,2.625,2.625,0,0,0,1.388,1.139c.364.125.822-.022,1.457.349" transform="translate(-864.992 -1043.05)" fill="#141414"/>
      <path id="Tracé_1018" data-name="Tracé 1018" d="M3289.876-873.025a1.586,1.586,0,0,0-1.764-.048,2.626,2.626,0,0,0,1.388,1.139c.364.125.822-.022,1.457.349a2.077,2.077,0,0,0-1.081-1.44" transform="translate(-882.014 -1077.951)" fill="#141414"/>
      <path id="Tracé_1019" data-name="Tracé 1019" d="M3006.037-1877.732a42.972,42.972,0,0,1-2.655,6.488l2.655-1.753,2.654,1.753a43,43,0,0,1-2.654-6.488" transform="translate(-612.843 -128.418)" fill="#141414"/>
      <path id="Tracé_1020" data-name="Tracé 1020" d="M3046.821-1771.139v7.159c.086,0,.172-.006.259-.006h.022c.094,0,.187.006.281.007v-7.161h-.562Z" transform="translate(-653.909 -229.184)" fill="#141414"/>
      <path id="Tracé_1021" data-name="Tracé 1021" d="M3047.082-993.534c-.087,0-.173-.005-.259-.006V-981.3h.562v-12.238c-.094,0-.187.007-.281.007h-.022" transform="translate(-653.91 -964.292)" fill="#141414"/>
      <path id="Tracé_1022" data-name="Tracé 1022" d="M3002.45-892.138a2.625,2.625,0,0,0,.749-1.632,1.585,1.585,0,0,0-1.564.816,2.075,2.075,0,0,0-.34,1.768c.408-.612.884-.68,1.156-.952" transform="translate(-610.795 -1058.579)" fill="#141414"/>
      <path id="Tracé_1023" data-name="Tracé 1023" d="M3001.292-850.112c.408-.612.884-.68,1.156-.952a2.623,2.623,0,0,0,.749-1.632,1.586,1.586,0,0,0-1.564.816,2.075,2.075,0,0,0-.34,1.769" transform="translate(-610.793 -1097.408)" fill="#141414"/>
      <path id="Tracé_1024" data-name="Tracé 1024" d="M3001.292-809.037c.408-.612.884-.68,1.156-.952a2.622,2.622,0,0,0,.749-1.632,1.586,1.586,0,0,0-1.564.816,2.075,2.075,0,0,0-.34,1.768" transform="translate(-610.793 -1136.24)" fill="#141414"/>
      <path id="Tracé_1025" data-name="Tracé 1025" d="M3066.133-893.786a2.624,2.624,0,0,0,.748,1.632c.272.272.748.34,1.156.952a2.074,2.074,0,0,0-.34-1.768,1.586,1.586,0,0,0-1.564-.816" transform="translate(-672.165 -1058.565)" fill="#141414"/>
      <path id="Tracé_1026" data-name="Tracé 1026" d="M3066.133-852.714a2.624,2.624,0,0,0,.748,1.632c.272.272.748.34,1.156.952a2.073,2.073,0,0,0-.34-1.768,1.586,1.586,0,0,0-1.564-.816" transform="translate(-672.165 -1097.393)" fill="#141414"/>
      <path id="Tracé_1027" data-name="Tracé 1027" d="M3066.133-811.64a2.624,2.624,0,0,0,.748,1.632c.272.272.748.34,1.156.952a2.074,2.074,0,0,0-.34-1.768,1.586,1.586,0,0,0-1.564-.816" transform="translate(-672.165 -1136.222)" fill="#141414"/>
      <path id="Tracé_1028" data-name="Tracé 1028" d="M3205.172-1814.3a43.017,43.017,0,0,1,.458-7,42.931,42.931,0,0,1-5.23,4.668l3.155-.412Z" transform="translate(-799.095 -181.773)" fill="#141414"/>
      <path id="Tracé_1029" data-name="Tracé 1029" d="M2811.344-1028.927c-.084-.041-.167-.085-.25-.128l-5.37,11.01.252.124.252.123,5.368-11.006c-.085-.04-.169-.082-.252-.123" transform="translate(-425.986 -930.719)" fill="#141414"/>
      <path id="Tracé_1030" data-name="Tracé 1030" d="M3187.978-1721.056l3.13-6.417-.252-.124-.253-.122-3.13,6.418c.085.04.171.076.256.117s.166.086.25.128" transform="translate(-786.874 -270.233)" fill="#141414"/>
      <path id="Tracé_1031" data-name="Tracé 1031" d="M2800.541-946.845a2.075,2.075,0,0,0-1.081,1.44c.635-.371,1.093-.224,1.457-.349a2.625,2.625,0,0,0,1.388-1.139,1.585,1.585,0,0,0-1.764.048" transform="translate(-420.064 -1008.165)" fill="#141414"/>
      <path id="Tracé_1032" data-name="Tracé 1032" d="M2784.3-909.977a1.584,1.584,0,0,0-1.764.048,2.073,2.073,0,0,0-1.081,1.44c.635-.372,1.093-.224,1.457-.349a2.624,2.624,0,0,0,1.388-1.139" transform="translate(-403.043 -1043.063)" fill="#141414"/>
      <path id="Tracé_1033" data-name="Tracé 1033" d="M2763.448-871.571c.635-.371,1.093-.224,1.457-.349a2.624,2.624,0,0,0,1.388-1.139,1.586,1.586,0,0,0-1.764.048,2.075,2.075,0,0,0-1.081,1.44" transform="translate(-386.02 -1077.964)" fill="#141414"/>
      <path id="Tracé_1034" data-name="Tracé 1034" d="M2875.163-928.775a1.586,1.586,0,0,0-1.048-1.419,2.626,2.626,0,0,0-.043,1.8c.125.364.523.634.622,1.363a2.074,2.074,0,0,0,.47-1.739" transform="translate(-490.468 -1024.178)" fill="#141414"/>
      <path id="Tracé_1035" data-name="Tracé 1035" d="M2856.11-893.273a2.627,2.627,0,0,0-.043,1.8c.125.364.523.633.622,1.363a2.075,2.075,0,0,0,.47-1.738,1.586,1.586,0,0,0-1.048-1.419" transform="translate(-473.447 -1059.082)" fill="#141414"/>
      <path id="Tracé_1036" data-name="Tracé 1036" d="M2839.153-854.941a1.586,1.586,0,0,0-1.048-1.419,2.627,2.627,0,0,0-.043,1.8c.125.363.523.633.622,1.362a2.074,2.074,0,0,0,.47-1.738" transform="translate(-456.425 -1093.978)" fill="#141414"/>
      <path id="Tracé_1037" data-name="Tracé 1037" d="M3307.2-1601.731l-.174-.22-5.585,4.363c.06.073.115.147.174.221s.116.147.173.221l5.583-4.362Z" transform="translate(-894.617 -389.128)" fill="#141414"/>
      <path id="Tracé_1038" data-name="Tracé 1038" d="M3367.349-1661.635l3.016,1.012.252,3.172a42.983,42.983,0,0,1,3.479-6.086,42.94,42.94,0,0,1-6.747,1.9" transform="translate(-956.922 -330.908)" fill="#141414"/>
      <path id="Tracé_1039" data-name="Tracé 1039" d="M2624.306-1123.787c-.057-.074-.116-.147-.172-.222l-9.7,7.577.173.221.173.222,9.7-7.576c-.058-.073-.117-.146-.174-.221" transform="translate(-245.152 -840.954)" fill="#141414"/>
      <path id="Tracé_1040" data-name="Tracé 1040" d="M2650.566-1081.643a1.585,1.585,0,0,0-1.606-.73,2.074,2.074,0,0,0-1.6.82c.733-.055,1.08.278,1.462.325a2.627,2.627,0,0,0,1.747-.415" transform="translate(-276.273 -880.302)" fill="#141414"/>
      <path id="Tracé_1041" data-name="Tracé 1041" d="M2616.453-1055.942a2.624,2.624,0,0,0,1.747-.415,1.586,1.586,0,0,0-1.606-.73,2.073,2.073,0,0,0-1.6.821c.733-.055,1.08.278,1.462.325" transform="translate(-245.676 -904.206)" fill="#141414"/>
      <path id="Tracé_1042" data-name="Tracé 1042" d="M2585.833-1031.069a1.585,1.585,0,0,0-1.606-.73,2.074,2.074,0,0,0-1.6.821c.733-.055,1.08.278,1.462.325a2.627,2.627,0,0,0,1.747-.415" transform="translate(-215.077 -928.113)" fill="#141414"/>
      <path id="Tracé_1043" data-name="Tracé 1043" d="M2708.771-1046.233a2.627,2.627,0,0,0-.826,1.594,4.16,4.16,0,0,1-.039,1.5,2.074,2.074,0,0,0,1.185-1.356,1.586,1.586,0,0,0-.32-1.735" transform="translate(-333.514 -914.48)" fill="#141414"/>
      <path id="Tracé_1044" data-name="Tracé 1044" d="M2676.406-1020.947a2.627,2.627,0,0,0-.826,1.594,4.166,4.166,0,0,1-.039,1.5,2.075,2.075,0,0,0,1.185-1.357,1.586,1.586,0,0,0-.32-1.735" transform="translate(-302.918 -938.384)" fill="#141414"/>
      <path id="Tracé_1045" data-name="Tracé 1045" d="M2644.046-995.658a2.625,2.625,0,0,0-.826,1.594,4.176,4.176,0,0,1-.038,1.5,2.075,2.075,0,0,0,1.184-1.357,1.586,1.586,0,0,0-.32-1.735" transform="translate(-272.326 -962.291)" fill="#141414"/>
      <path id="Tracé_1046" data-name="Tracé 1046" d="M2881.407-1530.353a5.308,5.308,0,0,0,.777-.06c.124-.019.247-.042.37-.068s.234-.052.349-.084a6.46,6.46,0,0,0,2.117-1.013l-.1-.291a4.16,4.16,0,0,1-1.968.516,6.761,6.761,0,0,1-1.2-.109,6.565,6.565,0,0,1-.65-.152,6.751,6.751,0,0,1-.846-.3,8.272,8.272,0,0,1-3.062-2.393c-.081-.1-.161-.2-.239-.3l-.463-.6-.677-.886-3.892-5.089c3.718-1.171,6.718-2.979,7.241-5.811.024-.131.041-.264.054-.4s.02-.248.023-.375c0-.042,0-.083,0-.125,0-1.814-1.313-3.215-3.158-4.073q-.127-.059-.257-.115t-.26-.107a11.235,11.235,0,0,0-4.033-.737q-.6,0-1.2.036c-.094.005-.187.013-.281.02s-.188.013-.281.021a16.521,16.521,0,0,0-4.979,1.184c-.086.037-.174.072-.259.111s-.169.08-.254.12a8.619,8.619,0,0,0-3.841,3.325c-.048.082-.1.163-.14.247s-.085.171-.126.258a6.723,6.723,0,0,0-.635,2.9,5.7,5.7,0,0,0,1.613,3.967l2.387-.774a4.976,4.976,0,0,1-1.871-4.29c0-.21.013-.414.032-.614q.016-.166.04-.325c.016-.106.033-.211.055-.314a5.909,5.909,0,0,1,2.767-3.808c.079-.051.159-.1.24-.148s.162-.093.245-.138a11.523,11.523,0,0,1,4.726-1.268c.093-.006.187-.01.281-.014s.187-.008.281-.01c.111,0,.221,0,.332,0a7.352,7.352,0,0,1,4.407,1.272c.078.057.153.117.226.178s.148.127.219.194a4.519,4.519,0,0,1,1.405,3.388,5.308,5.308,0,0,1-.249,1.647,4.685,4.685,0,0,1-.2.513,4.776,4.776,0,0,1-.35.63,7.3,7.3,0,0,1-3.163,2.471q-.466.214-.972.4c-.127.048-.256.094-.386.141l-.442.149-.239.081-.375.127-.212.072-.162.055-.119.04-.084.028-.2.067-.072.024-.078.027-.118.04.268.357.07.093.009.012.059.078.11.147.012.016.022.03.11.146.024.033.033.044.114.152.215.288.513.686,3.119,4.174c2,2.677,4.064,4.29,7.225,4.29" transform="translate(-476.86 -435.47)" fill="#141414"/>
      <path id="Tracé_1047" data-name="Tracé 1047" d="M2832.609-1194.619a3.292,3.292,0,0,1-2.226.839c-.251,0-.515-.017-.783-.043-.094-.009-.186-.017-.281-.028s-.187-.025-.281-.039c-.98-.139-2.037-.393-3.091-.644l-.28-.066-.281-.066a16.869,16.869,0,0,0-3.615-.565,7.762,7.762,0,0,0-.826.045q-.285.03-.561.082h0q-.332.062-.653.154a7.7,7.7,0,0,0-3.281,1.977l.161.226a9.7,9.7,0,0,1,.875-.449,5.111,5.111,0,0,1,.831-.293,4.245,4.245,0,0,1,.589-.1,4.283,4.283,0,0,1,.447-.025,24.837,24.837,0,0,1,5.092.885l.281.064.282.062a14.279,14.279,0,0,0,2.925.407,7.326,7.326,0,0,0,1.106-.081q.142-.021.281-.049c.095-.019.188-.041.281-.064a6.207,6.207,0,0,0,3.165-1.992l.038-.04-.112-.112Z" transform="translate(-436.125 -773.623)" fill="#141414"/>
      <path id="Tracé_1048" data-name="Tracé 1048" d="M2880.87-1503.083h0a7.308,7.308,0,0,0,2.313-1.807,8.81,8.81,0,0,0,.648-.863,13.078,13.078,0,0,0,1.051-1.955,23.707,23.707,0,0,0,.826-2.253l.092-.285.09-.286q.15-.475.3-.952c.041-.129.083-.257.124-.385s.084-.255.126-.382a16.67,16.67,0,0,1,1.191-2.829c.07-.125.142-.249.217-.37l.064-.1q.144-.232.281-.447a7.068,7.068,0,0,1,3.2-3.127l-.064-.322a6.992,6.992,0,0,0-3.138,1.22q-.142.1-.281.211c-.095.075-.188.152-.281.233a10.464,10.464,0,0,0-1.138,1.173,11.427,11.427,0,0,0-1.295,1.814q-.083.147-.166.3c-.054.1-.107.206-.16.313a20.529,20.529,0,0,0-.9,2.158c-.032.09-.066.185-.1.279s-.065.184-.1.28c-.113.327-.229.674-.352,1.048-1.129,3.87-2.483,6.451-5,7.87l.064.323a13.727,13.727,0,0,0,1.355-.418,9.562,9.562,0,0,0,1.02-.44" transform="translate(-494.72 -467.124)" fill="#141414"/>
      <path id="Tracé_1049" data-name="Tracé 1049" d="M2508.38-928.843c-.954.818-.945,1.768.029,2.9l1.437,1.675,2.872-2.464.038-.032-1.437-1.676c-1.2-1.394-2.259-.991-2.94-.406m1.475,3.785-1.048-1.223c-.7-.817-.7-1.506,0-2.106a1.427,1.427,0,0,1,.922-.4h.039a1.668,1.668,0,0,1,1.157.686l1.048,1.222Z" transform="translate(-144.221 -1024.946)" fill="#141414"/>
      <path id="Tracé_1050" data-name="Tracé 1050" d="M2442.062-1030.049c-.767-1.325-1.956-1.78-3.028-1.159a1.869,1.869,0,0,0-.934,1.273,2.812,2.812,0,0,0,.427,1.933,2.47,2.47,0,0,0,2.048,1.423,1.946,1.946,0,0,0,.979-.276c1.072-.621,1.271-1.875.508-3.194m-.822,2.65c-.812.47-1.678.138-2.26-.866a2.144,2.144,0,0,1-.333-1.446,1.385,1.385,0,0,1,.7-.954,1.452,1.452,0,0,1,.73-.207,1.344,1.344,0,0,1,.442.076,2.153,2.153,0,0,1,1.088,1.009c.581,1,.44,1.92-.369,2.388" transform="translate(-78.414 -928.425)" fill="#141414"/>
      <path id="Tracé_1051" data-name="Tracé 1051" d="M2383.484-1152.118l-.193-.565-2.749.94,2.226-2.47-.135-.4-3.269-.585,2.7-.923.048-.016-.195-.569-3.579,1.224-.048.016.22.644,3.47.63-2.357,2.623.235.688,3.579-1.224Z" transform="translate(-21.909 -810.046)" fill="#141414"/>
      <path id="Tracé_1052" data-name="Tracé 1052" d="M2366.608-1261.74l-1.087-.386-.32-2.139.926-.687-.106-.708-3.456,2.632-.023.018.06.4,4.1,1.517Zm-3.24-1.158,1.358-1.01.236,1.578Z" transform="translate(-7.022 -707.043)" fill="#141414"/>
      <path id="Tracé_1053" data-name="Tracé 1053" d="M2359.384-1302.983l-.018-.6-3.782.113-.05,0,.018.6,3.782-.113Z" transform="translate(-0.396 -671.196)" fill="#141414"/>
      <path id="Tracé_1054" data-name="Tracé 1054" d="M2358.989-1421.81l-2.979-.3,3.286-2.724.055-.543-3.814-.386-.06.593,2.974.3-3.264,2.711-.016.013-.055.543,3.814.386Z" transform="translate(0 -555.688)" fill="#141414"/>
      <path id="Tracé_1055" data-name="Tracé 1055" d="M2377.482-1536.58l-.5-.141-.856,3.063-1.135-.317.5-1.775-.5-.141-.5,1.775-1.045-.292.791-2.831-.5-.141-.951,3.406,3.692,1.032Z" transform="translate(-16.694 -450.171)" fill="#141414"/>
      <path id="Tracé_1056" data-name="Tracé 1056" d="M2411.568-1636.035c.784.367,1.221-.376,1.776-1.318l.074-.126c.659-1.126.89-1.407,1.251-1.238a.585.585,0,0,1,.333.6,2.637,2.637,0,0,1-.293,1.019,2.148,2.148,0,0,1-1.469,1.385l-.039.009-.005.561.056-.006c.537-.059,1.306-.4,1.922-1.719a3.476,3.476,0,0,0,.367-1.365,1.085,1.085,0,0,0-.644-1.069c-.854-.4-1.322.407-1.864,1.343l-.1.166c-.633,1.081-.858,1.312-1.147,1.177a.5.5,0,0,1-.259-.544,2.748,2.748,0,0,1,.288-.938c.364-.775.74-1.144,1.3-1.273l.038-.009.014-.564-.058.007c-.709.082-1.3.618-1.759,1.594a3.5,3.5,0,0,0-.363,1.3,1,1,0,0,0,.576,1.011" transform="translate(-52.823 -353.209)" fill="#141414"/>
      <path id="Tracé_1057" data-name="Tracé 1057" d="M2527.7-1814.433c.9-.937.643-1.558.272-1.913a.81.81,0,0,0-1.02-.16.831.831,0,0,0-.238-.928c-.481-.46-1.121-.344-1.756.32l-1.854,1.938,2.77,2.651Zm-3.805-.812,1.442-1.507c.361-.378.716-.452.973-.206a.452.452,0,0,1,.154.366.915.915,0,0,1-.293.537l-1.492,1.559Zm2.655-.448c.377-.394.691-.462.958-.206a.53.53,0,0,1,.177.5,1.251,1.251,0,0,1-.364.606l-1.413,1.476-.852-.815Z" transform="translate(-158.805 -185.159)" fill="#141414"/>
      <path id="Tracé_1058" data-name="Tracé 1058" d="M2631.665-1871.284l-.177-1.14,1.73-1.3,1.046.488.572-.43-3.987-1.8-.323.243.617,4.331Zm1.011-2.688-1.276.959-.258-1.673Z" transform="translate(-260.361 -130.561)" fill="#141414"/>
      <path id="Tracé_1059" data-name="Tracé 1059" d="M2701.935-1940.086l-.778-1.5.915-.474c.514-.266.817,0,1.168.315a1.153,1.153,0,0,0,1.465.33,1.449,1.449,0,0,0,.424-.329l.024-.026-.244-.47-.049.045a1.631,1.631,0,0,1-.326.238c-.332.172-.574-.012-.854-.225a1.761,1.761,0,0,0-.684-.371c.748-.422,1.019-1,.725-1.571-.308-.594-.982-.694-1.8-.269l-2.278,1.181,1.764,3.4Zm-1.523-2.938,1.794-.931a1.138,1.138,0,0,1,.557-.151.458.458,0,0,1,.4.266c.22.425-.192.719-.458.857l-1.794.931Z" transform="translate(-325.7 -65.151)" fill="#141414"/>
      <path id="Tracé_1060" data-name="Tracé 1060" d="M2812.646-1983.214a2.251,2.251,0,0,0,.934.188,3.569,3.569,0,0,0,1.04-.168,2.815,2.815,0,0,0,1.63-1.121,1.859,1.859,0,0,0,.184-1.566,1.866,1.866,0,0,0-1.028-1.2,2.811,2.811,0,0,0-1.979-.021c-1.458.446-2.166,1.5-1.8,2.689a1.867,1.867,0,0,0,1.022,1.2m-.29-2.555a2.123,2.123,0,0,1,1.223-.83,2.753,2.753,0,0,1,.8-.13,1.689,1.689,0,0,1,.683.133,1.383,1.383,0,0,1,.77.9c.273.894-.25,1.662-1.366,2a2.128,2.128,0,0,1-1.478,0,1.381,1.381,0,0,1-.764-.9,1.388,1.388,0,0,1,.131-1.174" transform="translate(-431.474 -24.867)" fill="#141414"/>
      <path id="Tracé_1061" data-name="Tracé 1061" d="M2935.768-2007.988l-.333-2.976,3.354,2.638.543-.06-.426-3.809-.593.066.332,2.971-3.354-2.633-.543.061.426,3.809Z" transform="translate(-547.96 -1.301)" fill="#141414"/>
      <path id="Tracé_1062" data-name="Tracé 1062" d="M3054.374-2010.083a2.647,2.647,0,0,1-1.056.1,2.145,2.145,0,0,1-1.825-.861l-.022-.033-.525.2.026.05a2.527,2.527,0,0,0,2.3,1.159c.1.007.211.011.326.011.772,0,1.776-.188,1.838-1.158.06-.942-.863-1.082-1.931-1.244l-.189-.029c-1.237-.193-1.535-.318-1.514-.637.014-.211.148-.355.412-.44a2.749,2.749,0,0,1,.979-.075,1.923,1.923,0,0,1,1.66.745l.021.032.531-.194-.027-.051a2.378,2.378,0,0,0-2.125-1.054c-1.291-.083-2.026.288-2.074,1.043-.055.864.8,1,1.876,1.171l.145.023c1.289.2,1.635.313,1.609.711a.585.585,0,0,1-.435.529" transform="translate(-657.808 0)" fill="#141414"/>
      <path id="Tracé_1063" data-name="Tracé 1063" d="M3257.786-1969.489a1.657,1.657,0,0,0,.722-.155,1.95,1.95,0,0,0,.926-1.076c.48-1.161.043-2-1.339-2.576l-2.039-.844-1.467,3.542,2.039.844a3.07,3.07,0,0,0,1.158.264m-1.379-3.939,1.488.616a1.712,1.712,0,0,1,1.023.87,1.337,1.337,0,0,1-.07,1.008,1.4,1.4,0,0,1-.678.786,1.666,1.666,0,0,1-1.342-.089l-1.488-.616Z" transform="translate(-850.323 -37.278)" fill="#141414"/>
      <path id="Tracé_1064" data-name="Tracé 1064" d="M3361.24-1916.974l-2.689-1.7.629-1,1.559.983.279-.443-1.559-.983.578-.918,2.487,1.568.279-.443-2.991-1.886-2.045,3.243,3.194,2.014Z" transform="translate(-947.863 -86.768)" fill="#141414"/>
      <path id="Tracé_1065" data-name="Tracé 1065" d="M3504.585-1793.714l.67.783c.377.44.183.8-.041,1.21a1.153,1.153,0,0,0,.012,1.5,1.456,1.456,0,0,0,.417.339l.031.018.4-.344-.055-.037a1.625,1.625,0,0,1-.305-.264c-.244-.284-.119-.562.024-.883a1.761,1.761,0,0,0,.206-.751c.581.633,1.21.765,1.7.349.509-.435.453-1.114-.147-1.816l-1.668-1.95-2.913,2.492.388.453Zm1.23-1.052,1.314,1.537c.195.227.467.655.107.962s-.744-.023-.938-.251l-1.314-1.537Z" transform="translate(-1085.077 -206.099)" fill="#141414"/>
      <path id="Tracé_1066" data-name="Tracé 1066" d="M3580.592-1692.33a2.8,2.8,0,0,0,.433,1.927,2.485,2.485,0,0,0,2.055,1.427,1.929,1.929,0,0,0,.976-.276,1.866,1.866,0,0,0,.931-1.276,2.809,2.809,0,0,0-.433-1.932,2.791,2.791,0,0,0-1.465-1.324,1.874,1.874,0,0,0-1.566.185,1.867,1.867,0,0,0-.931,1.269m1.248-.727a1.473,1.473,0,0,1,.744-.213,1.326,1.326,0,0,1,.429.072,2.123,2.123,0,0,1,1.088,1c.588,1.009.449,1.929-.362,2.4s-1.676.136-2.263-.872-.445-1.918.363-2.389" transform="translate(-1158.477 -302.225)" fill="#141414"/>
      <path id="Tracé_1067" data-name="Tracé 1067" d="M3633.44-1596.177l.211.558,3.1-1.174.635,1.674.49-.186-1.466-3.864-.018-.047-.49.186.637,1.679Z" transform="translate(-1208.472 -391.715)" fill="#141414"/>
      <path id="Tracé_1068" data-name="Tracé 1068" d="M3656.589-1488.522l1.669-.329.577,2.923-1.669.329.116.59,3.76-.742-.116-.59-1.577.311-.577-2.922,1.578-.311-.116-.585-3.76.742Z" transform="translate(-1230.247 -495.105)" fill="#141414"/>
      <path id="Tracé_1069" data-name="Tracé 1069" d="M3676.412-1366.707l-.031.025.237.513.049-.031a2.379,2.379,0,0,0,.875-2.205c-.024-1.278-.446-1.98-1.188-1.98h-.023c-.865.016-.93.877-1.012,1.966l-.011.146c-.095,1.3-.177,1.654-.576,1.662h-.013c-.586,0-.725-.778-.737-1.434a2.145,2.145,0,0,1,.707-1.89l.031-.025-.243-.506-.047.031a2.527,2.527,0,0,0-.966,2.39c.015.773.2,2.062,1.3,2.062h.026c.943-.018,1.007-.949,1.081-2.026l.014-.191c.091-1.249.19-1.556.51-1.562h.01c.207,0,.357.122.463.374a2.738,2.738,0,0,1,.155.969,1.922,1.922,0,0,1-.605,1.716" transform="translate(-1246.308 -607.963)" fill="#141414"/>
      <path id="Tracé_1070" data-name="Tracé 1070" d="M3667.2-1257.527a1.868,1.868,0,0,0-1.522.4,2.786,2.786,0,0,0-.875,1.762,2.731,2.731,0,0,0,.567,2.349l.034.043.411-.39-.024-.035a2.257,2.257,0,0,1-.474-1.871,2.153,2.153,0,0,1,.65-1.343,1.382,1.382,0,0,1,1.143-.3,1.389,1.389,0,0,1,1,.618,2.1,2.1,0,0,1,.218,1.457,2.4,2.4,0,0,1-.916,1.628l-.03.027.275.5.077-.058a2.756,2.756,0,0,0,1.107-1.981,2.812,2.812,0,0,0-.3-1.958,1.867,1.867,0,0,0-1.333-.844" transform="translate(-1238.074 -714.708)" fill="#141414"/>
      <path id="Tracé_1071" data-name="Tracé 1071" d="M3630.264-1148.208l1.608.556-.973,2.815-1.608-.556-.2.569,3.622,1.252.2-.569-1.52-.525.973-2.816,1.52.525.195-.564-3.622-1.252Z" transform="translate(-1204.365 -817.544)" fill="#141414"/>
      <rect id="Rectangle_58" data-name="Rectangle 58" width="0.597" height="3.834" transform="translate(2423.528 -1959.929) rotate(-63.311)" fill="#141414"/>
      <path id="Tracé_1072" data-name="Tracé 1072" d="M3554.716-994.409l.438.286,1.519-2.324,2.77,1.811.326-.5-3.208-2.1Z" transform="translate(-1134.05 -960.802)" fill="#141414"/>
      <path id="Tracé_1073" data-name="Tracé 1073" d="M3499.119-923.47l-1.488,1.629c-.684.748-1.247,1.87-.048,2.966a1.821,1.821,0,0,0,1.223.553,2.348,2.348,0,0,0,1.654-.934l1.488-1.628-2.792-2.552Zm.954,3.861a1.71,1.71,0,0,1-1.167.665,1.329,1.329,0,0,1-.923-.408c-.694-.634-.682-1.353.033-2.136l1.086-1.188,2.056,1.88Z" transform="translate(-1079.377 -1030.535)" fill="#141414"/>
      <path id="Tracé_1074" data-name="Tracé 1074" d="M2756.458-745.254l-.569-.238-1.533,3.675,3.234,1.349.208-.5-2.665-1.112Z" transform="translate(-377.425 -1198.788)" fill="#141414"/>
      <path id="Tracé_1075" data-name="Tracé 1075" d="M2850.256-703.976l-.407-.095-3.036,3.381.657.153.791-.9,2.193.512.309,1.159.72.168-1.219-4.347Zm-1.588,2.077,1.166-1.328.458,1.707Z" transform="translate(-464.83 -1237.945)" fill="#141414"/>
      <path id="Tracé_1076" data-name="Tracé 1076" d="M2977.3-685.793l.615.038.1-1.659,1.913.117.033-.539-1.913-.117.075-1.238,3.052.187.033-.54-3.667-.224Z" transform="translate(-588.19 -1251.466)" fill="#141414"/>
      <path id="Tracé_1077" data-name="Tracé 1077" d="M3085.03-688.419l.255,3.974.615-.04-.255-3.974Z" transform="translate(-690.029 -1252.704)" fill="#141414"/>
      <path id="Tracé_1078" data-name="Tracé 1078" d="M3135.961-706.028l-4.265.831.1.53,1.833-.357.659,3.378.6-.118-.659-3.378,1.827-.356Z" transform="translate(-734.145 -1236.095)" fill="#141414"/>
      <path id="Tracé_1079" data-name="Tracé 1079" d="M3244.425-735.592l-.435-1.151,1.793-.678-.191-.506-1.793.678-.4-1.059,2.813-1.064.047-.018-.191-.505-3.389,1.282-.047.018,1.392,3.679.018.047,3.623-1.371.047-.018-.191-.505Z" transform="translate(-839.018 -1204.079)" fill="#141414"/>
    </g>
  </g>
</svg>
