<svg xmlns="http://www.w3.org/2000/svg" width="291" height="132" viewBox="0 0 291 132">
  <g id="Groupe_990" data-name="Groupe 990" transform="translate(-6653 -2936)">
    <rect id="Rectangle_64" data-name="Rectangle 64" width="291" height="132" transform="translate(6653 2936)" fill="#d0d0d0" opacity="0"/>
    <g id="Groupe_989" data-name="Groupe 989" transform="translate(201.274 166.129)">
      <g id="Groupe_987" data-name="Groupe 987" transform="translate(6532 2867.045)">
        <g id="Groupe_132" data-name="Groupe 132">
          <path id="Tracé_328" data-name="Tracé 328" d="M783.889,1794.426a6.312,6.312,0,0,1,6.37-6.624,5.916,5.916,0,0,1,5.949,4.762H793.7a3.469,3.469,0,0,0-3.443-2.445,4.321,4.321,0,0,0,0,8.613,3.549,3.549,0,0,0,3.478-2.408h2.54a5.94,5.94,0,0,1-6.036,4.724A6.276,6.276,0,0,1,783.889,1794.426Z" transform="translate(-783.889 -1787.803)"/>
        </g>
        <g id="Groupe_133" data-name="Groupe 133" transform="translate(21.333 0.237)">
          <path id="Tracé_329" data-name="Tracé 329" d="M794.421,1795.931v-8.011h2.315v7.991c0,1.7.871,2.739,2.506,2.739,1.655,0,2.524-1.041,2.524-2.757v-7.972h2.3v7.991c0,2.994-1.861,5.018-4.821,5.018C796.266,1800.928,794.421,1798.923,794.421,1795.931Z" transform="translate(-794.421 -1787.92)"/>
        </g>
        <g id="Groupe_134" data-name="Groupe 134" transform="translate(39.433 0.237)">
          <path id="Tracé_330" data-name="Tracé 330" d="M803.357,1787.92h2.558l3.113,9.615h.121l3.15-9.615h2.558l-4.558,12.773h-2.439Z" transform="translate(-803.357 -1787.92)"/>
        </g>
        <g id="Groupe_135" data-name="Groupe 135" transform="translate(59.533 0.237)">
          <path id="Tracé_331" data-name="Tracé 331" d="M813.28,1787.92h7.462v2.1h-5.149v3.174h4.4v2.081h-4.4v3.32h5.323v2.1H813.28Z" transform="translate(-813.28 -1787.92)"/>
        </g>
        <g id="Groupe_136" data-name="Groupe 136" transform="translate(76.256 0.237)">
          <path id="Tracé_332" data-name="Tracé 332" d="M821.536,1787.92h2.313v10.62h4.924v2.153h-7.237Z" transform="translate(-821.536 -1787.92)"/>
        </g>
        <g id="Groupe_137" data-name="Groupe 137" transform="translate(92.543 0.237)">
          <path id="Tracé_333" data-name="Tracé 333" d="M829.577,1787.92h2.313v12.773h-2.313Z" transform="translate(-829.577 -1787.92)"/>
        </g>
        <g id="Groupe_138" data-name="Groupe 138" transform="translate(104.567 0.237)">
          <path id="Tracé_334" data-name="Tracé 334" d="M835.513,1787.92h7.466v2.1h-5.151v3.174h4.4v2.081h-4.4v3.32h5.325v2.1h-7.64Z" transform="translate(-835.513 -1787.92)"/>
        </g>
        <g id="Groupe_139" data-name="Groupe 139" transform="translate(121.29 0.237)">
          <path id="Tracé_335" data-name="Tracé 335" d="M843.769,1787.92h4.56a3.937,3.937,0,0,1,4.193,4.069,4.027,4.027,0,0,1-2.281,3.721l2.682,4.983h-2.595l-2.279-4.561h-1.965v4.561h-2.315Zm4.385,6.131a2.026,2.026,0,0,0-.037-4.051h-2.034v4.051Z" transform="translate(-843.769 -1787.92)"/>
        </g>
      </g>
      <g id="Groupe_988" data-name="Groupe 988" transform="translate(6567.518 2791)">
        <path id="Tracé_336" data-name="Tracé 336" d="M829.815,1755.876a21.618,21.618,0,0,1-1.511,6.095l1.868.788a23.242,23.242,0,0,0,1.744-7.96l.01-1.031-1.033.008a23.3,23.3,0,0,0-7.961,1.744l.788,1.867A21.694,21.694,0,0,1,829.815,1755.876Z" transform="translate(-779.154 -1746.664)"/>
        <path id="Tracé_337" data-name="Tracé 337" d="M813.79,1755.519a23.3,23.3,0,0,0-7.96-1.744l-1.033-.008.01,1.031a23.23,23.23,0,0,0,1.744,7.96l1.866-.788a21.707,21.707,0,0,1-1.511-6.095,21.513,21.513,0,0,1,6.1,1.511Z" transform="translate(-797.753 -1746.664)"/>
        <path id="Tracé_338" data-name="Tracé 338" d="M856.284,1786.377l-.261-.619h-.672c-1.424,0-2.86.1-4.266.2l6.453-6.453-5.621-5.619c1.138.075,2.287.139,3.433.139h.672l.261-.62a64.366,64.366,0,0,0,4.857-22.117l.01-1.033-1.033.01A64.323,64.323,0,0,0,838,1755.129l-.62.262v.672c0,1.135.065,2.287.146,3.438l-6.891-6.889L825,1758.249c.037-.733.067-1.469.067-2.186v-.672l-.618-.262a64.26,64.26,0,0,0-22.1-4.859l-1.033-.01.01,1.033a64.614,64.614,0,0,0,4.837,22.115l.261.622h.672c.723,0,1.456-.03,2.186-.067l-5.546,5.546,6.358,6.358c-1-.061-2-.109-3-.109h-.672l-.261.622a64.6,64.6,0,0,0-4.837,22.115l-.01,1.033,1.033-.01a64.237,64.237,0,0,0,22.1-4.861l.618-.261v-.672c0-.993-.049-2-.111-3l5.682,5.681,6.953-6.952c-.105,1.418-.209,2.862-.209,4.266v.672l.62.261a64.3,64.3,0,0,0,22.117,4.861l1.033.01-.01-1.033A64.354,64.354,0,0,0,856.284,1786.377ZM839.7,1761.469c-.128-1.566-.257-3.178-.287-4.734a64.512,64.512,0,0,1,19.656-4.4,64.56,64.56,0,0,1-4.4,19.66c-1.38-.026-2.789-.132-4.161-.233l-.78-.057-10.014-10.014ZM807.774,1772a64.777,64.777,0,0,1-4.377-19.66,64.412,64.412,0,0,1,19.636,4.4c-.022,1.183-.105,2.42-.194,3.674L811.447,1771.8C810.225,1771.889,808.986,1771.974,807.774,1772Zm15.014,26.766c.107,1.416.219,2.874.245,4.286a64.423,64.423,0,0,1-19.636,4.4,64.777,64.777,0,0,1,4.377-19.658c1.458.031,2.949.142,4.4.253l.109.008,10.49,10.492ZM806.6,1779.509l24.033-24.033,24.037,24.033-24.037,24.035Zm32.812,23.541c.028-1.3.132-2.649.231-3.962.045-.605.089-1.214.13-1.817l9.121-9.121q.86-.057,1.728-.125c1.335-.1,2.708-.2,4.053-.233a64.506,64.506,0,0,1,4.393,19.656A64.535,64.535,0,0,1,839.416,1803.05Z" transform="translate(-801.319 -1750.26)"/>
        <path id="Tracé_339" data-name="Tracé 339" d="M830.171,1771.62l-1.868.788a21.607,21.607,0,0,1,1.511,6.1,21.759,21.759,0,0,1-6.095-1.511l-.788,1.868a23.261,23.261,0,0,0,7.961,1.742l1.033.01-.01-1.033A23.248,23.248,0,0,0,830.171,1771.62Z" transform="translate(-779.154 -1728.354)"/>
        <path id="Tracé_340" data-name="Tracé 340" d="M806.9,1778.5a21.594,21.594,0,0,1,1.513-6.1l-1.866-.788a23.236,23.236,0,0,0-1.744,7.96l-.01,1.033,1.033-.01a23.262,23.262,0,0,0,7.96-1.742l-.788-1.868A21.69,21.69,0,0,1,806.9,1778.5Z" transform="translate(-797.753 -1728.354)"/>
        <path id="Tracé_341" data-name="Tracé 341" d="M824.247,1756.457l-16.7,16.7,16.7,16.7,16.7-16.7Zm-13.833,16.7,13.833-13.833,13.834,13.833-13.834,13.834Z" transform="translate(-794.929 -1743.905)"/>
        <path id="Tracé_342" data-name="Tracé 342" d="M821.173,1768.667a2.809,2.809,0,0,1-2.757,1.821,3.256,3.256,0,0,1,0-6.508,2.74,2.74,0,0,1,2.728,1.849h1.987a4.645,4.645,0,0,0-4.715-3.6,5,5,0,1,0-.014,10.009,4.669,4.669,0,0,0,4.784-3.571Z" transform="translate(-788.959 -1737.984)"/>
      </g>
    </g>
  </g>
</svg>
