<svg xmlns="http://www.w3.org/2000/svg" width="291" height="132" viewBox="0 0 291 132">
  <g id="Groupe_176" data-name="Groupe 176" transform="translate(3210 -9148)">
    <rect id="Rectangle_62" data-name="Rectangle 62" width="291" height="132" transform="translate(-3210 9148)" fill="rgba(255,255,255,0)"/>
    <g id="Groupe_147" transform="translate(-3200.1 9145.625)">
      <path id="Tracé_791" d="M51.3,90.9c0-2.1-.7-3.5-2-3.9a7.719,7.719,0,0,0-1.5-.2H46.3v6.7a2.953,2.953,0,0,0,.2,1.3,1.247,1.247,0,0,0,1.2.3,3.317,3.317,0,0,0,2.6-1.3,3.833,3.833,0,0,0,1-2.9m1.5-.5a5.051,5.051,0,0,1-1.5,3.9,5.785,5.785,0,0,1-3.9,1.5H44.1v-.2a.969.969,0,0,0,.8-.7,2.959,2.959,0,0,0,.2-1V88.1a1.8,1.8,0,0,0-.2-1,1.02,1.02,0,0,0-.8-.5v-.2c.7,0,1.8.2,3.3.2a4.145,4.145,0,0,1,1.6.2,6.008,6.008,0,0,1,2.8,1.3,2.481,2.481,0,0,1,1,2.3" fill="#141414"/>
      <path id="Tracé_792" d="M62.5,91.3a5.547,5.547,0,0,0-.7-2.8A2.592,2.592,0,0,0,58.7,87h-.2a1.721,1.721,0,0,0-1.3,1.3,3.858,3.858,0,0,0-.5,2.8,8.676,8.676,0,0,0,.5,2.8,2.554,2.554,0,0,0,2.5,1.5A2.841,2.841,0,0,0,62,93.9c.2-.8.3-1.7.5-2.6m1.5-.4a5.782,5.782,0,0,1-1.2,3.6A4.107,4.107,0,0,1,59.3,96a3.585,3.585,0,0,1-3.1-1.3,5.345,5.345,0,0,1-1-3.5,5.5,5.5,0,0,1,1.2-3.5,3.851,3.851,0,0,1,3.3-1.5,3.585,3.585,0,0,1,3.1,1.3A5.642,5.642,0,0,1,64,90.9" fill="#141414"/>
      <path id="Tracé_793" d="M77.3,95.9a4.145,4.145,0,0,1-1.6-.2,2.954,2.954,0,0,0-1.3.2v-.2a.908.908,0,0,0,.7-.3,2.354,2.354,0,0,0,.2-.8,16.154,16.154,0,0,0-.2-3.1V88.4C74.4,90,73.3,92.7,72,96h-.2l-3.3-7.6v6.1a1.8,1.8,0,0,0,.2,1,2.177,2.177,0,0,0,.8.5h0a2.954,2.954,0,0,1-1.3-.2,2.954,2.954,0,0,0-1.3.2v-.2c.5,0,.7-.3.8-.8a5.853,5.853,0,0,0,.2-1.3c0-2.1.1-4.3.3-6.4,0-.3-.3-.5-1-.7v-.3h2.3l3,7.2,3.1-7.2h2v.3a1.166,1.166,0,0,0-1,1,16.154,16.154,0,0,0,.2,3.1c.1,1,.2,2.1.2,3.1a2.954,2.954,0,0,0,.2,1.3.993.993,0,0,0,1,.7Z" fill="#141414"/>
      <path id="Tracé_794" d="M84.7,92.1l-1.3-3.8-1.3,3.8ZM88,95.9H85v-.2c.5-.2.5-.2.5-.5a11.152,11.152,0,0,1-.3-1.3,10.414,10.414,0,0,0-.5-1.2H81.6a2.078,2.078,0,0,1-.5,1.2,6.107,6.107,0,0,0-.3,1.3c0,.2.2.3.5.5v.2H78.8v-.2a.908.908,0,0,0,.7-.3l.3-.7,3.1-8.6h.8l3.1,8.5.3.7a.908.908,0,0,0,.7.3v.2Z" fill="#141414"/>
      <path id="Tracé_795" d="M93.3,95.9a4.145,4.145,0,0,1-1.6-.2,4.145,4.145,0,0,0-1.6.2v-.2c.2-.1.3-.1.5-.2.2-.2.3-.2.3-.5V87.1c0-.2-.2-.3-.3-.5-.2,0-.2-.2-.5-.2v-.2c.7,0,1.3.2,1.6.2a4.145,4.145,0,0,0,1.6-.2v.2c-.5.2-1,.3-1,.7V95c0,.2.3.5,1,.7Z" fill="#141414"/>
      <path id="Tracé_796" d="M104.4,86.5c-.7.2-1,.7-1,2v7.4l-.3.2-5.8-7.4v5.4c0,1,.3,1.6,1,1.6v.2c-.5,0-1-.2-1.3-.2a2.954,2.954,0,0,0-1.3.2v-.2c.7-.2,1-.7,1-2V88.3a2.748,2.748,0,0,0-1-1.6v-.2h1.8l5.4,6.9V88.5c0-1-.3-1.6-1-1.6v-.2h1.3l1.2-.2Z" fill="#141414"/>
      <path id="Tracé_797" d="M113.6,93.6c-.2.5-.2,1.3-.5,2.3H107v-.2c.2,0,.3-.2.5-.2s.3-.2.3-.5V87.3c0-.2-.2-.3-.3-.5a.764.764,0,0,0-.5-.2v-.2c1,.1,2,.2,3,.2a16.154,16.154,0,0,0,3.1-.2c0,.8.2,1.5.2,2.3H113a2.043,2.043,0,0,0-2-1.6h-1.8v3.6h1.6c.2,0,.5-.2.5-.3a1.445,1.445,0,0,0,.2-.7h.3v2.8h-.3c-.2-.7-.5-1-.8-1H109v3.9a.215.215,0,0,0,.2.2h1.3a4.012,4.012,0,0,0,1.5-.3,3.528,3.528,0,0,0,.8-1.3h.3Z" fill="#141414"/>
      <path id="Tracé_798" d="M126.1,93.2a2.334,2.334,0,0,1-1,2,2.828,2.828,0,0,1-2.1.7,7.418,7.418,0,0,1-2.5-.5,17.853,17.853,0,0,0,.2-2.3h.5c.3,1.3,1,2,2,2a1.9,1.9,0,0,0,1.3-.5,1.656,1.656,0,0,0,.5-1.2,2.748,2.748,0,0,0-1-1.6l-2-1.5a2.61,2.61,0,0,1-1-2,2.234,2.234,0,0,1,1-1.8,3.722,3.722,0,0,1,2-.7,4.552,4.552,0,0,1,2,.5,14.919,14.919,0,0,0-.2,2.1h-.3c-.2-1.3-.8-2-1.6-2a2.663,2.663,0,0,0-1.2.3,1.231,1.231,0,0,0-.5,1,2.748,2.748,0,0,0,1,1.6l2,1.3a16.145,16.145,0,0,1,.9,2.6" fill="#141414"/>
      <path id="Tracé_799" d="M135,93.6c-.2.5-.2,1.3-.5,2.3h-6.1v-.2c.2,0,.3-.2.5-.2s.3-.2.3-.5V87.3c0-.2-.2-.3-.3-.5a.764.764,0,0,0-.5-.2v-.2c1,.1,2,.2,3,.2a16.154,16.154,0,0,0,3.1-.2c0,.8.2,1.5.2,2.3h-.3a2.043,2.043,0,0,0-2-1.6h-1.8v3.6h1.6c.2,0,.5-.2.5-.3a1.445,1.445,0,0,0,.2-.7h.3v2.8h-.3c-.2-.7-.5-1-.8-1h-1.6v3.9a.215.215,0,0,0,.2.2H132a4.012,4.012,0,0,0,1.5-.3,3.528,3.528,0,0,0,.8-1.3h.3Z" fill="#141414"/>
      <path id="Tracé_800" d="M146.4,91.6c-.3,0-.5.2-.7.5a2.958,2.958,0,0,0-.2,1v2a9.246,9.246,0,0,1-3.6,1,4.189,4.189,0,0,1-3.5-1.3,5.5,5.5,0,0,1-1.2-3.5,6.456,6.456,0,0,1,1.3-3.8,5.075,5.075,0,0,1,3.6-1.5l3,.5a19.48,19.48,0,0,0-.2,2.5h-.3a4,4,0,0,0-1-1.8,3.743,3.743,0,0,0-1.8-.5,2.946,2.946,0,0,0-2.5,1.5,5.14,5.14,0,0,0-.7,3,6.41,6.41,0,0,0,.8,3,2.99,2.99,0,0,0,2.5,1.3,2.606,2.606,0,0,0,2-.7V93.2a1.8,1.8,0,0,0-.2-1,3.81,3.81,0,0,0-1-.3v-.3h3.7Z" fill="#141414"/>
      <path id="Tracé_801" d="M155.7,91.3a5.547,5.547,0,0,0-.7-2.8,2.592,2.592,0,0,0-3.1-1.5h-.2a1.721,1.721,0,0,0-1.3,1.3,3.858,3.858,0,0,0-.5,2.8,8.675,8.675,0,0,0,.5,2.8,2.554,2.554,0,0,0,2.5,1.5,2.841,2.841,0,0,0,2.3-1.5,5.753,5.753,0,0,0,.5-2.6m1.5-.4a5.782,5.782,0,0,1-1.2,3.6,4.107,4.107,0,0,1-3.5,1.5,3.585,3.585,0,0,1-3.1-1.3,5.345,5.345,0,0,1-1-3.5,5.5,5.5,0,0,1,1.2-3.5,4.321,4.321,0,0,1,6.2-.3h0c.2,0,.2.2.3.3a4.477,4.477,0,0,1,1.1,3.2" fill="#141414"/>
      <path id="Tracé_802" d="M168.4,86.5c-.7.2-1,.7-1,2v7.4l-.3.2-5.8-7.4V90c0,.5,0,2,.2,4.1,0,1,.3,1.6,1,1.6v.2c-.5,0-1-.2-1.3-.2a2.954,2.954,0,0,0-1.3.2v-.2c.7-.2,1-.7,1-2V88.3a2.748,2.748,0,0,0-1-1.6v-.2h1.8l5.4,6.9a40.155,40.155,0,0,0-.2-4.9c0-1-.3-1.6-1-1.6v-.2h1.3l1.2-.2Z" fill="#141414"/>
      <path id="Tracé_803" d="M178.1,90.9c0-2.1-.7-3.5-2-3.9a7.719,7.719,0,0,0-1.5-.2h-1.5v6.7a2.954,2.954,0,0,0,.2,1.3,1.247,1.247,0,0,0,1.2.3,3.317,3.317,0,0,0,2.6-1.3,4.839,4.839,0,0,0,1-2.9m1.5-.5a5.038,5.038,0,0,1-4.6,5.4h-4.1v-.2a.969.969,0,0,0,.8-.7,2.958,2.958,0,0,0,.2-1V88.1a1.8,1.8,0,0,0-.2-1,1.02,1.02,0,0,0-.8-.5v-.2c.7,0,1.8.2,3.3.2a4.145,4.145,0,0,1,1.6.2,6.008,6.008,0,0,1,2.8,1.3,3.194,3.194,0,0,1,1,2.3" fill="#141414"/>
      <path id="Tracé_804" d="M185.2,95.9a4.145,4.145,0,0,1-1.6-.2,4.145,4.145,0,0,0-1.6.2v-.2c.2-.1.3-.1.5-.2.2-.2.3-.2.3-.5V87.1c0-.2-.2-.3-.3-.5-.2,0-.2-.2-.5-.2v-.2c.7,0,1.3.2,1.6.2a4.145,4.145,0,0,0,1.6-.2v.2c-.5.2-1,.3-1,.7V95c0,.2.3.5,1,.7Z" fill="#141414"/>
      <path id="Tracé_805" d="M196.5,91.6c-.3,0-.5.2-.7.5a2.958,2.958,0,0,0-.2,1v2a9.246,9.246,0,0,1-3.6,1,4.189,4.189,0,0,1-3.5-1.3,5.5,5.5,0,0,1-1.2-3.5,6.456,6.456,0,0,1,1.3-3.8,5.075,5.075,0,0,1,3.6-1.5l3,.5A19.48,19.48,0,0,0,195,89h-.3a4,4,0,0,0-1-1.8,3.743,3.743,0,0,0-1.8-.5,2.946,2.946,0,0,0-2.5,1.5,5.14,5.14,0,0,0-.7,3,6.41,6.41,0,0,0,.8,3,2.99,2.99,0,0,0,2.5,1.3,2.606,2.606,0,0,0,2-.7V93.2a1.8,1.8,0,0,0-.2-1,3.81,3.81,0,0,0-1-.3v-.3h3.7Z" fill="#141414"/>
      <path id="Tracé_806" d="M207.3,86.5c-.7.2-1,.7-1,2v7.4l-.3.1-5.8-7.4v1.3c0,.5,0,2,.2,4.1,0,1,.3,1.6,1,1.6v.2c-.5,0-1-.2-1.3-.2a2.954,2.954,0,0,0-1.3.2v-.2c.7-.2,1-.7,1-2V88.2a2.748,2.748,0,0,0-1-1.6v-.2h1.8l5.4,6.9a40.155,40.155,0,0,0-.2-4.9c0-1-.3-1.6-1-1.6v-.2h1.3l1.2-.1Z" fill="#141414"/>
      <path id="Tracé_807" d="M214.9,92.1l-1.3-3.8-1.3,3.8Zm3.3,3.8h-3v-.2c.5-.2.5-.2.5-.5a11.152,11.152,0,0,1-.3-1.3,10.414,10.414,0,0,0-.5-1.2h-3.1a2.078,2.078,0,0,1-.5,1.2,6.107,6.107,0,0,0-.3,1.3c0,.2.2.3.5.5v.2H209v-.2a.908.908,0,0,0,.7-.3l.3-.7,3.1-8.5h.5l3.1,8.5.3.7a.908.908,0,0,0,.7.3Z" fill="#141414"/>
      <path id="Tracé_808" d="M227.9,86.8a17.851,17.851,0,0,0-.2,2.3h-.3a2.088,2.088,0,0,0-.8-1.6A1.6,1.6,0,0,0,225,87a3.127,3.127,0,0,0-2.5,1.3,5.982,5.982,0,0,0,0,5.8,2.99,2.99,0,0,0,2.5,1.3c.5,0,1-.2,1.3-.2.5-.2.8-.5,1.3-.7l.2.7a8.356,8.356,0,0,1-3.1,1.2,3.614,3.614,0,0,1-3.3-1.5,4.426,4.426,0,0,1-1-3.5,4.879,4.879,0,0,1,1.3-3.6,4.539,4.539,0,0,1,3.5-1.5,4.367,4.367,0,0,1,2.7.5" fill="#141414"/>
      <g id="Groupe_239" transform="translate(109.247 22.34)">
        <path id="Tracé_809" d="M43.2,42.4h-1L39.7,40a16.841,16.841,0,0,0,2.6-9V13.7l4.6-4.6c2.5,2.1,5.6,2.6,7.1,1,1.6-1.6.8-4.9-1.6-7.6S46.3-.6,44.8.9s-1,4.6,1.3,6.9l-5.3,4.9c-7.9-.2-11.2-.8-12.5-1.3a3.4,3.4,0,0,0-2,0c-1.3.5-4.6,1.3-12.7,1.3L9,8.1c2.1-2.5,2.6-5.6,1-7.2S5,0,2.4,2.5C-.1,5.3-.7,8.6.9,10.2c1.5,1.5,4.6,1,6.9-1.3l4.6,4.6V30.8a16.841,16.841,0,0,0,2.6,9l-2.6,2.5h-1v1L.6,54.1l1,1,1-1,1,1,.7-.7H5.5l1.3,1.3-1,1,1,1,2.1-2.1L6,52.8a.91.91,0,0,1,0-1.2.785.785,0,0,1,1.1,0l2.8,2.8L12,52.3l-1-.8-1,1L8.7,51.2V50l.7-.7-1-1,4.1-4.1h1.2V43L16,40.7h0a19.888,19.888,0,0,0,3.6,3.5,1.332,1.332,0,0,0,.5.3c7.2,4.6,7.6,4.9,7.6,4.9s.3-.2,7.6-4.9a1.332,1.332,0,0,1,.5-.3,14.963,14.963,0,0,0,3.6-3.5h0L41.7,43v1.2h.8l4.1,4.1-1.5,1,.7.7v1.1l-1.3,1.3-1-1-1,1,2.1,2.1,2.8-2.8a.91.91,0,0,1,1.2,0,.785.785,0,0,1,0,1.1h0l-2.8,2.8,2.1,2.1,1-1-1-1,1.3-1.3h1.2l.7.7,1-1,1,1,1-1L43.2,43.4ZM45.5,2.2c1.2-1.2,3.8-.5,5.8,1.5s2.8,4.6,1.6,5.8S49.1,10,47.1,8s-2.8-4.7-1.6-5.8ZM7.5,7.8c-2,2-4.6,2.8-5.8,1.6S1.2,5.6,3.2,3.6,7.8.9,9,2,9.5,5.8,7.5,7.8ZM34.6,43.1c-.2.2-.2.2-.3.2-3.9,2.6-6.4,4.3-6.7,4.3l-.2.2-.2-.2c-.2-.2-2.6-1.6-6.7-4.3-.2-.2-.2-.2-.3-.2a14.529,14.529,0,0,1-6.4-12.3V14.3h.5c8.1,0,11-.8,12.2-1.3a2.56,2.56,0,0,1,2.1,0c1,.5,4.1,1.3,12.2,1.3h.5V30.7A15.63,15.63,0,0,1,34.6,43.1Z" fill="#141414"/>
        <path id="Tracé_810" d="M26.7,14.2h0c-1.3.5-4.6,1.3-12,1.3V30.8a13.817,13.817,0,0,0,6.1,11.7c.2.2.2.2.3.2,4.3,2.8,5.8,3.9,6.4,4.1.5-.3,2-1.3,6.4-4.1.2-.2.2-.2.3-.2a14.184,14.184,0,0,0,6.1-11.7V15.5c-7.6,0-10.7-.7-12-1.3A2.2,2.2,0,0,0,26.7,14.2ZM30,39.8a5,5,0,0,1-3.1,1,8.525,8.525,0,0,1-3.5-.8c.1-1,.2-2.1.2-3.1h.5c.5,2,1.3,3,2.8,3a2.767,2.767,0,0,0,1.6-.5,1.731,1.731,0,0,0,.7-1.6,3.666,3.666,0,0,0-1.5-2.5,33.929,33.929,0,0,1-2.8-2,3.46,3.46,0,0,1-1.5-2.8,4.1,4.1,0,0,1,1.3-2.8,4.779,4.779,0,0,1,2.8-1,10.879,10.879,0,0,1,3,.7l-.3,3.1h-.5c-.3-1.8-1.2-2.8-2.5-2.8a2.767,2.767,0,0,0-1.6.5,2.127,2.127,0,0,0-.7,1.5A3.273,3.273,0,0,0,26.4,32a33.929,33.929,0,0,1,2.8,2,3.746,3.746,0,0,1,1.5,3.1,2.194,2.194,0,0,1-.7,2.7Zm.7-20.9L29.4,21l2,1.3-2.5.5.2,2.5-1.8-1.6-1.8,1.6.2-2.5-2.3-.3,2-1.3-1.3-2.1,2.5.7,1-2.3,1,2.3Z" fill="#141414"/>
      </g>
      <path id="Tracé_811" d="M123.5,101.8a.908.908,0,0,0-.3-.7,2.106,2.106,0,0,0-1.3-.5,4.145,4.145,0,0,0-1.6.3l-1,.5a1.231,1.231,0,0,0-.5,1,1.3,1.3,0,0,0,.8,1.2,2.947,2.947,0,0,0,1.3.5l1.3.7a3.915,3.915,0,0,1,1,.8,2.354,2.354,0,0,1,.2.8,2.663,2.663,0,0,1-.3,1.2,5.48,5.48,0,0,1-1.8,1.6,5.986,5.986,0,0,1-3.5,1,5,5,0,0,1-3.1-1,2.61,2.61,0,0,1-1-2,2.767,2.767,0,0,1,.5-1.6,5.347,5.347,0,0,1,1.3-1.3h.2c0,.2,0,.2-.2.2a2.047,2.047,0,0,0-.8.8,2.877,2.877,0,0,0-.5,2,1.9,1.9,0,0,0,.5,1.3,4.2,4.2,0,0,0,2.6,1.2h.7c.3,0,.8-.2,1.2-.2a6.944,6.944,0,0,0,1.3-.5,3.238,3.238,0,0,0,1.8-2,1.477,1.477,0,0,0-.5-2,10.93,10.93,0,0,0-1.5-.8c-.5-.2-1-.5-1.5-.7a1.592,1.592,0,0,1-.7-2,1.575,1.575,0,0,1,.7-.7,5,5,0,0,1,3.1-1c.5,0,1,.2,1.5.2a1.387,1.387,0,0,1,.7.8v.2a1.135,1.135,0,0,1-.3.8l-.8.5h-.2a.215.215,0,0,1,.2-.2h0c.1.1.4-.1.5-.4h0" fill="#141414"/>
      <path id="Tracé_812" d="M127,107l-.5,1c0,.2-.2.3-.2.5s0,.2.2.2.5-.2.5-.3l1-1.5a.215.215,0,0,1,.2-.2h0c.2,0,.2,0,.2.2v.2c-.7,1.3-1.3,2-1.6,2-.2,0-.5-.2-.5-.3a.764.764,0,0,1-.2-.5.952.952,0,0,1,.2-.7c-.5,1-1.2,1.3-1.5,1.3-.2,0-.3,0-.3-.2a1.136,1.136,0,0,1-.3-.8,2.512,2.512,0,0,1,1-2.1,3.528,3.528,0,0,1,1.3-.8h.3a1.929,1.929,0,0,1,1,.3.215.215,0,0,1,.2.2h0l-.2.2c0-.2-.2-.3-.5-.3H127c-.3,0-.7.2-1.2.8a3.591,3.591,0,0,0-.7,1,6.117,6.117,0,0,0-.5,1.2c0,.2,0,.4.2.5.5,0,1-.7,1.6-2a1.332,1.332,0,0,0,.3-.5c.1-.2.2-.2.3-.2h.5a9.224,9.224,0,0,1-.5.8" fill="#141414"/>
      <path id="Tracé_813" d="M129.6,104.9a.483.483,0,0,1-.7,0c-.2-.2-.2-.2-.2-.3s.2-.2.2-.3a.483.483,0,0,1,.7,0c.2.2.2.2.2.3l-.2.3m-1.2,4.1c.2,0,.3-.2.5-.2a3.36,3.36,0,0,0,1-1.6.215.215,0,0,1,.2-.2h0v.2c0,.2,0,.2-.2.2-.2.2-.2.2-.2.3s-.2.2-.2.5-.2.3-.3.5a1.02,1.02,0,0,1-.8.5.773.773,0,0,1-.8-.7v-.1h0a.952.952,0,0,1,.2-.7l.7-1.8v-.2c0-.2-.2-.2-.2-.3h.5c.2,0,.3,0,.3.2s0,.2-.2.3l-.8,2.1a1.445,1.445,0,0,0-.2.7c0,.1.2.3.5.3h0" fill="#141414"/>
      <path id="Tracé_814" d="M133.2,105.6a7.1,7.1,0,0,0-1.3,3.1c0,.1.1.2.2.3.3,0,1-.7,1.5-2a.2.2,0,1,1,.4,0v.2a4.355,4.355,0,0,1-1,1.6,1.02,1.02,0,0,1-.8.5c-.2,0-.5-.2-.5-.3-.2-.2-.2-.2-.2-.3,0-.2,0-.4.2-.5.2-.3.3-.8.5-1.2.2-.2.2-.2.2-.3a.215.215,0,0,0-.2-.2h0a3.039,3.039,0,0,0-.7.5,8.008,8.008,0,0,0-1.5,2.1.215.215,0,0,1-.2.2h-.7a10.092,10.092,0,0,0,.7-1.5,5.71,5.71,0,0,1,1.3-2.1c.2-.2.2-.2.3-.2h.5a6.9,6.9,0,0,0-1.3,2,4.741,4.741,0,0,1,1-1l1-.7a3.81,3.81,0,0,1,1-.3l-.4.1" fill="#141414"/>
      <path id="Tracé_815" d="M135.5,105.1a13.354,13.354,0,0,0,.7-1.8c0-.2,0-.2-.2-.2s-.2.2-.3.3a11.938,11.938,0,0,0-.8,1.6Zm-.2.1h-.5a8.8,8.8,0,0,0-.5,1.5,3.072,3.072,0,0,0,1-1.5m-2.1,3.2a11.244,11.244,0,0,1,1-3.1h-.5a.215.215,0,0,1-.2-.2h0v-.2a.215.215,0,0,1,.2-.2h.7c.2-.5.5-1,.7-1.5a2.178,2.178,0,0,1,.5-.8.764.764,0,0,1,.5-.2h.2c.2.2.3.3.2.5,0,.3-.2.7-.2,1l-.5,1h.5a.215.215,0,0,1,.2.2h0v.2a.215.215,0,0,1-.2.2h-.7a5.171,5.171,0,0,1-1.5,1.8l-.2,1.2v.2c0,.2,0,.2.2.2a.215.215,0,0,0,.2.2h0c.2,0,.4,0,.5-.2a6.1,6.1,0,0,0,1.2-1.6.215.215,0,0,1,.2-.2h.2v.2l-.5,1a1.7,1.7,0,0,1-1.3,1c-.2,0-.3-.1-.5-.2-.7-.1-.9-.4-.9-.5" fill="#141414"/>
      <path id="Tracé_816" d="M136.8,106.7a.215.215,0,0,1,.2-.2h2.5c.2,0,.2,0,.2.2a.215.215,0,0,1-.2.2h0c-.8,0-1.6.2-2.5.2-.2-.1-.2-.2-.2-.4h0" fill="#141414"/>
      <path id="Tracé_817" d="M145.9,100.6a3.722,3.722,0,0,0-2,.7,10.3,10.3,0,0,0-2.5,2.6,2.195,2.195,0,0,0,1.2.5,2.959,2.959,0,0,0,1,.2,3.912,3.912,0,0,0,3.5-1.3,2.106,2.106,0,0,0,.5-1.3,1.24,1.24,0,0,0-1.2-1.3l-.5-.1m-6.3,12c0,.2.2.3.5.5h.3a4.552,4.552,0,0,0,2-.5,6.93,6.93,0,0,0,2.5-2c-.7,0-1.3.2-2,.2a7.714,7.714,0,0,0-2.5,1,.86.86,0,0,0-.8.8m1.7-8.5a4.552,4.552,0,0,0-.5,2,2.126,2.126,0,0,0,2.9,2.3,6.944,6.944,0,0,0,1.3-.5,2.047,2.047,0,0,0,.8-.8c.3-.7.5-1,1-1a.319.319,0,0,1,.3.3v.2a10.313,10.313,0,0,1-.5,1.6l-1,2a10.679,10.679,0,0,1,2.5.3c.2,0,.2,0,.2.2s-.2.2-.3,0a14.919,14.919,0,0,0-2.1-.2h-.3a7.28,7.28,0,0,1-1.8,1.7,5.8,5.8,0,0,1-2.1,1,2.959,2.959,0,0,1-1,.2.952.952,0,0,1-.7-.2c-.5-.2-.8-.5-.8-.8,0-.2,0-.3.2-.3a3.323,3.323,0,0,1,1.6-1.3,4.552,4.552,0,0,1,2-.5,19.482,19.482,0,0,1,2.5-.2,13.9,13.9,0,0,0,1.2-2.8V107a4,4,0,0,1-1.2,1,2.22,2.22,0,0,1-1.1.5,1.592,1.592,0,0,1-1.3.3,1.8,1.8,0,0,1-1-.2,2.335,2.335,0,0,1-1.2-1,3.743,3.743,0,0,1-.5-1.8,5.932,5.932,0,0,1,.5-2.3,2.086,2.086,0,0,1-.1-3l.1-.1h0l.2-.2v.5a2.106,2.106,0,0,0-.5,1.3,2.976,2.976,0,0,0,.5,1.5.764.764,0,0,0,.2-.5,4.71,4.71,0,0,1,2.3-2.1,5.932,5.932,0,0,1,2.3-.5h.5a2.542,2.542,0,0,1,2,1.2,2.353,2.353,0,0,1,.2.8c0,.3-.2.7-.2,1a3.215,3.215,0,0,1-2.1,1.5,8.753,8.753,0,0,1-1.6.2,6.827,6.827,0,0,1-3.4-1" fill="#141414"/>
      <path id="Tracé_818" d="M150.6,107l-.5,1c0,.2-.2.3-.2.5s0,.2.2.2.5-.2.5-.3l1-1.5a.215.215,0,0,1,.2-.2h0c.2,0,.2,0,.2.2v.2c-.7,1.3-1.3,2-1.6,2-.2,0-.5-.2-.5-.3a.764.764,0,0,1-.2-.5.952.952,0,0,1,.2-.7c-.5,1-1.2,1.3-1.5,1.3-.2,0-.3,0-.3-.2a1.136,1.136,0,0,1-.3-.8,2.512,2.512,0,0,1,1-2.1,3.528,3.528,0,0,1,1.3-.8h.3a1.929,1.929,0,0,1,1,.3.215.215,0,0,1,.2.2h0l-.2.2c0-.2-.2-.3-.5-.3h-.2c-.3,0-.7.2-1.2.8a3.591,3.591,0,0,0-.7,1,6.118,6.118,0,0,0-.5,1.2c0,.2,0,.4.2.5.5,0,1-.7,1.6-2a1.332,1.332,0,0,0,.3-.5c.2-.2.2-.2.3-.2h.5a3.278,3.278,0,0,1-.6.8" fill="#141414"/>
      <path id="Tracé_819" d="M151.3,108.5a1.845,1.845,0,0,1,.5-1.2.215.215,0,0,1-.2-.2h0l.2-.3a6.944,6.944,0,0,0,.5-1.3.764.764,0,0,1,.5-.2h.7a2.55,2.55,0,0,0-.8,1.2,6.944,6.944,0,0,0-.5,1.3,1.445,1.445,0,0,0-.2.7c0,.2,0,.3.2.3a.215.215,0,0,0,.2.2h0a1.205,1.205,0,0,0,.5-.5,15.569,15.569,0,0,0,1.6-2.8.764.764,0,0,1,.5-.2h.5l-.3.3-.3.7a11.11,11.11,0,0,0-.7,1.6v.3c0,.1.1.2.2.3.3,0,1-.5,1.5-1.8a.215.215,0,0,1,.2-.2h0c.2,0,.2,0,.2.2h0c0,.2,0,.2-.2.2-.2.2-.2.2-.2.3s-.2.3-.3.5a1.332,1.332,0,0,0-.3.5,1.02,1.02,0,0,1-.8.5c-.2,0-.5-.2-.5-.3s-.2-.2-.2-.5c0-.2,0-.4.2-.5-.5,1-1,1.3-1.5,1.3-.3,0-.7-.2-.7-.5-.5.3-.5.3-.5.1" fill="#141414"/>
      <path id="Tracé_820" d="M156.9,107a2.958,2.958,0,0,0,.2-1,.215.215,0,0,0-.2-.2h0a1.205,1.205,0,0,0-.5.5.908.908,0,0,1-.3.7.908.908,0,0,0-.3.7c0,.2-.2.2-.2,0v-.2a3.36,3.36,0,0,1,1-1.6.764.764,0,0,1,.5-.2h0c.3,0,.5.3.5.8,0,.2,0,.4-.2.5l.7-1c.2-.2.3-.5.5-.5h.2c.2,0,.2,0,.2.2a.215.215,0,0,1,.2.2h0c0,.2,0,.2-.2.2-.2.2-.2.2-.3.2a.215.215,0,0,1-.2-.2h0a3.591,3.591,0,0,0-.7,1l-.5,1v.8c.2.2.2.3.3.3.2,0,.4,0,.5-.2.2-.2.3-.2.5-.5l.5-1c0-.2.2-.2.2-.3V107l.2-.2v.2c-.1.3-.2.7-.3,1,0,.2-.2.2-.2.5a1.332,1.332,0,0,0-.3.5,1.136,1.136,0,0,1-.8.3c-.2,0-.5-.2-.5-.3a1.445,1.445,0,0,1-.2-.7V108c-.5,1.2-1.2,1.6-1.6,1.6-.2,0-.2,0-.3-.2v-.2l.2-.2h.2a.215.215,0,0,1,.2.2h0c.2,0,.3,0,.3-.2.3-.3.7-.5.8-1-.6,0-.3-.5-.1-1" fill="#141414"/>
      <rect id="Rectangle_186" width="4.9" height="0.5" transform="translate(104.4 106.4)" fill="#141414"/>
      <rect id="Rectangle_187" width="4.9" height="0.5" transform="translate(163.9 106.4)" fill="#141414"/>
    </g>
  </g>
</svg>
