<svg xmlns="http://www.w3.org/2000/svg" width="291" height="132" viewBox="0 0 291 132">
  <g id="Groupe_191" data-name="Groupe 191" transform="translate(-6653 -1967)">
    <rect id="Rectangle_64" data-name="Rectangle 64" width="291" height="132" transform="translate(6653 1967)" fill="#d0d0d0" opacity="0"/>
    <g id="Groupe_189" data-name="Groupe 189" transform="translate(6532.207 1618.04)">
      <path id="Tracé_537" data-name="Tracé 537" d="M203.793,427.729v-2.6h1.443c.721,0,2.165-.144,2.165-1.876h0V407.674h0c0-.938-.073-3.174-1.876-3.174h-1.66l1.876-3.319H316.726V404.5H214.614c-.938,0-2.165.216-2.165,2.092h0V411.5h0c.217.577,1.082.794,1.515.794s1.948-.072,1.948-2.453h2.164v8.008h-2.164a2.3,2.3,0,0,0-1.875-2.02c-.866-.072-1.588.217-1.588,1.371h0v6.06h0c0,.649.794,1.876,2.669,1.876h1.3v2.6Z" transform="translate(0 -0.074)" fill="#161615" fill-rule="evenodd"/>
      <path id="Tracé_538" data-name="Tracé 538" d="M296.848,411.519c0,.577.722,1.154,1.154,1.3a11.708,11.708,0,0,1,5.266-1.876c2.093,0,3.175,1.082,3.175,2.741h0v7.936h-5.05v-6.132h0c0-.794-.217-1.371-.938-1.443s-2.6,1.443-3.1,2.165h0v10.966h0a1.883,1.883,0,0,0,1.876,1.732h0V431h-8.8v-2.164h0c.865,0,1.8-.289,1.876-1.587h0V415.054h0a1.8,1.8,0,0,0-1.876-1.371h0v-2.164Z" transform="translate(-29.007 -3.342)" fill="#161615" fill-rule="evenodd"/>
      <path id="Tracé_539" data-name="Tracé 539" d="M386.449,411.81h-8.8v2.164h0a1.8,1.8,0,0,1,1.875,1.371h0v12.192h0c-.072,1.3-1.01,1.587-1.875,1.587h0v2.164h8.8V429.2h0a1.883,1.883,0,0,1-1.876-1.731h0V415.489h0a1.768,1.768,0,0,1,1.876-1.515h0V411.81Z" transform="translate(-58.209 -3.633)" fill="#161615" fill-rule="evenodd"/>
      <path id="Tracé_540" data-name="Tracé 540" d="M267.565,411.519c0,.577.721,1.154,1.154,1.3a11.7,11.7,0,0,1,5.266-1.876c2.093,0,3.175,1.082,3.175,2.741h0v7.936h-5.05v-6.132h0c0-.794-.217-1.371-.938-1.443s-2.6,1.443-3.1,2.165h0v10.966h0a1.883,1.883,0,0,0,1.876,1.732h0V431h-8.8v-2.164h0c.866,0,1.8-.289,1.876-1.587h0V415.054h0a1.8,1.8,0,0,0-1.876-1.371h0v-2.164Z" transform="translate(-19.202 -3.342)" fill="#161615" fill-rule="evenodd"/>
      <path id="Tracé_541" data-name="Tracé 541" d="M355.544,411.519c0,.577.722,1.154,1.155,1.3a11.7,11.7,0,0,1,5.266-1.876c2.092,0,3.174,1.082,3.174,2.741h0v7.936h-5.05v-6.132h0c0-.794-.216-1.371-.938-1.443s-2.6,1.443-3.1,2.165h0v10.966h0a1.883,1.883,0,0,0,1.876,1.732h0V431h-8.8v-2.164h0c.865,0,1.8-.289,1.875-1.587h0V415.054h0a1.8,1.8,0,0,0-1.875-1.371h0v-2.164Z" transform="translate(-48.659 -3.342)" fill="#161615" fill-rule="evenodd"/>
      <path id="Tracé_542" data-name="Tracé 542" d="M247.5,424.938h-5.05v1.948h0c0,.793-.144,2.453-2.525,2.453s-3.1-1.587-3.1-2.741h0v-4.112h0a.861.861,0,0,1,.794-.866H247.5v-5.266h0c0-2.381-.5-3.1-1.515-4.112s-4.545-1.3-6.132-1.3c-4.04,0-5.338.577-6.492,1.515s-1.588,2.886-1.588,4.329h0v8.152h0a6.436,6.436,0,0,0,1.8,5.05c1.37,1.371,5.555,1.371,6.42,1.371s3.752.072,5.844-1.443,1.66-4.978,1.66-4.978Zm-10.678-8.945a2.58,2.58,0,0,1,2.886-2.886c2.525,0,2.741,1.876,2.741,2.886h0v2.6h0a.877.877,0,0,1-.866.866h-3.9a.867.867,0,0,1-.866-.794h0v-2.669Z" transform="translate(-9.368 -3.342)" fill="#161615" fill-rule="evenodd"/>
      <path id="Tracé_543" data-name="Tracé 543" d="M334.556,426.992V416.171h0c0-1.659-.073-3.39-1.8-4.617s-4.545-1.154-5.627-1.154-4.689,0-6.349,1.875a5.588,5.588,0,0,0-1.37,4.4h4.726s.325-2.452.974-3.1a2.823,2.823,0,0,1,3.715-.217,1.992,1.992,0,0,1,.685,1.587h0v3.1h0a.766.766,0,0,1-.649.721s-6.565.144-7.72,1.01-2.165,1.443-2.165,4.617.794,4.4,1.731,5.05,1.37,1.37,5.627,1.37h10.1v-2.092h0a1.882,1.882,0,0,1-1.875-1.731Zm-5.051,1.227a.581.581,0,0,1-.5.433h-2.488a2.273,2.273,0,0,1-2.273-2.453h0v-2.777h0c0-2.705,2.814-2.633,3.932-2.633s1.334.938,1.334,1.551h0v5.88Z" transform="translate(-38.564 -3.16)" fill="#161615" fill-rule="evenodd"/>
      <path id="Tracé_544" data-name="Tracé 544" d="M381.464,404.39c2.526,0,4.572-.768,4.572-1.715s-2.047-1.715-4.572-1.715-4.573.768-4.573,1.715,2.047,1.715,4.573,1.715Z" transform="translate(-57.956 0)" fill="#161615" fill-rule="evenodd"/>
    </g>
  </g>
</svg>
