<svg xmlns="http://www.w3.org/2000/svg" width="291" height="132" viewBox="0 0 291 132">
  <g id="Group_323" data-name="Group 323" transform="translate(-1047 -5596)">
    <rect id="Rectangle_61" data-name="Rectangle 61" width="291" height="132" transform="translate(1047 5596)" fill="rgba(255,255,255,0)"/>
    <path id="Path_935" data-name="Path 935" d="M15.57-4.23c-.045-1.305-.54-1.08-3.465-1.08-3.87-.09-4.41.315-4.59-1.62,0-.315-.045-.9-.045-1.8v-5.4l1.8-1.035a.775.775,0,0,0,.36-.63.793.793,0,0,0-.36-.675L7.47-17.5V-28.8c0-1.71.18-2.7-1.08-2.79-.45-.045-1.08-.045-1.98-.045-2.2,0-2.25.09-2.25,2.3V-17.5L.36-16.47A.7.7,0,0,0,0-15.8a.679.679,0,0,0,.36.63l1.8,1.035V-2.115C2.16-.09,2.25,0,4.275,0H13.5c.99,0,2.025.18,2.07-1.035C15.615-2.115,15.615-3.15,15.57-4.23Zm18.315-.135C33.75-5.4,32.85-5.265,31.5-5.31H27.09C25.6-5.355,25.2-5.8,25.11-7.245a32.591,32.591,0,0,1,.045-3.69c.09-1.935.54-2.16,2.25-2.16,1.3,0,2.34,0,3.015-.045.63-.045.99-.36.99-.99a19.878,19.878,0,0,0,.045-2.835c-.045-1.08-.315-1.4-1.395-1.4a14.106,14.106,0,0,0-1.575-.045c-1.4,0-2.385.045-2.925-.45a2.045,2.045,0,0,1-.4-1.305c-.09-1.44-.09-2.925-.045-4.455.09-1.4.495-1.845,1.98-1.89h4.455c1.3,0,2.25.09,2.34-.99.09-1.035.135-3.285-.27-3.69A3.44,3.44,0,0,0,31.77-31.5H22.05c-2.2,0-2.25.09-2.25,2.34V-2.97c0,1.665-.045,2.25.36,2.61a2.893,2.893,0,0,0,1.8.36h9.765c.945,0,2.025.09,2.115-.99A16.827,16.827,0,0,0,33.885-4.365Zm29.88.135c-.045-1.305-.54-1.08-3.465-1.08-3.87-.09-4.41.315-4.59-1.62,0-.315-.045-.9-.045-1.8V-28.8c0-1.71.18-2.7-1.08-2.79-.45-.045-1.08-.045-1.98-.045-2.2,0-2.25.09-2.25,2.3V-2.115C50.355-.09,50.445,0,52.47,0h9.225c.99,0,2.025.18,2.07-1.035C63.81-2.115,63.81-3.15,63.765-4.23ZM85.23-2.7c-.045-.36-3.24-19.215-4.5-26.685a4.2,4.2,0,0,0-.63-1.845,2.188,2.188,0,0,0-.99-.27H75.015c-1.44,0-1.8.27-2.07,1.755-.405,2.475-3.6,21.285-4.68,27.405-.18,1.305-.5,2.25.765,2.3q1.417.068,3.51,0a1.053,1.053,0,0,0,1.125-.99c.36-2.07.585-3.285.63-3.645.27-2.295.63-2.385,2.97-2.385a2.039,2.039,0,0,1,.36.045c1.575.045,1.665,2.2,1.71,2.655.09.36.135.9.225,1.575.18,1.44.225,2.115.63,2.475a1.4,1.4,0,0,0,.9.315c.36,0,3.555.135,3.96-.27C85.41-.585,85.455-1.395,85.23-2.7Zm-7.065-9.9c-.09.585-2.61.63-2.61-.045a2.987,2.987,0,0,1,.045-.585,16.149,16.149,0,0,1,.72-4.14.519.519,0,0,1,.945,0,3.473,3.473,0,0,1,.27.675c0,.135.5,2.52.585,3.33A6.7,6.7,0,0,1,78.165-12.6ZM106.6-9.9a8.1,8.1,0,0,0-1.935-5.715c-.72-.855-.72-1.215-.09-2.07,2.745-3.645,1.8-9.72-1.125-12.24A7.545,7.545,0,0,0,98.19-31.68c-.72.045-1.665.045-2.835.045-3.42-.045-4.41-.135-4.86.315a3.81,3.81,0,0,0-.27,1.935V-2.88c0,1.485,0,2.16.315,2.52A1.482,1.482,0,0,0,91.62,0c8.55.09,10.575.5,13.185-2.61a6.942,6.942,0,0,0,1.755-4.815C106.56-8.46,106.56-9.315,106.6-9.9ZM95.985-24.885c.18-1.125.72-1.485,1.89-1.4a2.5,2.5,0,0,1,2.34,1.89l.27,1.35A5.638,5.638,0,0,1,99.81-20.3a2.114,2.114,0,0,1-1.26.945C95.4-18.315,95.67-22.68,95.985-24.885Zm4.185,18.09A2.85,2.85,0,0,1,97.29-5.4c-1.575-.09-1.35-.765-1.35-4.095,0-3.06-.18-3.645,1.035-4.275,1.26-.585,3.015.45,3.51,1.845A6.012,6.012,0,0,1,100.17-6.795ZM111.78-4.5c.9.09,1.44.09,1.485.135a.691.691,0,0,1,.675.675,10.94,10.94,0,0,1,0,2.97.733.733,0,0,1-.675.72,13.276,13.276,0,0,1-3.015-.045.864.864,0,0,1-.675-.72,10.918,10.918,0,0,1,0-2.97.726.726,0,0,1,.675-.675C110.34-4.41,110.835-4.41,111.78-4.5Z" transform="translate(1135 5678)" fill="#141414"/>
  </g>
</svg>
