<svg xmlns="http://www.w3.org/2000/svg" width="291" height="132" viewBox="0 0 291 132">
  <g id="Groupe_1000" data-name="Groupe 1000" transform="translate(-6653 -3328)">
    <rect id="Rectangle_64" data-name="Rectangle 64" width="291" height="132" transform="translate(6653 3328)" fill="#d0d0d0" opacity="0.004"/>
    <g id="Groupe_999" data-name="Groupe 999" transform="translate(6708.4 3333.866)">
      <g id="Groupe_996" data-name="Groupe 996" transform="translate(21.6 20.134)">
        <path id="Tracé_2283" data-name="Tracé 2283" d="M64.262,30.779c-1.4-1.547-3.233-3.634-5.395-2.669s-1.755,2.2-.531,2.375,3.311.46,1.38,4.685S53.524,48.55,50.348,54.362,42.315,68.738,39.06,71.438s-4.011,1.632-3.61-1.132,3.06-11.472,5.982-21.116,7.138-20.24,5.144-23.9-5.3-6.377-11.842-4.6S24.523,30.2,24.523,30.2s-5.031,9.371-1.891,10.935,4.547-4.265,5.038-5.8,3.28-10.114,7.338-12.2,8.22-1.517,7.853,4.259-5.866,18.338-7.669,23.763-6.142,18.885-4.73,23.482,5.537,4.277,10.163.351c5.016-4.258,16.53-21.905,20.527-30.525S65.664,32.326,64.262,30.779Z" transform="translate(-21.6 -20.134)"/>
        <path id="Tracé_2284" data-name="Tracé 2284" d="M247.444,203.976c-.269-1.489-1.619-3.058-4.486-2.562s-6.091,5.233-6.091,5.233c2.324-3.451,3.425-6.759.5-7.628s-3.166,1.77-4.367,5.331-2.788,10.038-2.788,10.038-5,5.338-9.694,6.444-3.464-3.245-3.464-3.245a14.708,14.708,0,0,0,10.476-9.3c1.395-4.263-.064-12.048-7.737-5.135a20.776,20.776,0,0,0-7.2,15.394c.443,3.775,3.632,5.405,7.622,4.762s9.114-5.211,9.114-5.211-.577,5.3,1.224,6.01,2.1.147,2.518-5.947,5.352-10.708,6.836-12.226,2.4-2.058,3-.931-1.068,4.535-2.35,5.249-1.752,3.241.678,2.569a10.575,10.575,0,0,0,5.234-3.966A6.851,6.851,0,0,0,247.444,203.976Zm-24.815,1.737c2.991-2.908,3.027-1.665,2.645.781a10.2,10.2,0,0,1-7.534,8.047S219.638,208.621,222.629,205.713Z" transform="translate(-179.756 -168.13)"/>
        <path id="Tracé_2285" data-name="Tracé 2285" d="M423.39,131.631a135.471,135.471,0,0,1,16.4-.764c2.676.092,8.33,1.415,6.453-.462-1.6-1.6-10.092-2.108-17.148-1.47-1.668.151-3.345.391-4.938.666,3.165-8.383.289-7.324-1.046-6.892s-3.383,7.682-3.414,7.79c-2.919.667-4.927,1.273-4.927,1.273s-2.417.587-2.776,1.37.862.567,2.149.184a42.24,42.24,0,0,1,4.959-1.1c-2.209,6.474-3.838,12.4-5.972,21.242-2.321,9.612,1.62,9.162,2.552,9s.053-1.962.517-7.3C416.622,150.233,420.324,139.815,423.39,131.631Z" transform="translate(-344.828 -104.838)"/>
        <path id="Tracé_2286" data-name="Tracé 2286" d="M495.937,184.389s-.391,1.368-.7,2.412,1.275,1.918,2.653,1.856,2.283-2.66,2.484-3.455.326-2.667-1.923-2.663A2.332,2.332,0,0,0,495.937,184.389Z" transform="translate(-413.785 -154.621)"/>
        <path id="Tracé_2287" data-name="Tracé 2287" d="M530.059,195c-.323-1.143-1.225-.691-2.133-.247s-6.409,3.883-8.389,2.817-3.568-1.26-5.129.8-2.24,5.084,2.2,4.214c0,0-.263,8.038-4.894,11.011s-5.935.664-5.576-2.264a23.008,23.008,0,0,1,2.479-8.028,40.488,40.488,0,0,1,4.655-7.44c1.724-1.98,2.373-2.446,2.787-1.112s1.492.806,1.767-.249.707-2.9-.838-3.585a4.6,4.6,0,0,0-4.226,0s-7.134,2.754-9.835,11.918c-.593,2.013-1.018,3.643-1.319,5.007l-.122.085-4.468,3.3a53.256,53.256,0,0,1,1.586-6.385c1.067-3.35.9-4.216-.351-4.922s-2.664.721-3.667,2.556a117.813,117.813,0,0,1-6.9,9.871c-1.209,1.413-2.371,1.395-2.358-.4s1.967-6.6,4.853-10.444,4.6-4.056,6.178-3.439,2.891,1.138,2.673-.279-3.461-4.351-7.239-3.118-6.986,8.2-7.973,10.552-5.931,8.99-7.761,10.248-2.275-.137-2.5-1.141a17.175,17.175,0,0,1,.306-6.208c.576-2.163,1.566-5.373,2-6.787s.476-2.421-1.01-2.885-2.442.78-3.032,2.447a79.456,79.456,0,0,0-2.711,10.469,5.724,5.724,0,0,0,2.881,6.043c2.09,1.231,5.518-.1,6.874-1.674s3.319-4.225,3.319-4.225c-.717,2.271,1.01,6.048,3.979,5.852s7.208-9.18,7.208-9.18c.228,1.87-1.563,6.987-1.563,6.987-4.6,3.213-11.5,8.56-14.926,12.3-2.873,3.135-5.978,9.991-2.682,12.891,4.134,3.639,10.836-1.658,13.928-5.658,4.18-5.407,7.86-19.6,7.86-19.6a47.221,47.221,0,0,1,5.059-3.4,4.909,4.909,0,0,0,1.194,3.648c1.409,1.766,6.835,3.819,12.078-1.081s5.216-11.616,5.132-13.595a35.264,35.264,0,0,0,6.3-1.761C528.482,197.783,530.383,196.138,530.059,195Zm-39.418,26.632q-.77,2.539-1.821,5.583a17.7,17.7,0,0,1-2.445,4.634,16.1,16.1,0,0,1-3.533,3.755,15.879,15.879,0,0,1-3.553,1.978c-1.36.517-2.982.011-3.346-.823a3.566,3.566,0,0,1-.157-1.893,7.741,7.741,0,0,1,1.04-3.011,24.481,24.481,0,0,1,3.152-4.244c1.21-1.278,3.072-3.022,5.166-4.908s4.464-3.7,6.83-5.654Q491.411,219.086,490.641,221.628Z" transform="translate(-392.127 -161.133)"/>
      </g>
      <g id="Groupe_997" data-name="Groupe 997" transform="translate(29.852 86.121)">
        <path id="Tracé_2288" data-name="Tracé 2288" d="M71.794,405.57c0-.421-.105-.736-.57-.736s-.571.315-.571.736v1.141a1.947,1.947,0,0,0,.226.976l1.577,2.7a2.6,2.6,0,0,1,.36,1.322v1.712a1.454,1.454,0,0,1-1.591,1.592c-1.1,0-1.622-.5-1.622-1.592v-1.487h.991v1.427c0,.51.2.811.631.811.405,0,.6-.3.6-.811v-1.517a1.938,1.938,0,0,0-.285-1.036l-1.457-2.538a2.49,2.49,0,0,1-.421-1.38v-1.307a1.406,1.406,0,0,1,1.562-1.592c1.111,0,1.561.526,1.561,1.517v1.382h-.991Z" transform="translate(-69.602 -403.993)"/>
        <path id="Tracé_2289" data-name="Tracé 2289" d="M94.224,405.361H93.113v-.841h3.213v.841H95.215v10h-.991Z" transform="translate(-89.071 -404.429)"/>
        <path id="Tracé_2290" data-name="Tracé 2290" d="M115.829,412.359h-1.742l-.405,3h-.992l1.592-10.842h1.352l1.591,10.842h-.991Zm-.856-7.088h-.03l-.751,6.247h1.531Z" transform="translate(-105.283 -404.429)"/>
        <path id="Tracé_2291" data-name="Tracé 2291" d="M145.876,409.609h1.787v5.075a4.232,4.232,0,0,1-1.562.331c-1.366,0-1.862-.661-1.862-1.907v-7.4a1.712,1.712,0,0,1,3.424,0v1.217h-.991v-1.081c0-.6-.15-1.006-.721-1.006s-.72.406-.72,1.006v7.253c0,.885.435,1.081.781,1.081a1.3,1.3,0,0,0,.661-.15V410.45h-.8Z" transform="translate(-131.409 -403.993)"/>
        <path id="Tracé_2292" data-name="Tracé 2292" d="M173.084,404.52h.991v10.842h-.991Z" transform="translate(-155.295 -404.429)"/>
        <path id="Tracé_2293" data-name="Tracé 2293" d="M190.189,404.52h.871v10.842h-1.412l-1.246-9.641h-.03v9.641H187.5V404.52h1.442l1.217,9.28h.03Z" transform="translate(-167.234 -404.429)"/>
        <path id="Tracé_2294" data-name="Tracé 2294" d="M218.766,409.609h1.787v5.075a4.232,4.232,0,0,1-1.562.331c-1.366,0-1.862-.661-1.862-1.907v-7.4a1.712,1.712,0,0,1,3.424,0v1.217h-.991v-1.081c0-.6-.15-1.006-.721-1.006s-.72.406-.72,1.006v7.253c0,.885.435,1.081.781,1.081a1.3,1.3,0,0,0,.661-.15V410.45h-.8Z" transform="translate(-191.769 -403.993)"/>
        <path id="Tracé_2295" data-name="Tracé 2295" d="M258.034,404.52h1.847c.946,0,1.531.165,1.531,1.246v2.749c0,.84-.315,1.141-1.081,1.171v.029c.691.03,1.126.255,1.126,1.006v3.394c0,1.081-.586,1.246-1.577,1.246h-1.847Zm1.652,4.79c.465,0,.735-.136.735-.781V406.1c0-.63-.33-.735-.841-.735h-.556v3.949Zm-.061,5.21c.511,0,.841-.105.841-.736v-2.972c0-.526-.315-.661-.781-.661h-.661v4.37Z" transform="translate(-225.642 -404.429)"/>
        <path id="Tracé_2296" data-name="Tracé 2296" d="M287.136,404.52h2.628v.841h-1.637v3.949h1.561v.84h-1.561v4.37h1.637v.841h-2.628Z" transform="translate(-249.741 -404.429)"/>
        <path id="Tracé_2297" data-name="Tracé 2297" d="M309.764,412.359h-1.742l-.405,3h-.992l1.592-10.842h1.352l1.591,10.842h-.991Zm-.856-7.088h-.03l-.751,6.247h1.531Z" transform="translate(-265.88 -404.429)"/>
        <path id="Tracé_2298" data-name="Tracé 2298" d="M340.405,404.52h.991v9.385c0,1.2-.9,1.547-1.757,1.547-.826,0-1.726-.346-1.726-1.547V404.52h.991v9.07c0,.78.255,1.021.751,1.021s.751-.241.751-1.021Z" transform="translate(-291.789 -404.429)"/>
        <path id="Tracé_2299" data-name="Tracé 2299" d="M365.772,405.361H364.66v-.841h3.213v.841h-1.111v10h-.991Z" transform="translate(-313.939 -404.429)"/>
        <path id="Tracé_2300" data-name="Tracé 2300" d="M389.829,404.52h.991v10.842h-.991Z" transform="translate(-334.781 -404.429)"/>
        <path id="Tracé_2301" data-name="Tracé 2301" d="M404.513,404.52h2.628v.841H405.5v3.949h1.561v.84H405.5v5.211h-.991Z" transform="translate(-346.941 -404.429)"/>
        <path id="Tracé_2302" data-name="Tracé 2302" d="M429.642,404.52h.99v9.385c0,1.2-.9,1.547-1.757,1.547-.825,0-1.726-.346-1.726-1.547V404.52h.992v9.07c0,.78.254,1.021.751,1.021s.751-.241.751-1.021Z" transform="translate(-365.685 -404.429)"/>
        <path id="Tracé_2303" data-name="Tracé 2303" d="M456.339,404.52h.992v10h1.636v.841h-2.628Z" transform="translate(-389.858 -404.429)"/>
      </g>
      <g id="Groupe_998" data-name="Groupe 998" transform="translate(124.829 86.121)">
        <path id="Tracé_2304" data-name="Tracé 2304" d="M622.106,404.52h2.628v.841H623.1v3.949h1.561v.84H623.1v4.37h1.636v.841h-2.628Z" transform="translate(-622.106 -404.429)"/>
        <path id="Tracé_2305" data-name="Tracé 2305" d="M643.871,404.52h.99L643.6,415.362h-1.441L640.9,404.52h.992l.976,9.85h.03Z" transform="translate(-637.667 -404.429)"/>
        <path id="Tracé_2306" data-name="Tracé 2306" d="M669.042,404.52h2.628v.841h-1.637v3.949h1.561v.84h-1.561v4.37h1.637v.841h-2.628Z" transform="translate(-660.974 -404.429)"/>
        <path id="Tracé_2307" data-name="Tracé 2307" d="M694.1,404.52h.871v10.842h-1.412l-1.246-9.641h-.029v9.641h-.872V404.52h1.441l1.217,9.28h.031Z" transform="translate(-679.498 -404.429)"/>
        <path id="Tracé_2308" data-name="Tracé 2308" d="M719.444,405.361h-1.111v-.841h3.213v.841h-1.11v10h-.992Z" transform="translate(-701.791 -404.429)"/>
        <path id="Tracé_2309" data-name="Tracé 2309" d="M744.04,405.57c0-.421-.105-.736-.571-.736s-.571.315-.571.736v1.141a1.948,1.948,0,0,0,.226.976l1.576,2.7a2.6,2.6,0,0,1,.361,1.322v1.712a1.454,1.454,0,0,1-1.592,1.592c-1.1,0-1.621-.5-1.621-1.592v-1.487h.99v1.427c0,.51.2.811.631.811.406,0,.6-.3.6-.811v-1.517a1.932,1.932,0,0,0-.285-1.036l-1.456-2.538a2.49,2.49,0,0,1-.421-1.38v-1.307a1.406,1.406,0,0,1,1.561-1.592c1.111,0,1.561.526,1.561,1.517v1.382h-.99Z" transform="translate(-721.264 -403.993)"/>
      </g>
    </g>
  </g>
</svg>
