<svg xmlns="http://www.w3.org/2000/svg" width="291" height="132" viewBox="0 0 291 132">
  <g id="Groupe_180" data-name="Groupe 180" transform="translate(4393 -9363)">
    <rect id="Rectangle_65" data-name="Rectangle 65" width="291" height="132" transform="translate(-4393 9363)" fill="rgba(255,255,255,0)"/>
    <g id="Groupe_174" data-name="Groupe 174" transform="translate(-4614.567 2387.26)">
      <g id="Groupe_141" data-name="Groupe 141" transform="translate(286.567 7063.624)">
        <g id="Groupe_127" data-name="Groupe 127" transform="translate(0 0.024)">
          <path id="Tracé_955" data-name="Tracé 955" d="M1091.878,432.414V414.1h3.179l4.891,14.331c.025.049.025.074.049.074s.049-.025.049-.074l4.867-14.331h3.179v18.293h-2.2v-14.82c0-.049-5.013,14.722-5.037,14.844h-1.688l-5.087-14.919v14.919Z" transform="translate(-1091.878 -414.096)" fill="#222"/>
        </g>
        <g id="Groupe_128" data-name="Groupe 128" transform="translate(18.073 2.421)">
          <path id="Tracé_956" data-name="Tracé 956" d="M1122.389,419.144a1.034,1.034,0,0,1,1.052-1,1.082,1.082,0,0,1,1.027,1,1.055,1.055,0,0,1-1.027,1.052A1.044,1.044,0,0,1,1122.389,419.144Zm0,2.69h2.079v12.228h-2.079Z" transform="translate(-1122.389 -418.142)" fill="#222"/>
        </g>
        <g id="Groupe_129" data-name="Groupe 129" transform="translate(21.327 5.918)">
          <path id="Tracé_957" data-name="Tracé 957" d="M1137.834,432.508l1.981.684a6.013,6.013,0,0,1-5.6,3.473,6.31,6.31,0,1,1,0-12.619,6.729,6.729,0,0,1,5.062,2.568l-1.638,1.247a4.044,4.044,0,0,0-3.424-1.736,4.218,4.218,0,1,0,0,8.436A3.927,3.927,0,0,0,1137.834,432.508Z" transform="translate(-1127.881 -424.046)" fill="#222"/>
        </g>
        <g id="Groupe_130" data-name="Groupe 130" transform="translate(35.072 1.223)">
          <path id="Tracé_958" data-name="Tracé 958" d="M1153.163,421.842a5.2,5.2,0,0,1,3.228-1.027,5.258,5.258,0,0,1,5.356,5.013v7.41h-2.079v-7.117a3.332,3.332,0,0,0-3.252-3.253c-1.688,0-3.253.685-3.253,3.13v7.239h-2.078V416.119h2.078Z" transform="translate(-1151.085 -416.119)" fill="#222"/>
        </g>
        <g id="Groupe_131" data-name="Groupe 131" transform="translate(47.471 5.918)">
          <path id="Tracé_959" data-name="Tracé 959" d="M1182.557,424.217h2.078V436.47h-2.078v-1.419a6.309,6.309,0,1,1,0-9.391Zm-4.206,10.344a4.218,4.218,0,1,0-4.231-4.231A4.181,4.181,0,0,0,1178.351,434.562Z" transform="translate(-1172.017 -424.046)" fill="#222"/>
        </g>
        <g id="Groupe_132" data-name="Groupe 132" transform="translate(61.437 5.918)">
          <path id="Tracé_960" data-name="Tracé 960" d="M1205.668,433.51l.832,1.688a8.111,8.111,0,0,1-4.573,1.467,6.3,6.3,0,0,1-6.333-6.334,6.069,6.069,0,0,1,6.065-6.285,5.634,5.634,0,0,1,5.6,5.943v1.2h-9.513a4.106,4.106,0,0,0,4.182,3.374A6.963,6.963,0,0,0,1205.668,433.51Zm-7.85-4.255c0,.049-.024.1-.024.146h7.288a3.526,3.526,0,0,0-3.5-3.276A3.81,3.81,0,0,0,1197.818,429.255Z" transform="translate(-1195.593 -424.046)" fill="#222"/>
        </g>
        <g id="Groupe_133" data-name="Groupe 133" transform="translate(74.839 1.248)">
          <path id="Tracé_961" data-name="Tracé 961" d="M1218.218,416.161h2.079v17.094h-2.079Z" transform="translate(-1218.218 -416.161)" fill="#222"/>
        </g>
        <g id="Groupe_134" data-name="Groupe 134" transform="translate(79.167)">
          <path id="Tracé_962" data-name="Tracé 962" d="M1225.525,432.4V414.055h3.986a9.171,9.171,0,0,1,0,18.342Zm.782-17.559v16.777h3.2a8.388,8.388,0,1,0,0-16.777Z" transform="translate(-1225.525 -414.055)" fill="#222"/>
        </g>
        <g id="Groupe_135" data-name="Groupe 135" transform="translate(93.792 5.918)">
          <path id="Tracé_963" data-name="Tracé 963" d="M1262.834,436.47h-.783v-3.057a6.31,6.31,0,1,1,0-6.114v-3.057h.783Zm-6.285-.611a5.515,5.515,0,1,0-5.527-5.527A5.485,5.485,0,0,0,1256.549,435.858Z" transform="translate(-1250.215 -424.046)" fill="#222"/>
        </g>
        <g id="Groupe_136" data-name="Groupe 136" transform="translate(108.784 5.963)">
          <path id="Tracé_964" data-name="Tracé 964" d="M1281.2,424.958c-.22-.025-.733-.049-.953-.049a3.8,3.8,0,0,0-3.938,3.741V436.5h-.782V424.272l.782.1V426.2a4.68,4.68,0,0,1,3.938-2.079,5.052,5.052,0,0,1,1.051.049Z" transform="translate(-1275.524 -424.122)" fill="#222"/>
        </g>
        <g id="Groupe_137" data-name="Groupe 137" transform="translate(113.92 1.223)">
          <path id="Tracé_965" data-name="Tracé 965" d="M1296.813,433.238h-.782v-3.057a6.31,6.31,0,1,1,0-6.114v-7.948h.782Zm-6.285-.611A5.515,5.515,0,1,0,1285,427.1,5.485,5.485,0,0,0,1290.528,432.627Z" transform="translate(-1284.194 -416.119)" fill="#222"/>
        </g>
        <g id="Groupe_138" data-name="Groupe 138" transform="translate(128.423 5.918)">
          <path id="Tracé_966" data-name="Tracé 966" d="M1321.3,436.47h-.782v-3.057a6.31,6.31,0,1,1,0-6.114v-3.057h.782Zm-6.285-.611a5.515,5.515,0,1,0-5.527-5.527A5.485,5.485,0,0,0,1315.012,435.858Z" transform="translate(-1308.678 -424.046)" fill="#222"/>
        </g>
        <g id="Groupe_139" data-name="Groupe 139" transform="translate(143.415 5.918)">
          <path id="Tracé_967" data-name="Tracé 967" d="M1333.987,424.241l.782.025v1.907a4.715,4.715,0,0,1,8.657,2.544v7.752h-.782v-7.8a3.939,3.939,0,0,0-7.875-.049v7.851h-.782Z" transform="translate(-1333.987 -424.046)" fill="#222"/>
        </g>
        <g id="Groupe_140" data-name="Groupe 140" transform="translate(153.271 2.69)">
          <path id="Tracé_968" data-name="Tracé 968" d="M1354.074,434.248V422.8h-3.449v-.783h3.449V418.6h.782v3.424h3.424v.783h-3.424v11.446Z" transform="translate(-1350.625 -418.596)" fill="#222"/>
        </g>
      </g>
      <g id="Groupe_146" data-name="Groupe 146" transform="translate(348.923 6995.741)">
        <g id="Groupe_143" data-name="Groupe 143" transform="translate(0 2.62)">
          <g id="Groupe_142" data-name="Groupe 142">
            <path id="Tracé_969" data-name="Tracé 969" d="M1226.793,334.467a5.621,5.621,0,0,0-4.846,5.532V354.25a1.244,1.244,0,0,1-1.275,1.211h0a1.244,1.244,0,0,1-1.275-1.211V351.3l-9.474-20.008a1.408,1.408,0,0,1-.048-1.089l5.325-14.426a.727.727,0,0,0,0-.5l-1.027-2.79a.245.245,0,0,0-.461,0l-6.749,18.283,9.883,20.954v2.531a1.244,1.244,0,0,1-1.275,1.211h-.637a1.244,1.244,0,0,1-1.275-1.211v-2.519l1.1-2.168-1.344-2.849-2.229,4.363-.084.209v2.965a1.244,1.244,0,0,1-1.275,1.211h0a1.244,1.244,0,0,1-1.275-1.211V339.824a5.712,5.712,0,0,0-11.411.031,5.465,5.465,0,0,0,3.939,5.121,1.373,1.373,0,0,0,1.689-.705,1.2,1.2,0,0,0-.793-1.566,3.162,3.162,0,0,1-2.262-2.519,3.147,3.147,0,1,1,6.287-.244v16.478h.034c.345,6.808,4.332,10.643,9.212,10.643s8.868-3.836,9.212-10.643h.034v-16.6a3.122,3.122,0,0,1,3.833-2.929,3.07,3.07,0,0,1,2.406,2.279,2.994,2.994,0,0,1-2.207,3.527,1.159,1.159,0,0,0-.875,1.1v.031a1.27,1.27,0,0,0,1.638,1.176,5.472,5.472,0,0,0,4.067-5.19A5.623,5.623,0,0,0,1226.793,334.467Z" transform="translate(-1197.145 -312.321)" fill="#222"/>
          </g>
        </g>
        <g id="Groupe_145" data-name="Groupe 145" transform="translate(17.216)">
          <g id="Groupe_144" data-name="Groupe 144">
            <path id="Tracé_970" data-name="Tracé 970" d="M1233.17,329.433l-5.3,10.376,1.344,2.838,6.761-13.269.167-.416-7.457-20.257a1.3,1.3,0,0,0-1.63-.735h0a1.2,1.2,0,0,0-.774,1.547l6.949,18.888A1.289,1.289,0,0,1,1233.17,329.433Z" transform="translate(-1226.209 -307.898)" fill="#222"/>
          </g>
        </g>
      </g>
    </g>
  </g>
</svg>
