<svg height="132" viewBox="0 0 291 132" width="291" xmlns="http://www.w3.org/2000/svg" xmlns:xlink="http://www.w3.org/1999/xlink"><linearGradient id="a" gradientUnits="objectBoundingBox" x1=".5" x2=".5" y1=".021" y2=".973"><stop offset="0"/><stop offset="1"/></linearGradient><linearGradient id="b" gradientUnits="objectBoundingBox" x1=".343" x2=".657" y1=".436" y2=".565"><stop offset=".001" stop-color="#50ebc5"/><stop offset="1" stop-color="#24b6da"/></linearGradient><linearGradient id="c" x1=".337" x2=".656" xlink:href="#b" y1=".428" y2=".557"/><linearGradient id="d" gradientUnits="objectBoundingBox" x1=".267" x2=".625" y1=".385" y2=".794"><stop offset="0" stop-color="#fff" stop-opacity="0"/><stop offset="1"/></linearGradient><linearGradient id="e" x1=".062" x2=".928" xlink:href="#d" y1=".789" y2=".032"/><linearGradient id="f" x1=".735" x2=".185" xlink:href="#d" y1=".265" y2=".873"/><path d="m0 0h291v132h-291z" fill="#d0d0d0" opacity=".001"/><path d="m551.872 82.054 1.177 3.627c-2.271.783-3.208 1.256-5.022 2-1.49-5.057-6.56-8.8-12.592-8.8a13.8 13.8 0 0 0 -8.375 2.784l-.024.025-1.31 1.156-3.737 3.317-4.049-3.6a13.667 13.667 0 0 0 -8.361-3.64c-.209-.02-.638-.039-1.071-.039-7.173 0-13.024 5.319-13.024 11.843s5.851 11.855 13.024 11.855a13.569 13.569 0 0 0 9.78-4.026l3.665-3.256 4.265 3.791.252.223a13.713 13.713 0 0 0 8.963 3.268 13.576 13.576 0 0 0 9.612-3.865 12 12 0 0 0 1.586-1.938c.1-.174.2-.348.312-.509a9.164 9.164 0 0 1 3-2.921 21.533 21.533 0 0 1 3.917-1.8 8.9 8.9 0 0 1 .973-.311l1.226 3.794 9.616-10.1zm-39.325 12.487a6.174 6.174 0 0 1 -4.037 1.479 5.317 5.317 0 1 1 0-10.588 6.114 6.114 0 0 1 4.169 1.6l4.157 3.7zm22.889 1.479a6.146 6.146 0 0 1 -3.953-1.417l-.156-.137-4.205-3.74 4.133-3.678a6.1 6.1 0 0 1 4.181-1.616 5.317 5.317 0 1 1 0 10.588z" fill="url(#a)" transform="translate(-379.399 -41.883)"/><path d="m533.185 90.81a5.072 5.072 0 0 1 -.769.983 1.572 1.572 0 0 1 -.24.248c.072-.087.144-.186.216-.273a12.418 12.418 0 0 1 .793-.958z" fill="url(#b)" transform="translate(-372.006 -39.48)"/><path d="m532.356 91.768a12.39 12.39 0 0 1 .793-.958 5.07 5.07 0 0 1 -.769.983z" fill="url(#c)" transform="translate(-371.97 -39.48)"/><path d="m540.491 86.9a20.959 20.959 0 0 0 -7.449 5.529 4.921 4.921 0 0 0 .673-2.485 4.858 4.858 0 0 0 -.829-2.721 7.514 7.514 0 0 1 5.371-4.437 11.281 11.281 0 0 1 2.234 4.114z" fill="url(#d)" opacity=".38" transform="translate(-371.863 -41.097)"/><path d="m519.358 93.313-3.665 3.256a13.193 13.193 0 0 1 -6.68 3.678c-.336-.919-.613-1.7-.613-1.764 0-.113-.036-3.144-.024-4.959a5.558 5.558 0 0 0 1.574-.97l4.265-3.79a.035.035 0 0 1 .024-.013z" fill="url(#e)" opacity=".38" transform="translate(-376.803 -39.895)"/><path d="m528.684 85.546a5.787 5.787 0 0 0 -1.874 1.18l-4.133 3.679-5.13-4.561 3.737-3.317 1.31-1.156.024-.025a12.9 12.9 0 0 1 1.274-.858c.973.485 1.862.97 1.982 1.056.202.162 2.041 2.797 2.81 4.002z" fill="url(#f)" opacity=".38" transform="translate(-374.954 -41.56)"/><g stroke="#000"><path d="m661.191 462.878a8.939 8.939 0 0 1 -.432 2.978 5.455 5.455 0 0 1 -1.2 2.008 5.262 5.262 0 0 1 -1.851 1.233 11.292 11.292 0 0 1 -2.39.65 17.453 17.453 0 0 1 -2.794.213h-8.782v5.251a3.3 3.3 0 0 1 -.144 1.013.586.586 0 0 1 -.6.455.684.684 0 0 1 -.719-.432 2.873 2.873 0 0 1 -.163-1.024v-19.164a1.5 1.5 0 0 1 .047-.429.334.334 0 0 1 .163-.2.682.682 0 0 1 .3-.058h10.136a12.684 12.684 0 0 1 2.852.3 10.261 10.261 0 0 1 2.341.825 5.5 5.5 0 0 1 1.757 1.388 6.051 6.051 0 0 1 1.1 2.084 9.808 9.808 0 0 1 .379 2.909zm-1.633.028a7.5 7.5 0 0 0 -.6-3.249 4.346 4.346 0 0 0 -1.843-1.941 8.647 8.647 0 0 0 -3.14-.933 36.18 36.18 0 0 0 -4.509-.241h-5.722v12.266h5.722q2.609 0 4.519-.163a8.93 8.93 0 0 0 3.149-.771 3.917 3.917 0 0 0 1.833-1.778 7.135 7.135 0 0 0 .591-3.19z" transform="translate(-558.11 -382.554)"/><path d="m658.564 457.3a1.024 1.024 0 0 1 .288-.739.972.972 0 0 1 .731-.3 1.039 1.039 0 0 1 .749.3.99.99 0 0 1 .306.739.9.9 0 0 1 -.306.71 1.107 1.107 0 0 1 -.749.268 1.032 1.032 0 0 1 -.731-.268.927.927 0 0 1 -.288-.71zm1.785 17.833c0 .166-.007.322-.018.469a1.353 1.353 0 0 1 -.087.385.545.545 0 0 1 -.221.259.833.833 0 0 1 -.44.1q-.54 0-.653-.328a2.692 2.692 0 0 1 -.116-.881v-12.337a2.261 2.261 0 0 1 .136-.825q.133-.347.671-.346a.564.564 0 0 1 .6.346 2.308 2.308 0 0 1 .125.786z" transform="translate(-551.797 -382.214)"/><path d="m666.021 475.356a2.982 2.982 0 0 1 -.133.949.579.579 0 0 1 -.616.394.767.767 0 0 1 -.44-.107.637.637 0 0 1 -.231-.288 1.324 1.324 0 0 1 -.1-.412c-.013-.154-.019-.32-.019-.5v-18.692c0-.192.007-.371.019-.537a1.242 1.242 0 0 1 .105-.433.732.732 0 0 1 .25-.3.763.763 0 0 1 .451-.116.577.577 0 0 1 .374.116.709.709 0 0 1 .22.306 1.421 1.421 0 0 1 .1.433c.014.159.018.322.018.488z" transform="translate(-549.524 -382.575)"/><path d="m679.051 475.145a16.25 16.25 0 0 1 -4.472-.529 7.644 7.644 0 0 1 -2.947-1.505 5.6 5.6 0 0 1 -1.622-2.38 9.4 9.4 0 0 1 -.5-3.167 9.579 9.579 0 0 1 .566-3.486 5.607 5.607 0 0 1 1.746-2.388 7.655 7.655 0 0 1 2.976-1.382 20.63 20.63 0 0 1 8.5 0 7.635 7.635 0 0 1 2.976 1.382 5.586 5.586 0 0 1 1.746 2.388 9.578 9.578 0 0 1 .567 3.486 9.428 9.428 0 0 1 -.5 3.167 5.613 5.613 0 0 1 -1.623 2.38 7.648 7.648 0 0 1 -2.946 1.505 16.25 16.25 0 0 1 -4.467.529zm0-1.132a15.225 15.225 0 0 0 3.014-.26 8.31 8.31 0 0 0 2.159-.72 4.921 4.921 0 0 0 1.441-1.074 5.049 5.049 0 0 0 .863-1.334 5.619 5.619 0 0 0 .423-1.5 11.788 11.788 0 0 0 .105-1.564 8.8 8.8 0 0 0 -.461-3.034 4.6 4.6 0 0 0 -1.44-2.034 6.144 6.144 0 0 0 -2.5-1.141 18.526 18.526 0 0 0 -7.226 0 6.146 6.146 0 0 0 -2.487 1.141 4.6 4.6 0 0 0 -1.439 2.034 8.77 8.77 0 0 0 -.461 3.034 11.565 11.565 0 0 0 .105 1.564 5.567 5.567 0 0 0 .422 1.5 5.086 5.086 0 0 0 .865 1.334 4.931 4.931 0 0 0 1.439 1.074 8.325 8.325 0 0 0 2.159.72 15.229 15.229 0 0 0 3.019.26z" transform="translate(-547.596 -380.83)"/><path d="m721.008 455.214a2.565 2.565 0 0 0 -.738.783l-11.47 17.241-11.476-17.251a2.78 2.78 0 0 0 -.749-.772 1.335 1.335 0 0 0 -1.857.216 1.652 1.652 0 0 0 -.354 1.064v19.005a3.507 3.507 0 0 0 .161 1.117 1.127 1.127 0 0 0 1.184.746 1.139 1.139 0 0 0 1.122-.715 3 3 0 0 0 .2-1.147v-15.357l10.389 15.33a1.51 1.51 0 0 0 2.748.01l10.4-15.34v15.356a2.979 2.979 0 0 0 .2 1.147 1.275 1.275 0 0 0 2.305-.03 3.532 3.532 0 0 0 .162-1.117v-19a1.649 1.649 0 0 0 -.357-1.065 1.363 1.363 0 0 0 -1.87-.221z" transform="translate(-538.06 -382.719)"/><path d="m736 467.737a3.443 3.443 0 0 0 .183-.588 5.736 5.736 0 0 0 .115-.668 5.4 5.4 0 0 0 .043-.65 5.609 5.609 0 0 0 -2.192-4.727c-1.411-1.07-3.527-1.613-6.293-1.613a17.681 17.681 0 0 0 -3.729.376 8.311 8.311 0 0 0 -3.113 1.344 6.7 6.7 0 0 0 -2.11 2.567 9.083 9.083 0 0 0 -.762 3.931 10.759 10.759 0 0 0 .466 3.227 6.421 6.421 0 0 0 1.544 2.606 7.111 7.111 0 0 0 2.729 1.681 11.823 11.823 0 0 0 3.957.587 21.178 21.178 0 0 0 3.78-.3 17.894 17.894 0 0 0 2.689-.684 8.421 8.421 0 0 0 1.731-.793 4.482 4.482 0 0 0 .757-.548.922.922 0 0 0 .412-.771 1.146 1.146 0 0 0 -.317-.779 1.032 1.032 0 0 0 -.779-.372.986.986 0 0 0 -.317.064l-.123.061c-.223.148-.533.332-.935.555a9.076 9.076 0 0 1 -1.515.632 15.232 15.232 0 0 1 -2.264.537 18.733 18.733 0 0 1 -3.1.224 10.031 10.031 0 0 1 -2.719-.329 4.581 4.581 0 0 1 -1.854-1 4.349 4.349 0 0 1 -1.129-1.778 8.439 8.439 0 0 1 -.419-2.286h14.626a.707.707 0 0 0 .638-.506zm-14.707-3.311a4.17 4.17 0 0 1 1.341-1.564 6.011 6.011 0 0 1 2.168-.906 14.173 14.173 0 0 1 3.054-.295 11.624 11.624 0 0 1 3.066.346 5.5 5.5 0 0 1 1.93.906 3.215 3.215 0 0 1 1 1.27 4.122 4.122 0 0 1 .314 1.6v.518h-13.386a5.579 5.579 0 0 1 .515-1.875z" transform="translate(-528.936 -380.974)"/><path d="m694.033 462.081a.592.592 0 0 0 -.433-.144h-4.119v-4.779c0-.41-.075-.67-.221-.778a.9.9 0 0 0 -.548-.163.928.928 0 0 0 -.517.163c-.166.108-.251.368-.251.778v4.779h-1.3a.526.526 0 0 0 -.4.144.441.441 0 0 0 0 .634.526.526 0 0 0 .4.144h1.3v8.141 4.415c0 .41.075.668.221.776a.883.883 0 0 0 .548.165.926.926 0 0 0 .518-.165q.249-.162.249-.776v-4.779-7.775h4.12a.592.592 0 0 0 .433-.144.424.424 0 0 0 0-.634z" transform="translate(-541.23 -382.229)"/></g></svg>