<svg xmlns="http://www.w3.org/2000/svg" xmlns:xlink="http://www.w3.org/1999/xlink" width="291" height="132" viewBox="0 0 291 132">
  <defs>
    <clipPath id="clip-path">
      <rect id="Rectangle_1" data-name="Rectangle 1" width="184.273" height="63.351" transform="translate(0 0)"/>
    </clipPath>
  </defs>
  <g id="Groupe_986" data-name="Groupe 986" transform="translate(-6653 -2747)">
    <rect id="Rectangle_64" data-name="Rectangle 64" width="291" height="132" transform="translate(6653 2747)" fill="#d0d0d0" opacity="0"/>
    <g id="Groupe_985" data-name="Groupe 985" transform="translate(6706.363 2781.405)">
      <g id="Groupe_1" data-name="Groupe 1" transform="translate(0 0)" clip-path="url(#clip-path)">
        <path id="Tracé_1" data-name="Tracé 1" d="M11.378,36.283c4.622,0,8.059-2.331,8.059-6.322v-.079c0-3.713-2.923-6.044-7.941-6.044H2.055V36.283ZM0,22.969a1.046,1.046,0,0,1,1.027-1.027H11.615A10.893,10.893,0,0,1,19.4,24.668,7.292,7.292,0,0,1,21.492,29.8v.078c0,4.623-3.437,7.27-8.1,7.9l7.862,10.193a1.145,1.145,0,0,1,.316.711A1.116,1.116,0,0,1,20.5,49.755,1.137,1.137,0,0,1,19.6,49.2L11.1,38.14H2.055V48.727a1.047,1.047,0,0,1-1.028,1.028A1.046,1.046,0,0,1,0,48.727Z" transform="translate(0 -8.969)"/>
        <path id="Tracé_2" data-name="Tracé 2" d="M48.3,48.569v-25.6a1.046,1.046,0,0,1,1.027-1.027H67.188a.948.948,0,1,1,0,1.9H50.359V34.7H65.41a.948.948,0,1,1,0,1.9H50.359V47.7H67.386a.948.948,0,1,1,0,1.9H49.331A1.046,1.046,0,0,1,48.3,48.569" transform="translate(-19.744 -8.969)"/>
        <path id="Tracé_3" data-name="Tracé 3" d="M236.431,22.7a1.027,1.027,0,0,1,2.055,0v24.89h15.447a.948.948,0,0,1,0,1.9H237.458a1.046,1.046,0,0,1-1.027-1.028Z" transform="translate(-96.639 -8.859)"/>
        <path id="Tracé_4" data-name="Tracé 4" d="M277.786,48.569v-25.6a1.046,1.046,0,0,1,1.027-1.027H296.67a.948.948,0,1,1,0,1.9h-16.83V34.7h15.052a.948.948,0,0,1,0,1.9H279.841V47.7h17.027a.948.948,0,1,1,0,1.9H278.813a1.046,1.046,0,0,1-1.027-1.027" transform="translate(-113.543 -8.969)"/>
        <path id="Tracé_5" data-name="Tracé 5" d="M110.868,47.536a12.287,12.287,0,1,1,4.23-23.81l.878-1.841a14.308,14.308,0,1,0,9.159,14.375H123.1a12.281,12.281,0,0,1-12.236,11.276" transform="translate(-39.468 -8.56)"/>
        <path id="Tracé_6" data-name="Tracé 6" d="M189.03,47.536a12.287,12.287,0,1,1,4.229-23.81l.878-1.841A14.308,14.308,0,1,0,203.3,36.259h-2.031A12.282,12.282,0,0,1,189.03,47.536" transform="translate(-71.417 -8.56)"/>
        <path id="Tracé_7" data-name="Tracé 7" d="M164.276.489A10.536,10.536,0,0,0,161.562,0h-6.623a1.01,1.01,0,0,0-.908,1.452l2.523,5.176.581,1.021-.806,1.234L146.215,24.769,136.673,8.884h0l-1.214-2.02L133.44,3.5h4.092a1.01,1.01,0,0,0,0-2.02h-8.793a1.01,1.01,0,1,0,0,2.02h2.344l2.659,4.427-.008.018,1.25,2.08.008-.017,9.414,15.671h-.016l.686,1.141V39.955A1.044,1.044,0,0,0,146.116,41h.236a1.044,1.044,0,0,0,1.041-1.041V26.68l9.682-15.208v0l2.308-3.65-2.827-5.8h4.96c.218.011,3.855.221,3.855,2.085a6.41,6.41,0,0,1-.3,2.464c-.059.1-.182.294-1.109.294a1.01,1.01,0,0,0,0,2.02,3.038,3.038,0,0,0,2.827-1.253,6.82,6.82,0,0,0,.605-3.526c0-2.243-1.951-3.228-3.114-3.616" transform="translate(-52.208 0)"/>
        <path id="Tracé_8" data-name="Tracé 8" d="M121.2,44.142A1.444,1.444,0,1,1,119.76,42.7a1.443,1.443,0,0,1,1.443,1.443" transform="translate(-48.361 -17.453)"/>
        <path id="Tracé_9" data-name="Tracé 9" d="M199.366,44.142a1.444,1.444,0,1,1-1.443-1.443,1.443,1.443,0,0,1,1.443,1.443" transform="translate(-80.309 -17.453)"/>
        <path id="Tracé_10" data-name="Tracé 10" d="M114.685,39.4l-10.913-7.936.174-.239,8.96,6.516-7.116-8.477.226-.19Z" transform="translate(-42.416 -11.884)"/>
        <path id="Tracé_11" data-name="Tracé 11" d="M119.075,56.541l-.294-.025,1.172-13.433,2.1,13.328-.292.046-1.728-10.943Z" transform="translate(-48.55 -17.61)"/>
        <path id="Tracé_12" data-name="Tracé 12" d="M197.543,37.974l-2.1-13.328.293-.046,1.728,10.944.962-11.027.294.025Z" transform="translate(-79.883 -10.021)"/>
        <path id="Tracé_13" data-name="Tracé 13" d="M185.331,54.709l-.239-.174,6.516-8.96-8.477,7.117-.19-.226L193.267,43.8Z" transform="translate(-74.775 -17.901)"/>
        <path id="Tracé_14" data-name="Tracé 14" d="M73.442,95.524V89.493c0-2.021,1.026-3.128,2.678-3.128a2.453,2.453,0,0,1,2.567,2.422c.016.145-.016.289-.208.289H77.8c-.176,0-.241-.048-.273-.209a1.466,1.466,0,0,0-1.4-1.363c-.818,0-1.476.642-1.476,1.989v6.031c0,1.347.657,1.989,1.476,1.989a1.466,1.466,0,0,0,1.4-1.363c.032-.16.1-.209.273-.209h.674c.192,0,.224.144.208.289a2.454,2.454,0,0,1-2.567,2.422c-1.652,0-2.678-1.107-2.678-3.128" transform="translate(-30.019 -35.301)"/>
        <path id="Tracé_15" data-name="Tracé 15" d="M91.937,95.524V89.493c0-1.347-.658-1.989-1.46-1.989s-1.459.642-1.459,1.989v6.031c0,1.347.657,1.989,1.459,1.989s1.46-.642,1.46-1.989m-4.139,0V89.493c0-2.021,1.026-3.128,2.678-3.128,1.636,0,2.662,1.107,2.662,3.128v6.031c0,2.021-1.026,3.128-2.662,3.128-1.653,0-2.678-1.107-2.678-3.128" transform="translate(-35.887 -35.301)"/>
        <path id="Tracé_16" data-name="Tracé 16" d="M108.211,86.918V98.276c0,.24-.1.336-.337.336h-.417c-.241,0-.353-.08-.449-.336l-3.16-8.2c-.048-.128-.177-.1-.177.016v8.181c0,.24-.1.336-.336.336h-.546c-.24,0-.336-.1-.336-.336V86.918c0-.24.1-.336.336-.336h.417c.257,0,.353.08.449.336l3.16,8.2c.048.128.176.1.176-.016V86.918c0-.24.1-.336.338-.336h.545c.241,0,.337.1.337.336" transform="translate(-41.876 -35.39)"/>
        <path id="Tracé_17" data-name="Tracé 17" d="M117.811,95.524V89.493c0-2.021,1.026-3.128,2.679-3.128a2.454,2.454,0,0,1,2.567,2.422c.015.145-.016.289-.209.289h-.673c-.177,0-.241-.048-.273-.209a1.466,1.466,0,0,0-1.4-1.363c-.818,0-1.475.642-1.475,1.989v6.031c0,1.347.657,1.989,1.475,1.989a1.466,1.466,0,0,0,1.4-1.363c.033-.16.1-.209.273-.209h.673c.193,0,.225.144.209.289a2.454,2.454,0,0,1-2.567,2.422c-1.653,0-2.679-1.107-2.679-3.128" transform="translate(-48.154 -35.301)"/>
        <path id="Tracé_18" data-name="Tracé 18" d="M133.523,91.538c0,.241.064.305.305.305h2.358c.24,0,.336.1.336.337v.4c0,.241-.1.337-.336.337h-2.358c-.241,0-.305.064-.305.305v4.01c0,.241.064.3.305.3h2.358c.24,0,.336.1.336.337v.4c0,.24-.1.336-.336.336H132.64c-.241,0-.336-.1-.336-.336V86.918c0-.241.1-.337.336-.337h3.545c.24,0,.336.1.336.337v.4c0,.241-.1.337-.336.337h-2.358c-.241,0-.305.064-.305.3Z" transform="translate(-54.078 -35.389)"/>
        <path id="Tracé_19" data-name="Tracé 19" d="M147.463,92.934c.738,0,1.476-.561,1.476-1.893V89.55c0-1.332-.738-1.893-1.476-1.893h-.882c-.24,0-.3.064-.3.305v4.668c0,.24.064.3.3.3Zm-2.406,5.342V86.918c0-.24.1-.336.336-.336h2.134c1.524,0,2.615,1.059,2.615,3.015v1.412c0,1.957-1.091,3.031-2.615,3.031h-.947c-.24,0-.3.064-.3.305v3.93c0,.24-.1.336-.337.336h-.546c-.24,0-.336-.1-.336-.336" transform="translate(-59.291 -35.39)"/>
        <path id="Tracé_20" data-name="Tracé 20" d="M163.123,86.918v.4c0,.241-.1.336-.336.336h-1.364c-.24,0-.305.064-.305.305V98.276c0,.24-.1.336-.336.336h-.545c-.241,0-.337-.1-.337-.336V87.961c0-.241-.064-.305-.305-.305h-1.363c-.241,0-.337-.1-.337-.336v-.4c0-.24.1-.336.337-.336h4.556c.24,0,.336.1.336.336" transform="translate(-64.538 -35.39)"/>
        <path id="Tracé_21" data-name="Tracé 21" d="M182.947,98.652a2.8,2.8,0,0,1-2.856-2.695c0-.144.016-.289.208-.289h.642c.176,0,.273.064.289.225a1.79,1.79,0,0,0,1.732,1.668,1.617,1.617,0,0,0,1.621-1.7c.048-2.486-4.284-4.09-4.284-6.961a2.471,2.471,0,0,1,2.535-2.534,2.515,2.515,0,0,1,2.535,2.39c.015.16-.017.289-.209.289H184.5c-.177,0-.241-.048-.273-.209a1.45,1.45,0,0,0-1.363-1.363,1.336,1.336,0,0,0-1.347,1.4c.063,2.021,4.282,3.866,4.282,6.914a2.823,2.823,0,0,1-2.855,2.871" transform="translate(-73.611 -35.301)"/>
        <path id="Tracé_22" data-name="Tracé 22" d="M199.08,86.918v.4c0,.241-.1.336-.336.336h-1.364c-.24,0-.305.064-.305.305V98.276c0,.24-.1.336-.336.336h-.545c-.241,0-.337-.1-.337-.336V87.961c0-.241-.064-.305-.305-.305h-1.363c-.241,0-.338-.1-.338-.336v-.4c0-.24.1-.336.338-.336h4.556c.24,0,.336.1.336.336" transform="translate(-79.235 -35.39)"/>
        <path id="Tracé_23" data-name="Tracé 23" d="M211.693,95.524V89.493c0-1.347-.658-1.989-1.46-1.989s-1.459.642-1.459,1.989v6.031c0,1.347.657,1.989,1.459,1.989s1.46-.642,1.46-1.989m-4.139,0V89.493c0-2.021,1.026-3.128,2.679-3.128,1.637,0,2.663,1.107,2.663,3.128v6.031c0,2.021-1.026,3.128-2.663,3.128-1.653,0-2.679-1.107-2.679-3.128" transform="translate(-84.836 -35.301)"/>
        <path id="Tracé_24" data-name="Tracé 24" d="M223.733,92.629h.882c.737,0,1.475-.546,1.475-1.877v-1.2c0-1.332-.738-1.893-1.475-1.893h-.882c-.241,0-.305.064-.305.3v4.363c0,.24.064.305.305.305m3.833,5.983h-.689a.342.342,0,0,1-.369-.225l-1.8-4.652h-.978c-.241,0-.305.064-.305.305v4.235c0,.24-.1.336-.337.336h-.545c-.241,0-.338-.1-.338-.336V86.918c0-.241.1-.337.338-.337h2.133c1.524,0,2.615,1.059,2.615,3.016V90.72A2.848,2.848,0,0,1,225.85,93.5l1.893,4.8c.08.193,0,.321-.177.321" transform="translate(-90.826 -35.389)"/>
        <path id="Tracé_25" data-name="Tracé 25" d="M237.648,91.538c0,.241.064.305.305.305h2.357c.241,0,.337.1.337.337v.4c0,.241-.1.337-.337.337h-2.357c-.241,0-.305.064-.305.305v4.01c0,.241.064.3.305.3h2.357c.241,0,.337.1.337.337v.4c0,.24-.1.336-.337.336h-3.545c-.241,0-.338-.1-.338-.336V86.918c0-.241.1-.337.338-.337h3.545c.241,0,.337.1.337.337v.4c0,.241-.1.337-.337.337h-2.357c-.241,0-.305.064-.305.3Z" transform="translate(-96.638 -35.389)"/>
      </g>
    </g>
  </g>
</svg>
