<svg xmlns="http://www.w3.org/2000/svg" width="291" height="132" viewBox="0 0 291 132">
  <g id="Groupe_1007" data-name="Groupe 1007" transform="translate(-388 -2389)">
    <rect id="Rectangle_64" data-name="Rectangle 64" width="291" height="132" transform="translate(388 2389)" fill="#d0d0d0" opacity="0"/>
    <g id="Groupe_1006" data-name="Groupe 1006" transform="translate(-992.977 2352.613)">
      <path id="path120" d="M1511.2,91.126h1.379V73.657H1511.2Z" transform="translate(17.567 5.164)" fill="#1a1a1d"/>
      <path id="path126" d="M1489.9,110.973h1.379V93.657H1489.9Z" transform="translate(6.228 15.811)" fill="#1a1a1d"/>
      <path id="Tracé_890" data-name="Tracé 890" d="M1478.2,63.957v77.23h96.385V63.957Zm11.033,28.5h7.2v3.678h1.226V90.313l-3.831-.306-4.6-3.831V77.442l3.984-3.984h7.509l3.678,3.984v5.21h-6.742V78.821h-1.226v5.516l4.444.766,3.678,3.678v9.041l-3.831,3.218H1492.6l-3.524-3.371v-5.21Zm15.63,35.857-3.524,3.371h-8.275l-3.831-3.371V108.089l4.137-3.984h7.049l4.444,3.984v20.227Zm.613-54.858h6.9V96.289h1.532V73.458h7.049V97.669l-3.524,3.371H1509l-3.524-3.371V73.458Zm15.783,54.858-3.371,3.371h-8.428l-3.524-3.371V104.1h6.9v22.832h1.532V104.1h7.049v24.211Zm12.412-18.848h-4.6v5.057h3.831v5.363h-3.831v7.049h4.6v4.75h-11.493V104.1h11.493Zm-11.952-8.428V73.458h11.339l4.291,3.984V97.669l-3.371,3.371ZM1549.3,113.3h-6.742v-3.831h-1.226v5.516l4.444.766,3.677,3.678v9.041l-3.677,3.371h-8.121l-3.525-3.371v-5.21h7.2v3.678h1.226V120.96l-3.831-.306-4.6-3.831v-8.734l3.984-3.984h7.508l3.678,3.984Zm13.944-3.831h-3.218v22.219h-7.049V109.468h-3.371V104.1h13.638Z" fill="#1a1a1d"/>
    </g>
  </g>
</svg>
