<svg xmlns="http://www.w3.org/2000/svg" width="291" height="132" viewBox="0 0 291 132">
  <g id="Groupe_1005" data-name="Groupe 1005" transform="translate(-388 -2140)">
    <rect id="Rectangle_64" data-name="Rectangle 64" width="291" height="132" transform="translate(388 2140)" fill="#d0d0d0" opacity="0"/>
    <g id="Groupe_1004" data-name="Groupe 1004" transform="translate(-925.7 1629.37)">
      <path id="Tracé_2314" data-name="Tracé 2314" d="M1438.108,586.25l-8.9,18.091h-5.741l8.9-18.091h-8.592l1.733-3.71H1447.7l-1.733,3.71Z" transform="translate(-17.042 -11.597)"/>
      <path id="Tracé_2315" data-name="Tracé 2315" d="M1541.317,599.316a14.739,14.739,0,0,1-3.128,1.72s-1.117.521-1.6.014-.054-1.422-.054-1.422l4.692-9.851h-4.78l-.731,1.313c-2.79-2.451-8.043-1.185-11.293,2.214a10.523,10.523,0,0,0-3.081,6.3,14.107,14.107,0,0,1-2.573,1.341s-1.117.521-1.6.014-.041-1.422-.041-1.422l8.314-17.123h-4.766L1516.3,591c-2.789-2.451-8.043-1.185-11.293,2.214a12.951,12.951,0,0,0-1.672,2.173v-.014c-.034.061-.061.122-.095.183-.1.183-.2.345-.291.521-2.6,4.5-5.823,5.247-5.823,5.247-6.832,2.038-7.61-1.3-7.61-1.3,7.651-2.83,10.521-6.182,10.251-8.741s-3.778-2.695-3.778-2.695c-5.775-.352-10.786,3.7-12,7.651a7.466,7.466,0,0,0-.257,3.575,12.787,12.787,0,0,1-3.643,1.429c-1.93.609-2.167-.3-2.4-.86s-1.1-5.491-1.1-5.491l8.111-5.315h-4.963l-6.1,3.785c-1.368.569-.84-.873-.84-.873l4.983-10.081H1473l-8.077,16.365a33.69,33.69,0,0,1-4.144,2.173s-1.117.521-1.6.014-.054-1.422-.054-1.422l4.692-9.851h-4.78L1458.3,591c-2.79-2.451-8.037-1.185-11.287,2.214s-4.089,7.888-1.862,10.014c1.781,1.706,4.983,1.388,7.861-.548,0,0,.724-.623,1.117.108.406.758,2.052,2.478,5.843.975a27.059,27.059,0,0,0,3.243-1.537l-.989,2H1467l2.4-4.841,2.078-1.327s.636-.5.894.576a33.952,33.952,0,0,0,1.435,4.6c.4.528,1.2,1.733,4.557.772a58.928,58.928,0,0,0,6.236-2.194c1.124,1.55,3.284,2.6,6.832,2.6a16.6,16.6,0,0,0,10.5-3.805,4.121,4.121,0,0,0,1.219,2.62c1.774,1.706,4.976,1.388,7.854-.548,0,0,.724-.623,1.124.108.406.758,2.052,2.478,5.843.975a19.031,19.031,0,0,0,3.67-1.848,3.912,3.912,0,0,0,.921,1.408c1.787,1.693,4.99,1.381,7.861-.555,0,0,.724-.63,1.124.108.406.758,2.052,2.478,5.843.982s4.882-2.85,4.882-2.85Zm-86.061-1.1c-1.659,2.322-3.988,3.494-5.22,2.62s-.9-3.467.745-5.8,3.995-3.494,5.227-2.62S1456.907,595.883,1455.255,598.213Zm33.866-1.693a8.614,8.614,0,0,1,4.55-5.051s1-.332,1.53.1c0,0,.738.718-.149,2.038a11.149,11.149,0,0,1-4.766,4.042S1488.418,598.47,1489.122,596.52Zm24.13,1.693c-1.659,2.322-3.995,3.494-5.234,2.62-1.219-.88-.894-3.467.765-5.8s3.988-3.494,5.22-2.62S1514.9,595.883,1513.252,598.213Zm19.411.088c-1.652,2.322-3.981,3.494-5.22,2.62s-.894-3.466.758-5.8,3.988-3.5,5.22-2.62S1534.316,595.971,1532.664,598.3Z" transform="translate(-23.64 -11.555)"/>
      <path id="Tracé_2316" data-name="Tracé 2316" d="M1459.205,546.63c-57.841,0-88.505,41.037-88.505,41.037l12.573,8.5a61.6,61.6,0,0,1,5-9.255,13.872,13.872,0,0,0,.2,2.322c2.221,17.238,18.971,16.825,18.971,16.825h103.868s16.974.467,19.195-16.771a13.026,13.026,0,0,0,.183-2.241,61.45,61.45,0,0,1,4.922,9l12.559-8.4S1517.04,546.63,1459.205,546.63Zm68.729,42.4s-2.261,13.189-16.839,13.189H1407.4c-14.577,0-16.635-13.3-16.635-13.3-.555-3.534.129-5.958,1.219-7.624,10.494-13.826,31.267-32.377,67.171-32.377,36.216,0,57.157,18.829,67.652,32.641C1528.022,583.1,1528.475,585.608,1527.934,589.028Z"/>
      <path id="Tracé_2317" data-name="Tracé 2317" d="M1438.108,586.25l-8.9,18.091h-5.741l8.9-18.091h-8.592l1.733-3.71H1447.7l-1.733,3.71Z" transform="translate(-17.042 -11.597)"/>
      <path id="Tracé_2318" data-name="Tracé 2318" d="M1541.317,599.316a14.739,14.739,0,0,1-3.128,1.72s-1.117.521-1.6.014-.054-1.422-.054-1.422l4.692-9.851h-4.78l-.731,1.313c-2.79-2.451-8.043-1.185-11.293,2.214a10.523,10.523,0,0,0-3.081,6.3,14.107,14.107,0,0,1-2.573,1.341s-1.117.521-1.6.014-.041-1.422-.041-1.422l8.314-17.123h-4.766L1516.3,591c-2.789-2.451-8.043-1.185-11.293,2.214a12.951,12.951,0,0,0-1.672,2.173v-.014c-.034.061-.061.122-.095.183-.1.183-.2.345-.291.521-2.6,4.5-5.823,5.247-5.823,5.247-6.832,2.038-7.61-1.3-7.61-1.3,7.651-2.83,10.521-6.182,10.251-8.741s-3.778-2.695-3.778-2.695c-5.775-.352-10.786,3.7-12,7.651a7.466,7.466,0,0,0-.257,3.575,12.787,12.787,0,0,1-3.643,1.429c-1.93.609-2.167-.3-2.4-.86s-1.1-5.491-1.1-5.491l8.111-5.315h-4.963l-6.1,3.785c-1.368.569-.84-.873-.84-.873l4.983-10.081H1473l-8.077,16.365a33.69,33.69,0,0,1-4.144,2.173s-1.117.521-1.6.014-.054-1.422-.054-1.422l4.692-9.851h-4.78L1458.3,591c-2.79-2.451-8.037-1.185-11.287,2.214s-4.089,7.888-1.862,10.014c1.781,1.706,4.983,1.388,7.861-.548,0,0,.724-.623,1.117.108.406.758,2.052,2.478,5.843.975a27.059,27.059,0,0,0,3.243-1.537l-.989,2H1467l2.4-4.841,2.078-1.327s.636-.5.894.576a33.952,33.952,0,0,0,1.435,4.6c.4.528,1.2,1.733,4.557.772a58.928,58.928,0,0,0,6.236-2.194c1.124,1.55,3.284,2.6,6.832,2.6a16.6,16.6,0,0,0,10.5-3.805,4.121,4.121,0,0,0,1.219,2.62c1.774,1.706,4.976,1.388,7.854-.548,0,0,.724-.623,1.124.108.406.758,2.052,2.478,5.843.975a19.031,19.031,0,0,0,3.67-1.848,3.912,3.912,0,0,0,.921,1.408c1.787,1.693,4.99,1.381,7.861-.555,0,0,.724-.63,1.124.108.406.758,2.052,2.478,5.843.982s4.882-2.85,4.882-2.85Zm-86.061-1.1c-1.659,2.322-3.988,3.494-5.22,2.62s-.9-3.467.745-5.8,3.995-3.494,5.227-2.62S1456.907,595.883,1455.255,598.213Zm33.866-1.693a8.614,8.614,0,0,1,4.55-5.051s1-.332,1.53.1c0,0,.738.718-.149,2.038a11.149,11.149,0,0,1-4.766,4.042S1488.418,598.47,1489.122,596.52Zm24.13,1.693c-1.659,2.322-3.995,3.494-5.234,2.62-1.219-.88-.894-3.467.765-5.8s3.988-3.494,5.22-2.62S1514.9,595.883,1513.252,598.213Zm19.411.088c-1.652,2.322-3.981,3.494-5.22,2.62s-.894-3.466.758-5.8,3.988-3.5,5.22-2.62S1534.316,595.971,1532.664,598.3Z" transform="translate(-23.64 -11.555)"/>
      <path id="Tracé_2319" data-name="Tracé 2319" d="M1447.7,582.54l-1.733,3.71h-7.854l-8.9,18.091h-5.741l8.9-18.091h-8.592l1.733-3.71Z" transform="translate(-17.042 -11.597)"/>
      <path id="Tracé_2320" data-name="Tracé 2320" d="M1541.317,599.316a14.739,14.739,0,0,1-3.128,1.72s-1.117.521-1.6.014-.054-1.422-.054-1.422l4.692-9.851h-4.78l-.731,1.313c-2.79-2.451-8.043-1.185-11.293,2.214a10.523,10.523,0,0,0-3.081,6.3,14.107,14.107,0,0,1-2.573,1.341s-1.117.521-1.6.014-.041-1.422-.041-1.422l8.314-17.123h-4.766L1516.3,591c-2.789-2.451-8.043-1.185-11.293,2.214a12.951,12.951,0,0,0-1.672,2.173v-.014c-.034.061-.061.122-.095.183-.1.183-.2.345-.291.521-2.6,4.5-5.823,5.247-5.823,5.247-6.832,2.038-7.61-1.3-7.61-1.3,7.651-2.83,10.521-6.182,10.251-8.741s-3.778-2.695-3.778-2.695c-5.775-.352-10.786,3.7-12,7.651a7.466,7.466,0,0,0-.257,3.575,12.787,12.787,0,0,1-3.643,1.429c-1.93.609-2.167-.3-2.4-.86s-1.1-5.491-1.1-5.491l8.111-5.315h-4.963l-6.1,3.785c-1.368.569-.84-.873-.84-.873l4.983-10.081H1473l-8.077,16.365a33.69,33.69,0,0,1-4.144,2.173s-1.117.521-1.6.014-.054-1.422-.054-1.422l4.692-9.851h-4.78L1458.3,591c-2.79-2.451-8.037-1.185-11.287,2.214s-4.089,7.888-1.862,10.014c1.781,1.706,4.983,1.388,7.861-.548,0,0,.724-.623,1.117.108.406.758,2.052,2.478,5.843.975a27.059,27.059,0,0,0,3.243-1.537l-.989,2H1467l2.4-4.841,2.078-1.327s.636-.5.894.576a33.952,33.952,0,0,0,1.435,4.6c.4.528,1.2,1.733,4.557.772a58.928,58.928,0,0,0,6.236-2.194c1.124,1.55,3.284,2.6,6.832,2.6a16.6,16.6,0,0,0,10.5-3.805,4.121,4.121,0,0,0,1.219,2.62c1.774,1.706,4.976,1.388,7.854-.548,0,0,.724-.623,1.124.108.406.758,2.052,2.478,5.843.975a19.031,19.031,0,0,0,3.67-1.848,3.912,3.912,0,0,0,.921,1.408c1.787,1.693,4.99,1.381,7.861-.555,0,0,.724-.63,1.124.108.406.758,2.052,2.478,5.843.982s4.882-2.85,4.882-2.85Zm-86.061-1.1c-1.659,2.322-3.988,3.494-5.22,2.62s-.9-3.467.745-5.8,3.995-3.494,5.227-2.62S1456.907,595.883,1455.255,598.213Zm33.866-1.693a8.614,8.614,0,0,1,4.55-5.051s1-.332,1.53.1c0,0,.738.718-.149,2.038a11.149,11.149,0,0,1-4.766,4.042S1488.418,598.47,1489.122,596.52Zm24.13,1.693c-1.659,2.322-3.995,3.494-5.234,2.62-1.219-.88-.894-3.467.765-5.8s3.988-3.494,5.22-2.62S1514.9,595.883,1513.252,598.213Zm19.411.088c-1.652,2.322-3.981,3.494-5.22,2.62s-.894-3.466.758-5.8,3.988-3.5,5.22-2.62S1534.316,595.971,1532.664,598.3Z" transform="translate(-23.64 -11.555)"/>
    </g>
  </g>
</svg>
