<svg xmlns="http://www.w3.org/2000/svg" width="291" height="132" viewBox="0 0 291 132">
  <g id="Groupe_177" data-name="Groupe 177" transform="translate(3604 -9148)">
    <rect id="Rectangle_61" data-name="Rectangle 61" width="291" height="132" transform="translate(-3604 9148)" fill="rgba(255,255,255,0)"/>
    <g id="Logo-_quadrichrome" transform="translate(-3949 2777.1)">
      <g id="Groupe_75" transform="translate(410 6413.722)">
        <path id="Tracé_1" d="M73.8,22.6a15.6,15.6,0,0,1-1.5,6.7A10.387,10.387,0,0,1,68,33.8a12.787,12.787,0,0,1-6.7,1.6,8.662,8.662,0,0,1-3.2-.6A13.449,13.449,0,0,1,55,33.1l-1.3,1.7H50.4V2.4L57,0V11a10.3,10.3,0,0,1,4.5-1.1,11.743,11.743,0,0,1,8.9,3.4C72.7,15.6,73.8,18.7,73.8,22.6Zm-6.7,0a8.13,8.13,0,0,0-1.5-5.2,5.024,5.024,0,0,0-4.2-2,7.363,7.363,0,0,0-4.3,1.4V28.3a7.6,7.6,0,0,0,4.3,1.4,5.024,5.024,0,0,0,4.2-2,8.094,8.094,0,0,0,1.5-5.1Z" fill="#141414"/>
        <path id="Tracé_2" d="M85.9,15.1a14.873,14.873,0,0,0-3.6.5,19.3,19.3,0,0,0-3.4,1.1l-1.5-4.5a15.572,15.572,0,0,1,4.1-1.5A23.376,23.376,0,0,1,86,10a13.587,13.587,0,0,1,5.3,1.1,9.1,9.1,0,0,1,3.8,3.2,8.555,8.555,0,0,1,1.4,4.6v16H92.3l-1.1-2.6a8.992,8.992,0,0,1-6.4,3.2q-4.35,0-6.6-2.1A7.6,7.6,0,0,1,76,27.7,6.925,6.925,0,0,1,78.5,22a10.608,10.608,0,0,1,6.7-2H90a6.4,6.4,0,0,0-1.3-3.7A3.075,3.075,0,0,0,85.9,15.1Zm-.7,9.1a3.541,3.541,0,0,0-2.6,1,3.492,3.492,0,0,0-1,2.4,2.463,2.463,0,0,0,.9,1.9,3.008,3.008,0,0,0,2.2.8,7.928,7.928,0,0,0,5.4-2.4V24.2Z" fill="#141414"/>
        <path id="Tracé_3" d="M35.8,15.1a14.873,14.873,0,0,0-3.6.5,19.3,19.3,0,0,0-3.4,1.1l-1.5-4.5a15.572,15.572,0,0,1,4.1-1.5,23.376,23.376,0,0,1,4.5-.7,13.587,13.587,0,0,1,5.3,1.1A9.1,9.1,0,0,1,45,14.3a8.555,8.555,0,0,1,1.4,4.6v16H42.2l-1.1-2.6a8.992,8.992,0,0,1-6.4,3.2q-4.35,0-6.6-2.1a7.6,7.6,0,0,1-2.2-5.7A6.925,6.925,0,0,1,28.4,22a10.608,10.608,0,0,1,6.7-2h4.7a6.4,6.4,0,0,0-1.3-3.7A2.905,2.905,0,0,0,35.8,15.1Zm-.7,9.1a3.541,3.541,0,0,0-2.6,1,3.492,3.492,0,0,0-1,2.4,2.463,2.463,0,0,0,.9,1.9,3.008,3.008,0,0,0,2.2.8A7.928,7.928,0,0,0,40,27.9V24.2Z" fill="#141414"/>
        <path id="Tracé_4" d="M127.4,10l-1.2,5.1L123.8,24,120.1,9.9h-7.3l-3.6,14.5L105.6,9.9H98.5l7.7,24.9h5.7l4.5-15.3,4.7,15.3h5.6L134.6,10Z" fill="#141414"/>
        <path id="Tracé_5" d="M25.2,9.9,15.4,34.7V47.1H9.6V34.8L0,9.9H7.2L12.7,25,18.2,9.9Z" fill="#141414"/>
        <path id="Tracé_6" d="M140,10h-2.8v5.2H140V34.9h6.6V15.1h5.7l-1.2-5.2h-4.5V0L140,2.4Z" fill="#141414"/>
        <path id="Tracé_7" d="M135.9,16.9" fill="#141414"/>
      </g>
      <circle id="Ellipse_254" cx="4.1" cy="4.1" r="4.1" transform="translate(480.8 6412.9)" fill="#141414"/>
      <circle id="Ellipse_255" cx="4.1" cy="4.1" r="4.1" transform="translate(522.5 6451.7)" fill="#141414"/>
      <circle id="Ellipse_256" cx="4.1" cy="4.1" r="4.1" transform="translate(562.5 6413)" fill="#141414"/>
    </g>
  </g>
</svg>
