<svg xmlns="http://www.w3.org/2000/svg" width="291" height="132" viewBox="0 0 291 132">
  <g id="Groupe_1008" data-name="Groupe 1008" transform="translate(-388 -803)">
    <rect id="Rectangle_64" data-name="Rectangle 64" width="291" height="132" transform="translate(388 803)" fill="#d0d0d0" opacity="0"/>
    <g id="Groupe_195" data-name="Groupe 195" transform="translate(-1207.724 776.43)">
      <path id="Tracé_2321" data-name="Tracé 2321" d="M1742.48,93.38a1.606,1.606,0,0,0-.438.109.736.736,0,0,1-.153.022h-.033a.457.457,0,0,0-.317-.131c-.022,0-.044.011-.066.011h-.033c-.12.022-.241.044-.361.055a3.088,3.088,0,0,1-.317.022h-.109a2.2,2.2,0,0,1-.263.044.993.993,0,0,1-.252-.033.186.186,0,0,0-.077-.011,5.769,5.769,0,0,1-.744-.044c-.3-.022-.624-.044-.984-.044a.453.453,0,0,0-.175.033.326.326,0,0,0-.186.088.3.3,0,0,1-.1-.011.221.221,0,0,1-.12-.033c-.011,0-.033-.011-.044-.011a.617.617,0,0,0-.131-.044c-.044-.011-.1-.011-.142-.022h-.088a.011.011,0,0,1-.011.011.1.1,0,0,1-.1-.088v-.066a2.172,2.172,0,0,1-.033-.383,2.95,2.95,0,0,1,.033-.438v-.055c0-.35.011-.7.044-1.039.022-.372.044-.678.044-.93V83.8c0-.853,0-1.553.011-2.144a2.784,2.784,0,0,1,.427-1.444c0-.011.011-.022.011-.033.066-.055.131-.109.186-.164a.11.11,0,0,0,.044-.055,1.668,1.668,0,0,1,.6-.5,3,3,0,0,1,.853-.328h.033a3.557,3.557,0,0,1,.481-.033h.427a2.486,2.486,0,0,1,.919.361,4.182,4.182,0,0,1,.8.656,2.229,2.229,0,0,1,.525.974,4.064,4.064,0,0,1,.109,1.028,4.212,4.212,0,0,1-.033.525v.022c-.055.656-.087,1.28-.087,1.871v4.343a4.41,4.41,0,0,0,.044.547v.011a3.152,3.152,0,0,1,.076.711.818.818,0,0,1-.044.284,1.348,1.348,0,0,0-.077.459c0,.317,0,.634.022.952s.033.634.066.908C1742.72,92.746,1742.928,93.336,1742.48,93.38Z" transform="translate(3.783 2.842)" fill="#00422f"/>
      <path id="Tracé_2322" data-name="Tracé 2322" d="M1746.547,95.588c-.044-.273-.055-.58-.077-.908s-.022-.634-.022-.952a1.686,1.686,0,0,1,.077-.459.815.815,0,0,0,.044-.284,3.9,3.9,0,0,0-.066-.711v-.011a3,3,0,0,1-.055-.547V87.372c0-.591.033-1.214.087-1.871V85.48a4.212,4.212,0,0,0,.033-.525,3.624,3.624,0,0,0-.109-1.028,2.123,2.123,0,0,0-.525-.974,4.186,4.186,0,0,0-.8-.656,2.485,2.485,0,0,0-.919-.361h-.459a3.557,3.557,0,0,0-.481.033h-.033a3,3,0,0,0-.853.328,1.668,1.668,0,0,0-.6.5.11.11,0,0,1-.044.055c-.055.055-.12.109-.186.164,0,.011-.011.022-.011.033a2.784,2.784,0,0,0-.427,1.444c-.011.591-.011,1.291-.011,2.144v6.6c0,.252-.022.558-.044.93-.033.339-.044.689-.044,1.039v.055a2.95,2.95,0,0,0-.033.438,2.172,2.172,0,0,0,.033.383v.066a.1.1,0,0,0,.1.088.011.011,0,0,0,.011-.011c0,.011.011,0,.011,0l.011.011c.011,0,.011-.011.022-.011h.044c.044.011.1.011.142.022a.617.617,0,0,1,.131.044c.011,0,.033.011.044.011a.158.158,0,0,0,.077.022.083.083,0,0,1,.044.011.3.3,0,0,0,.1.011h.022a.476.476,0,0,1,.164-.088.453.453,0,0,1,.175-.033c.361,0,.689.022.984.044a5.769,5.769,0,0,0,.744.044.186.186,0,0,1,.077.011.993.993,0,0,0,.252.033,2.945,2.945,0,0,0,.306-.044h.066a3.088,3.088,0,0,0,.317-.022c.12-.011.241-.033.361-.055h.033c.022,0,.044-.011.066-.011a.457.457,0,0,1,.317.131h.033a.736.736,0,0,0,.153-.022h.044a1.512,1.512,0,0,1,.438-.109C1746.755,96.179,1746.547,95.588,1746.547,95.588Zm0,0c-.044-.273-.055-.58-.077-.908s-.022-.634-.022-.952a1.686,1.686,0,0,1,.077-.459.815.815,0,0,0,.044-.284,3.9,3.9,0,0,0-.066-.711v-.011a3,3,0,0,1-.055-.547V87.372c0-.591.033-1.214.087-1.871V85.48a4.212,4.212,0,0,0,.033-.525,3.624,3.624,0,0,0-.109-1.028,2.123,2.123,0,0,0-.525-.974,4.186,4.186,0,0,0-.8-.656,2.485,2.485,0,0,0-.919-.361h-.459a3.557,3.557,0,0,0-.481.033h-.033a3,3,0,0,0-.853.328,1.668,1.668,0,0,0-.6.5.11.11,0,0,1-.044.055c-.055.055-.12.109-.186.164,0,.011-.011.022-.011.033a2.784,2.784,0,0,0-.427,1.444c-.011.591-.011,1.291-.011,2.144v6.6c0,.252-.022.558-.044.93-.033.339-.044.689-.044,1.039v.055a2.95,2.95,0,0,0-.033.438,2.172,2.172,0,0,0,.033.383v.066a.1.1,0,0,0,.1.088.011.011,0,0,0,.011-.011c0,.011.011,0,.011,0l.011.011c.011,0,.011-.011.022-.011h.044c.044.011.1.011.142.022a.617.617,0,0,1,.131.044c.011,0,.033.011.044.011a.158.158,0,0,0,.077.022.083.083,0,0,1,.044.011.3.3,0,0,0,.1.011h.022a.476.476,0,0,1,.164-.088.453.453,0,0,1,.175-.033c.361,0,.689.022.984.044a5.769,5.769,0,0,0,.744.044.186.186,0,0,1,.077.011.993.993,0,0,0,.252.033,2.945,2.945,0,0,0,.306-.044h.066a3.088,3.088,0,0,0,.317-.022c.12-.011.241-.033.361-.055h.033c.022,0,.044-.011.066-.011a.457.457,0,0,1,.317.131h.033a.736.736,0,0,0,.153-.022h.044a1.512,1.512,0,0,1,.438-.109C1746.755,96.179,1746.547,95.588,1746.547,95.588Zm0,0c-.044-.273-.055-.58-.077-.908s-.022-.634-.022-.952a1.686,1.686,0,0,1,.077-.459.815.815,0,0,0,.044-.284,3.9,3.9,0,0,0-.066-.711v-.011a3,3,0,0,1-.055-.547V87.372c0-.591.033-1.214.087-1.871V85.48a4.212,4.212,0,0,0,.033-.525,3.624,3.624,0,0,0-.109-1.028,2.123,2.123,0,0,0-.525-.974,4.186,4.186,0,0,0-.8-.656,2.485,2.485,0,0,0-.919-.361h-.459a3.557,3.557,0,0,0-.481.033h-.033a3,3,0,0,0-.853.328,1.668,1.668,0,0,0-.6.5.11.11,0,0,1-.044.055c-.055.055-.12.109-.186.164,0,.011-.011.022-.011.033a2.784,2.784,0,0,0-.427,1.444c-.011.591-.011,1.291-.011,2.144v6.6c0,.252-.022.558-.044.93-.033.339-.044.689-.044,1.039v.055a2.95,2.95,0,0,0-.033.438,2.172,2.172,0,0,0,.033.383v.066a.1.1,0,0,0,.1.088.011.011,0,0,0,.011-.011c0,.011.011,0,.011,0l.011.011c.011,0,.011-.011.022-.011h.044c.044.011.1.011.142.022a.617.617,0,0,1,.131.044c.011,0,.033.011.044.011a.158.158,0,0,0,.077.022.083.083,0,0,1,.044.011.3.3,0,0,0,.1.011h.022a.476.476,0,0,1,.164-.088.453.453,0,0,1,.175-.033c.361,0,.689.022.984.044a5.769,5.769,0,0,0,.744.044.186.186,0,0,1,.077.011.993.993,0,0,0,.252.033,2.945,2.945,0,0,0,.306-.044h.066a3.088,3.088,0,0,0,.317-.022c.12-.011.241-.033.361-.055h.033c.022,0,.044-.011.066-.011a.457.457,0,0,1,.317.131h.033a.736.736,0,0,0,.153-.022h.044a1.512,1.512,0,0,1,.438-.109C1746.755,96.179,1746.547,95.588,1746.547,95.588Zm0,0c-.044-.273-.055-.58-.077-.908s-.022-.634-.022-.952a1.686,1.686,0,0,1,.077-.459.815.815,0,0,0,.044-.284,3.9,3.9,0,0,0-.066-.711v-.011a3,3,0,0,1-.055-.547V87.372c0-.591.033-1.214.087-1.871V85.48a4.212,4.212,0,0,0,.033-.525,3.624,3.624,0,0,0-.109-1.028,2.123,2.123,0,0,0-.525-.974,4.186,4.186,0,0,0-.8-.656,2.485,2.485,0,0,0-.919-.361h-.459a3.557,3.557,0,0,0-.481.033h-.033a3,3,0,0,0-.853.328,1.668,1.668,0,0,0-.6.5.11.11,0,0,1-.044.055c-.055.055-.12.109-.186.164,0,.011-.011.022-.011.033a2.784,2.784,0,0,0-.427,1.444c-.011.591-.011,1.291-.011,2.144v6.6c0,.252-.022.558-.044.93-.033.339-.044.689-.044,1.039v.055a2.95,2.95,0,0,0-.033.438,2.172,2.172,0,0,0,.033.383v.066a.1.1,0,0,0,.1.088.011.011,0,0,0,.011-.011c0,.011.011,0,.011,0l.011.011c.011,0,.011-.011.022-.011h.044c.044.011.1.011.142.022a.617.617,0,0,1,.131.044c.011,0,.033.011.044.011a.158.158,0,0,0,.077.022.083.083,0,0,1,.044.011.3.3,0,0,0,.1.011h.022a.476.476,0,0,1,.164-.088.453.453,0,0,1,.175-.033c.361,0,.689.022.984.044a5.769,5.769,0,0,0,.744.044.186.186,0,0,1,.077.011.993.993,0,0,0,.252.033,2.945,2.945,0,0,0,.306-.044h.066a3.088,3.088,0,0,0,.317-.022c.12-.011.241-.033.361-.055h.033c.022,0,.044-.011.066-.011a.457.457,0,0,1,.317.131h.033a.736.736,0,0,0,.153-.022h.044a1.512,1.512,0,0,1,.438-.109C1746.755,96.179,1746.547,95.588,1746.547,95.588Zm-6.925,12.854a.848.848,0,0,0-.241-.317,1.165,1.165,0,0,0-.361-.2,1.665,1.665,0,0,0-.459-.066h-2.155v2.1h2.155a1.35,1.35,0,0,0,.459-.077,1,1,0,0,0,.361-.208.8.8,0,0,0,.241-.328,1.261,1.261,0,0,0,.087-.449A1.144,1.144,0,0,0,1739.623,108.442Zm.481,3.479a1.36,1.36,0,0,0-.109-.547,1.423,1.423,0,0,0-.3-.47,1.406,1.406,0,0,0-.438-.317,1.089,1.089,0,0,0-.514-.131h-2.341v2.965h2.308a1.279,1.279,0,0,0,.536-.12,1.458,1.458,0,0,0,.744-.788h-.011A1.539,1.539,0,0,0,1740.1,111.921Zm3.271-2.144a1.821,1.821,0,0,0,0,3.643,1.821,1.821,0,1,0,0-3.643Zm3.172-14.189c-.044-.273-.055-.58-.077-.908s-.022-.634-.022-.952a1.686,1.686,0,0,1,.077-.459.815.815,0,0,0,.044-.284,3.9,3.9,0,0,0-.066-.711v-.011a3,3,0,0,1-.055-.547V87.372c0-.591.033-1.214.087-1.871V85.48a4.212,4.212,0,0,0,.033-.525,3.624,3.624,0,0,0-.109-1.028,2.123,2.123,0,0,0-.525-.974,4.186,4.186,0,0,0-.8-.656,2.485,2.485,0,0,0-.919-.361h-.459a3.557,3.557,0,0,0-.481.033h-.033a3,3,0,0,0-.853.328,1.668,1.668,0,0,0-.6.5.11.11,0,0,1-.044.055c-.055.055-.12.109-.186.164,0,.011-.011.022-.011.033a2.784,2.784,0,0,0-.427,1.444c-.011.591-.011,1.291-.011,2.144v6.6c0,.252-.022.558-.044.93-.033.339-.044.689-.044,1.039v.055a2.95,2.95,0,0,0-.033.438,2.172,2.172,0,0,0,.033.383v.066a.1.1,0,0,0,.1.088.011.011,0,0,0,.011-.011c0,.011.011,0,.011,0l.011.011c.011,0,.011-.011.022-.011h.044c.044.011.1.011.142.022a.617.617,0,0,1,.131.044c.011,0,.033.011.044.011a.158.158,0,0,0,.077.022.083.083,0,0,1,.044.011.3.3,0,0,0,.1.011h.022a.476.476,0,0,1,.164-.088.453.453,0,0,1,.175-.033c.361,0,.689.022.984.044a5.769,5.769,0,0,0,.744.044.186.186,0,0,1,.077.011.993.993,0,0,0,.252.033,2.945,2.945,0,0,0,.306-.044h.066a3.088,3.088,0,0,0,.317-.022c.12-.011.241-.033.361-.055h.033c.022,0,.044-.011.066-.011a.457.457,0,0,1,.317.131h.033a.736.736,0,0,0,.153-.022h.044a1.512,1.512,0,0,1,.438-.109C1746.755,96.179,1746.547,95.588,1746.547,95.588Zm0,0c-.044-.273-.055-.58-.077-.908s-.022-.634-.022-.952a1.686,1.686,0,0,1,.077-.459.815.815,0,0,0,.044-.284,3.9,3.9,0,0,0-.066-.711v-.011a3,3,0,0,1-.055-.547V87.372c0-.591.033-1.214.087-1.871V85.48a4.212,4.212,0,0,0,.033-.525,3.624,3.624,0,0,0-.109-1.028,2.123,2.123,0,0,0-.525-.974,4.186,4.186,0,0,0-.8-.656,2.485,2.485,0,0,0-.919-.361h-.459a3.557,3.557,0,0,0-.481.033h-.033a3,3,0,0,0-.853.328,1.668,1.668,0,0,0-.6.5.11.11,0,0,1-.044.055c-.055.055-.12.109-.186.164,0,.011-.011.022-.011.033a2.784,2.784,0,0,0-.427,1.444c-.011.591-.011,1.291-.011,2.144v6.6c0,.252-.022.558-.044.93-.033.339-.044.689-.044,1.039v.055a2.95,2.95,0,0,0-.033.438,2.172,2.172,0,0,0,.033.383v.066a.1.1,0,0,0,.1.088.011.011,0,0,0,.011-.011c0,.011.011,0,.011,0l.011.011c.011,0,.011-.011.022-.011h.044c.044.011.1.011.142.022a.617.617,0,0,1,.131.044c.011,0,.033.011.044.011a.158.158,0,0,0,.077.022.083.083,0,0,1,.044.011.3.3,0,0,0,.1.011h.022a.476.476,0,0,1,.164-.088.453.453,0,0,1,.175-.033c.361,0,.689.022.984.044a5.769,5.769,0,0,0,.744.044.186.186,0,0,1,.077.011.993.993,0,0,0,.252.033,2.945,2.945,0,0,0,.306-.044h.066a3.088,3.088,0,0,0,.317-.022c.12-.011.241-.033.361-.055h.033c.022,0,.044-.011.066-.011a.457.457,0,0,1,.317.131h.033a.736.736,0,0,0,.153-.022h.044a1.512,1.512,0,0,1,.438-.109C1746.755,96.179,1746.547,95.588,1746.547,95.588Zm-3.172,14.189a1.821,1.821,0,0,0,0,3.643,1.821,1.821,0,1,0,0-3.643Zm-3.271,2.144a1.36,1.36,0,0,0-.109-.547,1.423,1.423,0,0,0-.3-.47,1.406,1.406,0,0,0-.438-.317,1.089,1.089,0,0,0-.514-.131h-2.341v2.965h2.308a1.279,1.279,0,0,0,.536-.12,1.458,1.458,0,0,0,.744-.788h-.011A1.539,1.539,0,0,0,1740.1,111.921Zm-1.083-2.035a1,1,0,0,0,.361-.208.8.8,0,0,0,.241-.328,1.261,1.261,0,0,0,.087-.449,1.144,1.144,0,0,0-.087-.459.848.848,0,0,0-.241-.317,1.165,1.165,0,0,0-.361-.2,1.665,1.665,0,0,0-.459-.066h-2.155v2.1h2.155A1.35,1.35,0,0,0,1739.021,109.886Zm44.688-24.527A39.282,39.282,0,0,0,1773.043,67a41.363,41.363,0,0,0-30.084-12.034,51.093,51.093,0,0,1-8.172-.514,40.116,40.116,0,0,1-11.246-3.446,19.92,19.92,0,0,0-6.826-2.068,18.312,18.312,0,0,0-10.261,1.914,17.227,17.227,0,0,0-7.844,22.787,39.118,39.118,0,0,1,3.676,18.9,41.123,41.123,0,0,0,.656,10.36,39.622,39.622,0,0,0,12.8,22.207,42.264,42.264,0,0,0,35.63,9.846,41.021,41.021,0,0,0,21.3-10.929,39.182,39.182,0,0,0,12.22-26.211A38.266,38.266,0,0,0,1783.709,85.36ZM1727.545,80.2a.638.638,0,0,1-.033.208v.109c-.011.131-.022.273-.044.4,0,.033-.011.055-.011.077a1.529,1.529,0,0,0-.088.372v1.893a.878.878,0,0,0,.044.3,2.129,2.129,0,0,1,.1.634,1.744,1.744,0,0,1-.1.58,1.279,1.279,0,0,0-.044.35,1.474,1.474,0,0,0,.044.317,1.956,1.956,0,0,1,0,1.225,1.106,1.106,0,0,0-.044.317c0,.47.022.952.055,1.433s.055.985.088,1.477v.263c-.011.4-.033.82-.077,1.225v.011a7.5,7.5,0,0,1-.372,1.477v.011a5.651,5.651,0,0,1-2.3,2.91,1.545,1.545,0,0,1-.372.208c-.153.077-.339.142-.525.219h-.022a1.609,1.609,0,0,1-.306.088c-.109.022-.219.055-.339.077l-.12.022v.263q.033.542.033.985,0,.788.033,1.313v.449c0,.252-.011.514-.033.777v2.144c0,.23,0,.459-.022.678s-.022.416-.033.558a.76.76,0,0,1-.35.678.452.452,0,0,1-.208.055c-.011,0-.055.011-.2.033a4.228,4.228,0,0,1-.525.033c-.109.022-.219.033-.328.044a2.744,2.744,0,0,1-.3-.044.861.861,0,0,1-.6-.208,1,1,0,0,1-.208-.7,2.633,2.633,0,0,1-.033-.4,3.445,3.445,0,0,1,.033-.481c0-.241.011-2.254.033-2.593s.033-.624.033-.875c0-.492.011-.941.033-1.357V96.726a1.034,1.034,0,0,0-.142-.438.371.371,0,0,0-.219-.033h-.077a.7.7,0,0,0-.077-.022,5.591,5.591,0,0,1-1.718-.8,4.934,4.934,0,0,1-1.335-1.4l-.011-.011a3.868,3.868,0,0,1-.252-.58c-.066-.219-.131-.4-.175-.591a7.4,7.4,0,0,1-.438-1.947c-.066-.711-.109-1.5-.109-2.341,0-.8.022-1.652.055-2.516s.055-1.707.055-2.538V72.341a.488.488,0,0,1,.481-.492h1.728a.49.49,0,0,1,.492.492c0,.186-.044,18.543-.011,18.838.022.131.044.273.066.416a3.543,3.543,0,0,0,.394,1.422,1.555,1.555,0,0,0,.12.175,1.632,1.632,0,0,0,.788.645,3.608,3.608,0,0,0,1.017.284c.208.011,1.356.033,1.411.033a2.772,2.772,0,0,0,.919-.4,2.877,2.877,0,0,0,.613-.536l.164-.175a6.265,6.265,0,0,0,.6-2.264c.164-2.024-.087-12.931-.109-14.167v-.164c0-.033.011-3.446.055-3.577l.011-.022a.713.713,0,0,1,.033-.088.639.639,0,0,1-.066-.284.652.652,0,0,1,.208-.481.479.479,0,0,1,.35-.142h1.75a.49.49,0,0,1,.492.492c0,.7-.022,4.529-.055,5.2-.033.6-.055,1.192-.077,1.772a.454.454,0,0,1,.077.12.8.8,0,0,1,.087.361.521.521,0,0,1-.044.219A.359.359,0,0,1,1727.545,80.2Zm7.111,24.089-1.072-.044c-.35-.011-.569-.022-.7-.022-.6,0-1.16-.011-1.652-.033h-.273a4.148,4.148,0,0,0-1.149.153c-.022,0-.055.011-.088.011h-.12a.332.332,0,0,1-.328-.339v-24.6a.329.329,0,0,1,.328-.328h6.476a.359.359,0,0,1,.3.164.979.979,0,0,1,.164.492v.131a.286.286,0,0,1-.044.164.718.718,0,0,0-.077.361v.252a1.532,1.532,0,0,0,.033.306l.087.5a.353.353,0,0,1-.1.284.985.985,0,0,1-.733.186c-.306,0-.656-.011-1.017-.022l-.262-.011-.842-.033c-.361-.011-.634-.022-.82-.022,0,0-.831-.109-.821.853,0,.328.011.1.022.5.011.372.033.81.044,1.236s.022.7.022.886l-.109,9.288-.011.842c-.087,1.039.777.8.777.8a2.985,2.985,0,0,1,.448-.033c.328,0,.645.022.93.044a.2.2,0,0,1,.077.022.553.553,0,0,0,.142.022.877.877,0,0,0,.328-.066.332.332,0,0,1,.427.2.275.275,0,0,1,.022.164,4.411,4.411,0,0,1-.087.525,2.206,2.206,0,0,0-.033.536,1.962,1.962,0,0,0,.1.361.941.941,0,0,1,.109.416.631.631,0,0,1-.175.438.194.194,0,0,1-.055.044.935.935,0,0,1-.514.142c-.175,0-.35-.011-.514-.022a3.322,3.322,0,0,1-.459-.066h-.175c-1.3-.416-1.247.492-1.247.492a6.318,6.318,0,0,0-.055.678v.011a4.909,4.909,0,0,0-.044.7s-.208.689.274.711c.273.011.547.022.831.022s.634-.022,1.017-.044l1.17-.088h.022a4.229,4.229,0,0,0,.525-.033h.175a.573.573,0,0,1,.372.109.629.629,0,0,1,.241.547,1.645,1.645,0,0,1-.044.4c0,.022-.011.033-.011.044a1.275,1.275,0,0,0-.1.492.817.817,0,0,0,.022.284.082.082,0,0,1,.011.044.238.238,0,0,0,.055.088c.011.022.022.033.033.055a.607.607,0,0,1,.077.306.437.437,0,0,1-.142.328c-.131.131-.339.186-.766.186C1735.356,104.307,1735.017,104.3,1734.656,104.285Zm5.371,9.047a1.713,1.713,0,0,1-1.313.569h-2.549a.021.021,0,0,1-.033,0,.221.221,0,0,1-.2-.241v-6.082a.211.211,0,0,1,.23-.2h2.385a1.7,1.7,0,0,1,.623.109,1.613,1.613,0,0,1,.514.3,1.431,1.431,0,0,1,.361.481,1.592,1.592,0,0,1-.088,1.455,1.7,1.7,0,0,1-.437.449,1.32,1.32,0,0,1,.328.219,1.578,1.578,0,0,1,.383.427,1.792,1.792,0,0,1,.252.525,1.608,1.608,0,0,1,.088.6A1.941,1.941,0,0,1,1740.028,113.332Zm5.579.492h-.448v-.9a2.215,2.215,0,0,1-.777.645,2.144,2.144,0,0,1-1.006.252,2.239,2.239,0,1,1,2.232-2.232ZM1741.865,98.9a.668.668,0,0,0-.821.47.553.553,0,0,0-.022.131l.055,1.2c.011.3.022.481.022.591,0,.2.011.427.022.689s.033.536.055.8v.766c-.044.35-.077.481-.175.569a.718.718,0,0,1-.481.186.707.707,0,0,1-.219-.044c-.186,0-.372-.011-.58-.022a5.1,5.1,0,0,1-.656-.066h-.23a.339.339,0,0,1-.46-.131.44.44,0,0,1-.033-.164v-1.838a.276.276,0,0,1,.022-.131.216.216,0,0,1-.022-.12V88.97a.276.276,0,0,1,.022-.131.216.216,0,0,1-.022-.12v-5a.34.34,0,0,1,.1-.241.78.78,0,0,0,.186-.492,2.383,2.383,0,0,1,.241-.9c0-.011.011-.022.022-.033a.883.883,0,0,1,.284-.284.332.332,0,0,0,.088-.088.661.661,0,0,0,.066-.208.987.987,0,0,1,.2-.438,3.936,3.936,0,0,1,1.586-1.214c.569-.241,1.181-.481,1.827-.722a.464.464,0,0,1,.12-.022h1.225a.138.138,0,0,1,.066.011,6.738,6.738,0,0,1,2.221.831,5,5,0,0,1,1.7,1.652l.011.033.022.033.1.208.12.241c.131.241.252.459.35.656a3.213,3.213,0,0,1,.263.908,7.625,7.625,0,0,1,.12,1.5,8.292,8.292,0,0,1-.033.886c-.055.908-.088,1.86-.088,2.811v15.042a.29.29,0,0,1-.088.23.634.634,0,0,1-.492.186.557.557,0,0,1-.219-.044,4.251,4.251,0,0,1-.525-.044h-.011a1.9,1.9,0,0,0-.35-.033h-.164a.344.344,0,0,1-.284.153h-.12a.332.332,0,0,1-.273-.131,1.284,1.284,0,0,1-.186-.777,2.5,2.5,0,0,1-.044-.492,2.719,2.719,0,0,1,.044-.514,8.622,8.622,0,0,1,.066-1.061,6.55,6.55,0,0,0,.055-.8V99.417c.011-.394-.448-.449-.448-.449Zm8.281,12.69a1.693,1.693,0,0,0-.142-.689,1.78,1.78,0,0,0-.952-.941,1.682,1.682,0,0,0-1.378,0,1.725,1.725,0,0,0-.941.941,1.529,1.529,0,0,0-.142.689v2.232h-.449v-2.232a2.2,2.2,0,0,1,2.188-2.221h.033a2.054,2.054,0,0,1,.853.175,2.368,2.368,0,0,1,.711.47,2.055,2.055,0,0,1,.481.7,2.246,2.246,0,0,1,.186.875Zm10.316-15.972a8.55,8.55,0,0,1-.153,1.586,9.75,9.75,0,0,1-.383,1.477,6.4,6.4,0,0,1-.536,1.225,1.2,1.2,0,0,1-.241.339c-.044.055-.1.109-.142.175v.011a3.726,3.726,0,0,0-.306.492,2.487,2.487,0,0,1-.328.5l-.011.022a3.455,3.455,0,0,1-.8.689c-.164.1-.317.219-.47.328l-.011.011a4.174,4.174,0,0,0-.481.394,4.282,4.282,0,0,1-.8.5c-.448.219-.755.361-.919.438a3.449,3.449,0,0,1-.569.186,3.747,3.747,0,0,1-.4.109c-.2.055-.383.088-.591.131a3.886,3.886,0,0,1-.514.066.515.515,0,0,1-.186.044.626.626,0,0,1-.481-.186c-.1-.1-.142-.23-.164-.536-.011-.2-.022-.416-.022-.678,0-.241.011-.459.022-.656.022-.328.066-.47.164-.569a.921.921,0,0,1,.438-.186l.164-.044.4-.1a8.8,8.8,0,0,0,1.192-.35,4.2,4.2,0,0,0,.984-.569l.011-.011a5.05,5.05,0,0,0,1.346-1.422,6.3,6.3,0,0,0,.853-2.144,11.213,11.213,0,0,0,.153-1.138v-.306a4.21,4.21,0,0,0-.153-1.1,4.006,4.006,0,0,0-.361-.864,3.335,3.335,0,0,0-.547-.8l-.011-.033a6.351,6.351,0,0,0-.733-.8c-.339-.306-.6-.547-.82-.744-.011-.011-.033-.022-.044-.044a1.171,1.171,0,0,0-.383-.273,4.774,4.774,0,0,1-.6-.394,2.612,2.612,0,0,0-.306-.142,1.739,1.739,0,0,1-.449-.23l-.033-.033a.487.487,0,0,1-.131-.23,3.171,3.171,0,0,1-.777-.645q-.361-.394-.689-.722a2.156,2.156,0,0,1-.35-.536c-.109-.23-.23-.481-.339-.744a6.588,6.588,0,0,1-.284-.82,4.007,4.007,0,0,1-.109-.8V85.25a6.464,6.464,0,0,1,.219-1.521,5.4,5.4,0,0,1,.7-1.608,2.093,2.093,0,0,1,.3-.383,1.782,1.782,0,0,0,.186-.219v-.033a2.694,2.694,0,0,0,.678-.9.529.529,0,0,1,.394-.175h.044c.077-.055.175-.131.306-.241a3.546,3.546,0,0,1,.58-.383,4.719,4.719,0,0,1,.733-.306,1.575,1.575,0,0,1,.558-.1h.022a.553.553,0,0,1,.383-.12.286.286,0,0,1,.186.055.324.324,0,0,1,.109-.022c.306,0,.383.35.4.481a.477.477,0,0,1,.011.055,1.757,1.757,0,0,0,.033.263,3.7,3.7,0,0,1,.044.6c0,.219-.011.438-.022.645a1.626,1.626,0,0,1-.055.394c-.033.219-.241.273-.328.306-.066.011-.153.033-.273.066-.306.088-.438.12-.492.142a2.543,2.543,0,0,0-.733.4,6.059,6.059,0,0,0-.678.722,1.975,1.975,0,0,0-.284.569,3.337,3.337,0,0,0-.164.8v.033a1.918,1.918,0,0,0-.044.35,3.914,3.914,0,0,0,.044.514,2.123,2.123,0,0,0,.252.755c0,.011,0,.011.011.022a3.028,3.028,0,0,0,.438.722,3.642,3.642,0,0,0,.678.624.15.15,0,0,1,.044.033,1.193,1.193,0,0,0,.186.142l.3.164.022.011h.044a.515.515,0,0,1,.361.153,6.085,6.085,0,0,1,.689.492c.186.164.383.328.569.514a.3.3,0,0,1,.1-.011.368.368,0,0,1,.284.131.41.41,0,0,1,.131.219.684.684,0,0,1,.219.142,6.3,6.3,0,0,1,1.5,1.893,11.265,11.265,0,0,1,1.061,2.407v.011a7.13,7.13,0,0,1,.164,1.444Zm6.279-15.928a.213.213,0,0,0-.055.1,1.184,1.184,0,0,0-.011.2.956.956,0,0,0,.011.241c.011.142.033.306.055.492v.634a.8.8,0,0,1-.175.47.822.822,0,0,1-.6.219.36.36,0,0,1-.186-.044,2.739,2.739,0,0,1-.6-.066s-.6-.273-.6.186v19.013c0,.252.011.525.022.831.011.328.022.624.022.9v.733c0,.317-.022.492-.142.6a.575.575,0,0,1-.438.142h-.241q-.394-.033-.656-.033a5.9,5.9,0,0,1-.766-.033.649.649,0,0,1-.416-.2.916.916,0,0,1-.186-.645c0-.2.011-.449.022-.733.011-.186.022-.383.033-.58l.011-.3c.011-.3.022-.569.022-.81V99.362a4.261,4.261,0,0,1-.044-.514,5.876,5.876,0,0,1,.044-.766V93.969c-.022-.4-.044-.853-.044-1.324,0-.875.022-1.794.044-2.746V87.208c0-.2.011-.613.022-1.171.011-.591.022-1.2.044-1.849s.022-1.225.022-1.739c0,0,.109-.634-.459-.547,0,0-.853.153-.974.142a1,1,0,0,1-.558-.153.39.39,0,0,1-.219-.383.322.322,0,0,1,.044-.175v-.077a1.11,1.11,0,0,1-.044-.317.563.563,0,0,1,.022-.142.53.53,0,0,1-.109-.317.382.382,0,0,1,.109-.263c-.011-.066-.033-.131-.044-.2a.459.459,0,0,1-.066-.23.879.879,0,0,1,.186-.492.332.332,0,0,1,.274-.131h1.6a.224.224,0,0,0,.12,0h4.628a.341.341,0,0,1,.339.339A.369.369,0,0,1,1766.742,79.693Zm-20.194,15.9c-.044-.273-.055-.58-.077-.908s-.022-.634-.022-.952a1.686,1.686,0,0,1,.077-.459.815.815,0,0,0,.044-.284,3.9,3.9,0,0,0-.066-.711v-.011a3,3,0,0,1-.055-.547V87.372c0-.591.033-1.214.087-1.871V85.48a4.212,4.212,0,0,0,.033-.525,3.624,3.624,0,0,0-.109-1.028,2.123,2.123,0,0,0-.525-.974,4.186,4.186,0,0,0-.8-.656,2.485,2.485,0,0,0-.919-.361h-.459a3.557,3.557,0,0,0-.481.033h-.033a3,3,0,0,0-.853.328,1.668,1.668,0,0,0-.6.5.11.11,0,0,1-.044.055c-.055.055-.12.109-.186.164,0,.011-.011.022-.011.033a2.784,2.784,0,0,0-.427,1.444c-.011.591-.011,1.291-.011,2.144v6.6c0,.252-.022.558-.044.93-.033.339-.044.689-.044,1.039v.055a2.95,2.95,0,0,0-.033.438,2.172,2.172,0,0,0,.033.383v.066a.1.1,0,0,0,.1.088.011.011,0,0,0,.011-.011c0,.011.011,0,.011,0l.011.011c.011,0,.011-.011.022-.011h.044c.044.011.1.011.142.022a.617.617,0,0,1,.131.044c.011,0,.033.011.044.011a.158.158,0,0,0,.077.022.083.083,0,0,1,.044.011.3.3,0,0,0,.1.011h.022a.476.476,0,0,1,.164-.088.453.453,0,0,1,.175-.033c.361,0,.689.022.984.044a5.769,5.769,0,0,0,.744.044.186.186,0,0,1,.077.011.993.993,0,0,0,.252.033,2.945,2.945,0,0,0,.306-.044h.066a3.088,3.088,0,0,0,.317-.022c.12-.011.241-.033.361-.055h.033c.022,0,.044-.011.066-.011a.457.457,0,0,1,.317.131h.033a.736.736,0,0,0,.153-.022h.044a1.512,1.512,0,0,1,.438-.109C1746.755,96.179,1746.547,95.588,1746.547,95.588Zm-3.172,14.189a1.821,1.821,0,0,0,0,3.643,1.821,1.821,0,1,0,0-3.643ZM1739.7,110.9a1.406,1.406,0,0,0-.438-.317,1.089,1.089,0,0,0-.514-.131h-2.341v2.965h2.308a1.279,1.279,0,0,0,.536-.12,1.458,1.458,0,0,0,.744-.788h-.011a1.539,1.539,0,0,0,.12-.591,1.36,1.36,0,0,0-.109-.547A1.423,1.423,0,0,0,1739.7,110.9Zm-.678-1.017a1,1,0,0,0,.361-.208.8.8,0,0,0,.241-.328,1.261,1.261,0,0,0,.087-.449,1.144,1.144,0,0,0-.087-.459.848.848,0,0,0-.241-.317,1.165,1.165,0,0,0-.361-.2,1.665,1.665,0,0,0-.459-.066h-2.155v2.1h2.155A1.35,1.35,0,0,0,1739.021,109.886Zm4.354-.109a1.821,1.821,0,0,0,0,3.643,1.821,1.821,0,1,0,0-3.643Zm3.172-14.189c-.044-.273-.055-.58-.077-.908s-.022-.634-.022-.952a1.686,1.686,0,0,1,.077-.459.815.815,0,0,0,.044-.284,3.9,3.9,0,0,0-.066-.711v-.011a3,3,0,0,1-.055-.547V87.372c0-.591.033-1.214.087-1.871V85.48a4.212,4.212,0,0,0,.033-.525,3.624,3.624,0,0,0-.109-1.028,2.123,2.123,0,0,0-.525-.974,4.186,4.186,0,0,0-.8-.656,2.485,2.485,0,0,0-.919-.361h-.459a3.557,3.557,0,0,0-.481.033h-.033a3,3,0,0,0-.853.328,1.668,1.668,0,0,0-.6.5.11.11,0,0,1-.044.055c-.055.055-.12.109-.186.164,0,.011-.011.022-.011.033a2.784,2.784,0,0,0-.427,1.444c-.011.591-.011,1.291-.011,2.144v6.6c0,.252-.022.558-.044.93-.033.339-.044.689-.044,1.039v.055a2.95,2.95,0,0,0-.033.438,2.172,2.172,0,0,0,.033.383v.066a.1.1,0,0,0,.1.088.011.011,0,0,0,.011-.011c0,.011.011,0,.011,0l.011.011c.011,0,.011-.011.022-.011h.044c.044.011.1.011.142.022a.617.617,0,0,1,.131.044c.011,0,.033.011.044.011a.158.158,0,0,0,.077.022.083.083,0,0,1,.044.011.3.3,0,0,0,.1.011h.022a.476.476,0,0,1,.164-.088.453.453,0,0,1,.175-.033c.361,0,.689.022.984.044a5.769,5.769,0,0,0,.744.044.186.186,0,0,1,.077.011.993.993,0,0,0,.252.033,2.945,2.945,0,0,0,.306-.044h.066a3.088,3.088,0,0,0,.317-.022c.12-.011.241-.033.361-.055h.033c.022,0,.044-.011.066-.011a.457.457,0,0,1,.317.131h.033a.736.736,0,0,0,.153-.022h.044a1.512,1.512,0,0,1,.438-.109C1746.755,96.179,1746.547,95.588,1746.547,95.588Zm0,0c-.044-.273-.055-.58-.077-.908s-.022-.634-.022-.952a1.686,1.686,0,0,1,.077-.459.815.815,0,0,0,.044-.284,3.9,3.9,0,0,0-.066-.711v-.011a3,3,0,0,1-.055-.547V87.372c0-.591.033-1.214.087-1.871V85.48a4.212,4.212,0,0,0,.033-.525,3.624,3.624,0,0,0-.109-1.028,2.123,2.123,0,0,0-.525-.974,4.186,4.186,0,0,0-.8-.656,2.485,2.485,0,0,0-.919-.361h-.459a3.557,3.557,0,0,0-.481.033h-.033a3,3,0,0,0-.853.328,1.668,1.668,0,0,0-.6.5.11.11,0,0,1-.044.055c-.055.055-.12.109-.186.164,0,.011-.011.022-.011.033a2.784,2.784,0,0,0-.427,1.444c-.011.591-.011,1.291-.011,2.144v6.6c0,.252-.022.558-.044.93-.033.339-.044.689-.044,1.039v.055a2.95,2.95,0,0,0-.033.438,2.172,2.172,0,0,0,.033.383v.066a.1.1,0,0,0,.1.088.011.011,0,0,0,.011-.011c0,.011.011,0,.011,0l.011.011c.011,0,.011-.011.022-.011h.044c.044.011.1.011.142.022a.617.617,0,0,1,.131.044c.011,0,.033.011.044.011a.158.158,0,0,0,.077.022.083.083,0,0,1,.044.011.3.3,0,0,0,.1.011h.022a.476.476,0,0,1,.164-.088.453.453,0,0,1,.175-.033c.361,0,.689.022.984.044a5.769,5.769,0,0,0,.744.044.186.186,0,0,1,.077.011.993.993,0,0,0,.252.033,2.945,2.945,0,0,0,.306-.044h.066a3.088,3.088,0,0,0,.317-.022c.12-.011.241-.033.361-.055h.033c.022,0,.044-.011.066-.011a.457.457,0,0,1,.317.131h.033a.736.736,0,0,0,.153-.022h.044a1.512,1.512,0,0,1,.438-.109C1746.755,96.179,1746.547,95.588,1746.547,95.588Zm-3.172,14.189a1.821,1.821,0,0,0,0,3.643,1.821,1.821,0,1,0,0-3.643Zm3.172-14.189c-.044-.273-.055-.58-.077-.908s-.022-.634-.022-.952a1.686,1.686,0,0,1,.077-.459.815.815,0,0,0,.044-.284,3.9,3.9,0,0,0-.066-.711v-.011a3,3,0,0,1-.055-.547V87.372c0-.591.033-1.214.087-1.871V85.48a4.212,4.212,0,0,0,.033-.525,3.624,3.624,0,0,0-.109-1.028,2.123,2.123,0,0,0-.525-.974,4.186,4.186,0,0,0-.8-.656,2.485,2.485,0,0,0-.919-.361h-.459a3.557,3.557,0,0,0-.481.033h-.033a3,3,0,0,0-.853.328,1.668,1.668,0,0,0-.6.5.11.11,0,0,1-.044.055c-.055.055-.12.109-.186.164,0,.011-.011.022-.011.033a2.784,2.784,0,0,0-.427,1.444c-.011.591-.011,1.291-.011,2.144v6.6c0,.252-.022.558-.044.93-.033.339-.044.689-.044,1.039v.055a2.95,2.95,0,0,0-.033.438,2.172,2.172,0,0,0,.033.383v.066a.1.1,0,0,0,.1.088.011.011,0,0,0,.011-.011c0,.011.011,0,.011,0l.011.011c.011,0,.011-.011.022-.011h.044c.044.011.1.011.142.022a.617.617,0,0,1,.131.044c.011,0,.033.011.044.011a.158.158,0,0,0,.077.022.083.083,0,0,1,.044.011.3.3,0,0,0,.1.011h.022a.476.476,0,0,1,.164-.088.453.453,0,0,1,.175-.033c.361,0,.689.022.984.044a5.769,5.769,0,0,0,.744.044.186.186,0,0,1,.077.011.993.993,0,0,0,.252.033,2.945,2.945,0,0,0,.306-.044h.066a3.088,3.088,0,0,0,.317-.022c.12-.011.241-.033.361-.055h.033c.022,0,.044-.011.066-.011a.457.457,0,0,1,.317.131h.033a.736.736,0,0,0,.153-.022h.044a1.512,1.512,0,0,1,.438-.109C1746.755,96.179,1746.547,95.588,1746.547,95.588Zm0,0c-.044-.273-.055-.58-.077-.908s-.022-.634-.022-.952a1.686,1.686,0,0,1,.077-.459.815.815,0,0,0,.044-.284,3.9,3.9,0,0,0-.066-.711v-.011a3,3,0,0,1-.055-.547V87.372c0-.591.033-1.214.087-1.871V85.48a4.212,4.212,0,0,0,.033-.525,3.624,3.624,0,0,0-.109-1.028,2.123,2.123,0,0,0-.525-.974,4.186,4.186,0,0,0-.8-.656,2.485,2.485,0,0,0-.919-.361h-.459a3.557,3.557,0,0,0-.481.033h-.033a3,3,0,0,0-.853.328,1.668,1.668,0,0,0-.6.5.11.11,0,0,1-.044.055c-.055.055-.12.109-.186.164,0,.011-.011.022-.011.033a2.784,2.784,0,0,0-.427,1.444c-.011.591-.011,1.291-.011,2.144v6.6c0,.252-.022.558-.044.93-.033.339-.044.689-.044,1.039v.055a2.95,2.95,0,0,0-.033.438,2.172,2.172,0,0,0,.033.383v.066a.1.1,0,0,0,.1.088.011.011,0,0,0,.011-.011c0,.011.011,0,.011,0l.011.011c.011,0,.011-.011.022-.011h.044c.044.011.1.011.142.022a.617.617,0,0,1,.131.044c.011,0,.033.011.044.011a.158.158,0,0,0,.077.022.083.083,0,0,1,.044.011.3.3,0,0,0,.1.011h.022a.476.476,0,0,1,.164-.088.453.453,0,0,1,.175-.033c.361,0,.689.022.984.044a5.769,5.769,0,0,0,.744.044.186.186,0,0,1,.077.011.993.993,0,0,0,.252.033,2.945,2.945,0,0,0,.306-.044h.066a3.088,3.088,0,0,0,.317-.022c.12-.011.241-.033.361-.055h.033c.022,0,.044-.011.066-.011a.457.457,0,0,1,.317.131h.033a.736.736,0,0,0,.153-.022h.044a1.512,1.512,0,0,1,.438-.109C1746.755,96.179,1746.547,95.588,1746.547,95.588Z"/>
      <path id="Tracé_2323" data-name="Tracé 2323" d="M1742.524,93.38a1.512,1.512,0,0,0-.438.109h-.044a.736.736,0,0,1-.153.022h-.033a.457.457,0,0,0-.317-.131c-.022,0-.044.011-.066.011h-.033c-.12.022-.241.044-.361.055a3.088,3.088,0,0,1-.317.022h-.066a2.945,2.945,0,0,1-.306.044.993.993,0,0,1-.252-.033.186.186,0,0,0-.077-.011,5.769,5.769,0,0,1-.744-.044c-.3-.022-.624-.044-.984-.044a.453.453,0,0,0-.175.033.476.476,0,0,0-.164.088h-.022a.3.3,0,0,1-.1-.011.221.221,0,0,1-.12-.033c-.011,0-.033-.011-.044-.011a.617.617,0,0,0-.131-.044c-.044-.011-.1-.011-.142-.022h-.044c-.011,0-.011.011-.022.011s-.011,0-.022-.011a.011.011,0,0,1-.011.011.1.1,0,0,1-.1-.088v-.066a2.172,2.172,0,0,1-.033-.383,2.95,2.95,0,0,1,.033-.438v-.055c0-.35.011-.7.044-1.039.022-.372.044-.678.044-.93V83.8c0-.853,0-1.553.011-2.144a2.784,2.784,0,0,1,.427-1.444c0-.011.011-.022.011-.033.066-.055.131-.109.186-.164a.11.11,0,0,0,.044-.055,1.668,1.668,0,0,1,.6-.5,3,3,0,0,1,.853-.328h.033a3.557,3.557,0,0,1,.481-.033h.459a2.485,2.485,0,0,1,.919.361,4.186,4.186,0,0,1,.8.656,2.123,2.123,0,0,1,.525.974,3.624,3.624,0,0,1,.109,1.028,4.212,4.212,0,0,1-.033.525v.022c-.055.656-.087,1.28-.087,1.871v4.343a3,3,0,0,0,.055.547v.011a3.9,3.9,0,0,1,.066.711.815.815,0,0,1-.044.284,1.686,1.686,0,0,0-.077.459c0,.317.011.634.022.952s.033.634.077.908C1742.764,92.746,1742.972,93.336,1742.524,93.38Z" transform="translate(3.783 2.842)" fill="#fff"/>
      <path id="Tracé_2278" data-name="Tracé 2278" d="M1760.291,76.737" transform="translate(5.952 2.621)" fill="#00422f"/>
      <path id="Tracé_2324" data-name="Tracé 2324" d="M1742.521,93.38a1.512,1.512,0,0,0-.438.109h-.044a.736.736,0,0,1-.153.022.418.418,0,0,0-.35-.131c-.022,0-.044.011-.066.011h-.033c-.12.022-.241.044-.361.055a3.088,3.088,0,0,1-.317.022h-.066a2.945,2.945,0,0,1-.306.044.993.993,0,0,1-.252-.033.186.186,0,0,0-.077-.011,5.769,5.769,0,0,1-.744-.044c-.3-.022-.624-.044-.984-.044a.453.453,0,0,0-.175.033.476.476,0,0,0-.164.088h-.022a.3.3,0,0,1-.1-.011c-.033-.011-.066-.011-.088-.033-.011,0-.022-.011-.044-.011a.309.309,0,0,0-.164-.044.319.319,0,0,0-.1-.022h-.088c-.011,0-.011.011-.022.011s-.011,0-.022-.011a.092.092,0,0,1-.077-.077v-.066a2.172,2.172,0,0,1-.033-.383,2.95,2.95,0,0,1,.033-.438v-.055c0-.35.011-.7.044-1.039.022-.372.044-.678.044-.93V83.8c0-.853,0-1.553.022-2.144a2.676,2.676,0,0,1,.416-1.444c0-.011.011-.022.022-.033a1.242,1.242,0,0,0,.175-.164.109.109,0,0,0,.044-.055,1.667,1.667,0,0,1,.6-.5,3,3,0,0,1,.853-.328,3.557,3.557,0,0,1,.481-.033h.459a2.485,2.485,0,0,1,.919.361,4.186,4.186,0,0,1,.8.656,2.123,2.123,0,0,1,.525.974,3.624,3.624,0,0,1,.109,1.028,4.212,4.212,0,0,1-.033.525v.022c-.055.656-.087,1.28-.087,1.871v4.343a3,3,0,0,0,.055.547v.011a3.9,3.9,0,0,1,.066.711.815.815,0,0,1-.044.284,1.686,1.686,0,0,0-.077.459c0,.317.011.634.022.952s.033.634.077.908C1742.761,92.746,1742.969,93.336,1742.521,93.38Z" transform="translate(3.786 2.842)" fill="#000503"/>
    </g>
  </g>
</svg>
